<?xml version="1.0" encoding="utf-8" standalone="no"?>
<!DOCTYPE svg PUBLIC "-//W3C//DTD SVG 1.1//EN"
  "http://www.w3.org/Graphics/SVG/1.1/DTD/svg11.dtd">
<svg xmlns:xlink="http://www.w3.org/1999/xlink" width="391.438281pt" height="316.875628pt" viewBox="0 0 391.438281 316.875628" xmlns="http://www.w3.org/2000/svg" version="1.1">
 <metadata>
  <rdf:RDF xmlns:dc="http://purl.org/dc/elements/1.1/" xmlns:cc="http://creativecommons.org/ns#" xmlns:rdf="http://www.w3.org/1999/02/22-rdf-syntax-ns#">
   <cc:Work>
    <dc:type rdf:resource="http://purl.org/dc/dcmitype/StillImage"/>
    <dc:date>2022-03-03T17:04:19.745588</dc:date>
    <dc:format>image/svg+xml</dc:format>
    <dc:creator>
     <cc:Agent>
      <dc:title>Matplotlib v3.5.1, https://matplotlib.org/</dc:title>
     </cc:Agent>
    </dc:creator>
   </cc:Work>
  </rdf:RDF>
 </metadata>
 <defs>
  <style type="text/css">*{stroke-linejoin: round; stroke-linecap: butt}</style>
 </defs>
 <g id="figure_1">
  <g id="patch_1">
   <path d="M 0 316.875628 
L 391.438281 316.875628 
L 391.438281 0 
L 0 0 
z
" style="fill: #ffffff"/>
  </g>
  <g id="axes_1">
   <g id="patch_2">
    <path d="M 48.507266 139.785366 
L 271.707266 139.785366 
L 271.707266 7.2 
L 48.507266 7.2 
z
" style="fill: #ffffff"/>
   </g>
   <g id="matplotlib.axis_1">
    <g id="xtick_1">
     <g id="line2d_1">
      <path d="M 50.198175 139.785366 
L 50.198175 7.2 
" clip-path="url(#pe096939e4a)" style="fill: none; stroke: #b0b0b0; stroke-width: 0.3; stroke-linecap: square"/>
     </g>
     <g id="line2d_2">
      <defs>
       <path id="ma3910992db" d="M 0 0 
L 0 3.5 
" style="stroke: #000000; stroke-width: 0.8"/>
      </defs>
      <g>
       <use xlink:href="#ma3910992db" x="50.198175" y="139.785366" style="stroke: #000000; stroke-width: 0.8"/>
      </g>
     </g>
    </g>
    <g id="xtick_2">
     <g id="line2d_3">
      <path d="M 92.470902 139.785366 
L 92.470902 7.2 
" clip-path="url(#pe096939e4a)" style="fill: none; stroke: #b0b0b0; stroke-width: 0.3; stroke-linecap: square"/>
     </g>
     <g id="line2d_4">
      <g>
       <use xlink:href="#ma3910992db" x="92.470902" y="139.785366" style="stroke: #000000; stroke-width: 0.8"/>
      </g>
     </g>
    </g>
    <g id="xtick_3">
     <g id="line2d_5">
      <path d="M 134.743629 139.785366 
L 134.743629 7.2 
" clip-path="url(#pe096939e4a)" style="fill: none; stroke: #b0b0b0; stroke-width: 0.3; stroke-linecap: square"/>
     </g>
     <g id="line2d_6">
      <g>
       <use xlink:href="#ma3910992db" x="134.743629" y="139.785366" style="stroke: #000000; stroke-width: 0.8"/>
      </g>
     </g>
    </g>
    <g id="xtick_4">
     <g id="line2d_7">
      <path d="M 177.016357 139.785366 
L 177.016357 7.2 
" clip-path="url(#pe096939e4a)" style="fill: none; stroke: #b0b0b0; stroke-width: 0.3; stroke-linecap: square"/>
     </g>
     <g id="line2d_8">
      <g>
       <use xlink:href="#ma3910992db" x="177.016357" y="139.785366" style="stroke: #000000; stroke-width: 0.8"/>
      </g>
     </g>
    </g>
    <g id="xtick_5">
     <g id="line2d_9">
      <path d="M 219.289084 139.785366 
L 219.289084 7.2 
" clip-path="url(#pe096939e4a)" style="fill: none; stroke: #b0b0b0; stroke-width: 0.3; stroke-linecap: square"/>
     </g>
     <g id="line2d_10">
      <g>
       <use xlink:href="#ma3910992db" x="219.289084" y="139.785366" style="stroke: #000000; stroke-width: 0.8"/>
      </g>
     </g>
    </g>
    <g id="xtick_6">
     <g id="line2d_11">
      <path d="M 261.561811 139.785366 
L 261.561811 7.2 
" clip-path="url(#pe096939e4a)" style="fill: none; stroke: #b0b0b0; stroke-width: 0.3; stroke-linecap: square"/>
     </g>
     <g id="line2d_12">
      <g>
       <use xlink:href="#ma3910992db" x="261.561811" y="139.785366" style="stroke: #000000; stroke-width: 0.8"/>
      </g>
     </g>
    </g>
   </g>
   <g id="matplotlib.axis_2">
    <g id="ytick_1">
     <g id="line2d_13">
      <path d="M 48.507266 114.742968 
L 271.707266 114.742968 
" clip-path="url(#pe096939e4a)" style="fill: none; stroke: #b0b0b0; stroke-width: 0.3; stroke-linecap: square"/>
     </g>
     <g id="line2d_14">
      <defs>
       <path id="mfdb57bed31" d="M 0 0 
L -3.5 0 
" style="stroke: #000000; stroke-width: 0.8"/>
      </defs>
      <g>
       <use xlink:href="#mfdb57bed31" x="48.507266" y="114.742968" style="stroke: #000000; stroke-width: 0.8"/>
      </g>
     </g>
     <g id="text_1">
      <!-- 0.20 -->
      <g transform="translate(22.96 117.907717)scale(0.0833 -0.0833)">
       <defs>
        <path id="DejaVuSans-30" d="M 2034 4250 
Q 1547 4250 1301 3770 
Q 1056 3291 1056 2328 
Q 1056 1369 1301 889 
Q 1547 409 2034 409 
Q 2525 409 2770 889 
Q 3016 1369 3016 2328 
Q 3016 3291 2770 3770 
Q 2525 4250 2034 4250 
z
M 2034 4750 
Q 2819 4750 3233 4129 
Q 3647 3509 3647 2328 
Q 3647 1150 3233 529 
Q 2819 -91 2034 -91 
Q 1250 -91 836 529 
Q 422 1150 422 2328 
Q 422 3509 836 4129 
Q 1250 4750 2034 4750 
z
" transform="scale(0.015625)"/>
        <path id="DejaVuSans-2e" d="M 684 794 
L 1344 794 
L 1344 0 
L 684 0 
L 684 794 
z
" transform="scale(0.015625)"/>
        <path id="DejaVuSans-32" d="M 1228 531 
L 3431 531 
L 3431 0 
L 469 0 
L 469 531 
Q 828 903 1448 1529 
Q 2069 2156 2228 2338 
Q 2531 2678 2651 2914 
Q 2772 3150 2772 3378 
Q 2772 3750 2511 3984 
Q 2250 4219 1831 4219 
Q 1534 4219 1204 4116 
Q 875 4013 500 3803 
L 500 4441 
Q 881 4594 1212 4672 
Q 1544 4750 1819 4750 
Q 2544 4750 2975 4387 
Q 3406 4025 3406 3419 
Q 3406 3131 3298 2873 
Q 3191 2616 2906 2266 
Q 2828 2175 2409 1742 
Q 1991 1309 1228 531 
z
" transform="scale(0.015625)"/>
       </defs>
       <use xlink:href="#DejaVuSans-30"/>
       <use xlink:href="#DejaVuSans-2e" x="63.623047"/>
       <use xlink:href="#DejaVuSans-32" x="95.410156"/>
       <use xlink:href="#DejaVuSans-30" x="159.033203"/>
      </g>
     </g>
    </g>
    <g id="ytick_2">
     <g id="line2d_15">
      <path d="M 48.507266 89.363878 
L 271.707266 89.363878 
" clip-path="url(#pe096939e4a)" style="fill: none; stroke: #b0b0b0; stroke-width: 0.3; stroke-linecap: square"/>
     </g>
     <g id="line2d_16">
      <g>
       <use xlink:href="#mfdb57bed31" x="48.507266" y="89.363878" style="stroke: #000000; stroke-width: 0.8"/>
      </g>
     </g>
     <g id="text_2">
      <!-- 0.40 -->
      <g transform="translate(22.96 92.528627)scale(0.0833 -0.0833)">
       <defs>
        <path id="DejaVuSans-34" d="M 2419 4116 
L 825 1625 
L 2419 1625 
L 2419 4116 
z
M 2253 4666 
L 3047 4666 
L 3047 1625 
L 3713 1625 
L 3713 1100 
L 3047 1100 
L 3047 0 
L 2419 0 
L 2419 1100 
L 313 1100 
L 313 1709 
L 2253 4666 
z
" transform="scale(0.015625)"/>
       </defs>
       <use xlink:href="#DejaVuSans-30"/>
       <use xlink:href="#DejaVuSans-2e" x="63.623047"/>
       <use xlink:href="#DejaVuSans-34" x="95.410156"/>
       <use xlink:href="#DejaVuSans-30" x="159.033203"/>
      </g>
     </g>
    </g>
    <g id="ytick_3">
     <g id="line2d_17">
      <path d="M 48.507266 63.984788 
L 271.707266 63.984788 
" clip-path="url(#pe096939e4a)" style="fill: none; stroke: #b0b0b0; stroke-width: 0.3; stroke-linecap: square"/>
     </g>
     <g id="line2d_18">
      <g>
       <use xlink:href="#mfdb57bed31" x="48.507266" y="63.984788" style="stroke: #000000; stroke-width: 0.8"/>
      </g>
     </g>
     <g id="text_3">
      <!-- 0.60 -->
      <g transform="translate(22.96 67.149537)scale(0.0833 -0.0833)">
       <defs>
        <path id="DejaVuSans-36" d="M 2113 2584 
Q 1688 2584 1439 2293 
Q 1191 2003 1191 1497 
Q 1191 994 1439 701 
Q 1688 409 2113 409 
Q 2538 409 2786 701 
Q 3034 994 3034 1497 
Q 3034 2003 2786 2293 
Q 2538 2584 2113 2584 
z
M 3366 4563 
L 3366 3988 
Q 3128 4100 2886 4159 
Q 2644 4219 2406 4219 
Q 1781 4219 1451 3797 
Q 1122 3375 1075 2522 
Q 1259 2794 1537 2939 
Q 1816 3084 2150 3084 
Q 2853 3084 3261 2657 
Q 3669 2231 3669 1497 
Q 3669 778 3244 343 
Q 2819 -91 2113 -91 
Q 1303 -91 875 529 
Q 447 1150 447 2328 
Q 447 3434 972 4092 
Q 1497 4750 2381 4750 
Q 2619 4750 2861 4703 
Q 3103 4656 3366 4563 
z
" transform="scale(0.015625)"/>
       </defs>
       <use xlink:href="#DejaVuSans-30"/>
       <use xlink:href="#DejaVuSans-2e" x="63.623047"/>
       <use xlink:href="#DejaVuSans-36" x="95.410156"/>
       <use xlink:href="#DejaVuSans-30" x="159.033203"/>
      </g>
     </g>
    </g>
    <g id="ytick_4">
     <g id="line2d_19">
      <path d="M 48.507266 38.605698 
L 271.707266 38.605698 
" clip-path="url(#pe096939e4a)" style="fill: none; stroke: #b0b0b0; stroke-width: 0.3; stroke-linecap: square"/>
     </g>
     <g id="line2d_20">
      <g>
       <use xlink:href="#mfdb57bed31" x="48.507266" y="38.605698" style="stroke: #000000; stroke-width: 0.8"/>
      </g>
     </g>
     <g id="text_4">
      <!-- 0.80 -->
      <g transform="translate(22.96 41.770447)scale(0.0833 -0.0833)">
       <defs>
        <path id="DejaVuSans-38" d="M 2034 2216 
Q 1584 2216 1326 1975 
Q 1069 1734 1069 1313 
Q 1069 891 1326 650 
Q 1584 409 2034 409 
Q 2484 409 2743 651 
Q 3003 894 3003 1313 
Q 3003 1734 2745 1975 
Q 2488 2216 2034 2216 
z
M 1403 2484 
Q 997 2584 770 2862 
Q 544 3141 544 3541 
Q 544 4100 942 4425 
Q 1341 4750 2034 4750 
Q 2731 4750 3128 4425 
Q 3525 4100 3525 3541 
Q 3525 3141 3298 2862 
Q 3072 2584 2669 2484 
Q 3125 2378 3379 2068 
Q 3634 1759 3634 1313 
Q 3634 634 3220 271 
Q 2806 -91 2034 -91 
Q 1263 -91 848 271 
Q 434 634 434 1313 
Q 434 1759 690 2068 
Q 947 2378 1403 2484 
z
M 1172 3481 
Q 1172 3119 1398 2916 
Q 1625 2713 2034 2713 
Q 2441 2713 2670 2916 
Q 2900 3119 2900 3481 
Q 2900 3844 2670 4047 
Q 2441 4250 2034 4250 
Q 1625 4250 1398 4047 
Q 1172 3844 1172 3481 
z
" transform="scale(0.015625)"/>
       </defs>
       <use xlink:href="#DejaVuSans-30"/>
       <use xlink:href="#DejaVuSans-2e" x="63.623047"/>
       <use xlink:href="#DejaVuSans-38" x="95.410156"/>
       <use xlink:href="#DejaVuSans-30" x="159.033203"/>
      </g>
     </g>
    </g>
    <g id="ytick_5">
     <g id="line2d_21">
      <path d="M 48.507266 13.226608 
L 271.707266 13.226608 
" clip-path="url(#pe096939e4a)" style="fill: none; stroke: #b0b0b0; stroke-width: 0.3; stroke-linecap: square"/>
     </g>
     <g id="line2d_22">
      <g>
       <use xlink:href="#mfdb57bed31" x="48.507266" y="13.226608" style="stroke: #000000; stroke-width: 0.8"/>
      </g>
     </g>
     <g id="text_5">
      <!-- 1.00 -->
      <g transform="translate(22.96 16.391357)scale(0.0833 -0.0833)">
       <defs>
        <path id="DejaVuSans-31" d="M 794 531 
L 1825 531 
L 1825 4091 
L 703 3866 
L 703 4441 
L 1819 4666 
L 2450 4666 
L 2450 531 
L 3481 531 
L 3481 0 
L 794 0 
L 794 531 
z
" transform="scale(0.015625)"/>
       </defs>
       <use xlink:href="#DejaVuSans-31"/>
       <use xlink:href="#DejaVuSans-2e" x="63.623047"/>
       <use xlink:href="#DejaVuSans-30" x="95.410156"/>
       <use xlink:href="#DejaVuSans-30" x="159.033203"/>
      </g>
     </g>
    </g>
    <g id="text_6">
     <!-- Power $(1 - \beta)$ -->
     <g transform="translate(16.44 113.452683)rotate(-90)scale(0.12 -0.12)">
      <defs>
       <path id="DejaVuSans-50" d="M 1259 4147 
L 1259 2394 
L 2053 2394 
Q 2494 2394 2734 2622 
Q 2975 2850 2975 3272 
Q 2975 3691 2734 3919 
Q 2494 4147 2053 4147 
L 1259 4147 
z
M 628 4666 
L 2053 4666 
Q 2838 4666 3239 4311 
Q 3641 3956 3641 3272 
Q 3641 2581 3239 2228 
Q 2838 1875 2053 1875 
L 1259 1875 
L 1259 0 
L 628 0 
L 628 4666 
z
" transform="scale(0.015625)"/>
       <path id="DejaVuSans-6f" d="M 1959 3097 
Q 1497 3097 1228 2736 
Q 959 2375 959 1747 
Q 959 1119 1226 758 
Q 1494 397 1959 397 
Q 2419 397 2687 759 
Q 2956 1122 2956 1747 
Q 2956 2369 2687 2733 
Q 2419 3097 1959 3097 
z
M 1959 3584 
Q 2709 3584 3137 3096 
Q 3566 2609 3566 1747 
Q 3566 888 3137 398 
Q 2709 -91 1959 -91 
Q 1206 -91 779 398 
Q 353 888 353 1747 
Q 353 2609 779 3096 
Q 1206 3584 1959 3584 
z
" transform="scale(0.015625)"/>
       <path id="DejaVuSans-77" d="M 269 3500 
L 844 3500 
L 1563 769 
L 2278 3500 
L 2956 3500 
L 3675 769 
L 4391 3500 
L 4966 3500 
L 4050 0 
L 3372 0 
L 2619 2869 
L 1863 0 
L 1184 0 
L 269 3500 
z
" transform="scale(0.015625)"/>
       <path id="DejaVuSans-65" d="M 3597 1894 
L 3597 1613 
L 953 1613 
Q 991 1019 1311 708 
Q 1631 397 2203 397 
Q 2534 397 2845 478 
Q 3156 559 3463 722 
L 3463 178 
Q 3153 47 2828 -22 
Q 2503 -91 2169 -91 
Q 1331 -91 842 396 
Q 353 884 353 1716 
Q 353 2575 817 3079 
Q 1281 3584 2069 3584 
Q 2775 3584 3186 3129 
Q 3597 2675 3597 1894 
z
M 3022 2063 
Q 3016 2534 2758 2815 
Q 2500 3097 2075 3097 
Q 1594 3097 1305 2825 
Q 1016 2553 972 2059 
L 3022 2063 
z
" transform="scale(0.015625)"/>
       <path id="DejaVuSans-72" d="M 2631 2963 
Q 2534 3019 2420 3045 
Q 2306 3072 2169 3072 
Q 1681 3072 1420 2755 
Q 1159 2438 1159 1844 
L 1159 0 
L 581 0 
L 581 3500 
L 1159 3500 
L 1159 2956 
Q 1341 3275 1631 3429 
Q 1922 3584 2338 3584 
Q 2397 3584 2469 3576 
Q 2541 3569 2628 3553 
L 2631 2963 
z
" transform="scale(0.015625)"/>
       <path id="DejaVuSans-20" transform="scale(0.015625)"/>
       <path id="DejaVuSans-28" d="M 1984 4856 
Q 1566 4138 1362 3434 
Q 1159 2731 1159 2009 
Q 1159 1288 1364 580 
Q 1569 -128 1984 -844 
L 1484 -844 
Q 1016 -109 783 600 
Q 550 1309 550 2009 
Q 550 2706 781 3412 
Q 1013 4119 1484 4856 
L 1984 4856 
z
" transform="scale(0.015625)"/>
       <path id="DejaVuSans-2212" d="M 678 2272 
L 4684 2272 
L 4684 1741 
L 678 1741 
L 678 2272 
z
" transform="scale(0.015625)"/>
       <path id="DejaVuSans-Oblique-3b2" d="M 872 216 
L 572 -1331 
L -6 -1331 
L 928 3478 
Q 1206 4903 2538 4903 
Q 3888 4903 3659 3700 
Q 3503 2844 2894 2531 
Q 3713 2250 3553 1416 
Q 3272 -69 1759 -66 
Q 1097 -63 872 216 
z
M 1019 966 
Q 1259 422 1875 425 
Q 2775 425 2966 1406 
Q 3138 2288 1675 2219 
L 1778 2750 
Q 2909 2731 3106 3750 
Q 3241 4438 2509 4434 
Q 1691 4434 1503 3459 
L 1019 966 
z
" transform="scale(0.015625)"/>
       <path id="DejaVuSans-29" d="M 513 4856 
L 1013 4856 
Q 1481 4119 1714 3412 
Q 1947 2706 1947 2009 
Q 1947 1309 1714 600 
Q 1481 -109 1013 -844 
L 513 -844 
Q 928 -128 1133 580 
Q 1338 1288 1338 2009 
Q 1338 2731 1133 3434 
Q 928 4138 513 4856 
z
" transform="scale(0.015625)"/>
      </defs>
      <use xlink:href="#DejaVuSans-50" transform="translate(0 0.390625)"/>
      <use xlink:href="#DejaVuSans-6f" transform="translate(60.302734 0.390625)"/>
      <use xlink:href="#DejaVuSans-77" transform="translate(121.484375 0.390625)"/>
      <use xlink:href="#DejaVuSans-65" transform="translate(203.271484 0.390625)"/>
      <use xlink:href="#DejaVuSans-72" transform="translate(264.794922 0.390625)"/>
      <use xlink:href="#DejaVuSans-20" transform="translate(305.908203 0.390625)"/>
      <use xlink:href="#DejaVuSans-28" transform="translate(337.695312 0.390625)"/>
      <use xlink:href="#DejaVuSans-31" transform="translate(376.708984 0.390625)"/>
      <use xlink:href="#DejaVuSans-2212" transform="translate(459.814453 0.390625)"/>
      <use xlink:href="#DejaVuSans-Oblique-3b2" transform="translate(563.085938 0.390625)"/>
      <use xlink:href="#DejaVuSans-29" transform="translate(626.904297 0.390625)"/>
     </g>
    </g>
   </g>
   <g id="line2d_23">
    <path d="M 58.65272 98.171586 
L 67.107266 63.945517 
L 75.561811 41.000876 
L 84.016357 27.511723 
L 92.470902 20.22916 
L 100.925447 16.530177 
L 109.379993 14.736804 
L 117.834538 13.898943 
L 126.289084 13.519223 
L 134.743629 13.351479 
L 143.198175 13.27898 
L 151.65272 13.248239 
L 160.107266 13.235421 
L 168.561811 13.226608 
L 177.016357 13.226608 
L 185.470902 13.226608 
L 193.925447 13.226608 
L 202.379993 13.226608 
L 210.834538 13.226608 
L 219.289084 13.226608 
L 227.743629 13.226608 
L 236.198175 13.226608 
L 244.65272 13.226608 
L 253.107266 13.226608 
L 261.561811 13.226608 
" clip-path="url(#pe096939e4a)" style="fill: none; stroke: #1f77b4; stroke-width: 2; stroke-linecap: square"/>
   </g>
   <g id="line2d_24">
    <path d="M 58.65272 131.700657 
L 67.107266 129.341115 
L 75.561811 126.949982 
L 84.016357 124.531119 
L 92.470902 122.090534 
L 100.925447 119.634233 
L 109.379993 117.167937 
L 117.834538 114.697016 
L 126.289084 112.226476 
L 134.743629 109.760975 
L 143.198175 107.304821 
L 151.65272 104.861994 
L 160.107266 102.436157 
L 168.561811 100.030669 
L 177.016357 97.648599 
L 185.470902 95.292744 
L 193.925447 92.965638 
L 202.379993 90.669568 
L 210.834538 88.406586 
L 219.289084 86.178523 
L 227.743629 83.987002 
L 236.198175 81.833448 
L 244.65272 79.7191 
L 253.107266 77.645024 
L 261.561811 75.612123 
" clip-path="url(#pe096939e4a)" style="fill: none; stroke: #aec7e8; stroke-width: 2; stroke-linecap: square"/>
   </g>
   <g id="line2d_25">
    <path d="M 58.65272 131.829845 
L 67.107266 129.619107 
L 75.561811 127.38005 
L 84.016357 125.115556 
L 92.470902 122.830591 
L 100.925447 120.530187 
L 109.379993 118.219172 
L 117.834538 115.902102 
L 126.289084 113.583255 
L 134.743629 111.266629 
L 143.198175 108.955948 
L 151.65272 106.654675 
L 160.107266 104.366019 
L 168.561811 102.092945 
L 177.016357 99.838187 
L 185.470902 97.604255 
L 193.925447 95.393447 
L 202.379993 93.20786 
L 210.834538 91.049397 
L 219.289084 88.91978 
L 227.743629 86.820555 
L 236.198175 84.753108 
L 244.65272 82.718665 
L 253.107266 80.71831 
L 261.561811 78.752983 
" clip-path="url(#pe096939e4a)" style="fill: none; stroke: #ff7f0e; stroke-width: 2; stroke-linecap: square"/>
   </g>
   <g id="line2d_26">
    <path d="M 58.65272 132.065406 
L 67.107266 130.125426 
L 75.561811 128.162866 
L 84.016357 126.179157 
L 92.470902 124.177657 
L 100.925447 122.161875 
L 109.379993 120.135223 
L 117.834538 118.100958 
L 126.289084 116.062173 
L 134.743629 114.021784 
L 143.198175 111.982543 
L 151.65272 109.947034 
L 160.107266 107.917683 
L 168.561811 105.89676 
L 177.016357 103.886385 
L 185.470902 101.888537 
L 193.925447 99.905053 
L 202.379993 97.937641 
L 210.834538 95.987876 
L 219.289084 94.057218 
L 227.743629 92.147005 
L 236.198175 90.258465 
L 244.65272 88.392718 
L 253.107266 86.550785 
L 261.561811 84.733586 
" clip-path="url(#pe096939e4a)" style="fill: none; stroke: #ffbb78; stroke-width: 2; stroke-linecap: square"/>
   </g>
   <g id="line2d_27">
    <path d="M 58.65272 132.291627 
L 67.107266 130.610928 
L 75.561811 128.9128 
L 84.016357 127.197656 
L 92.470902 125.467645 
L 100.925447 123.725106 
L 109.379993 121.972352 
L 117.834538 120.211615 
L 126.289084 118.445034 
L 134.743629 116.67465 
L 143.198175 114.902405 
L 151.65272 113.130144 
L 160.107266 111.359615 
L 168.561811 109.592474 
L 177.016357 107.830288 
L 185.470902 106.074532 
L 193.925447 104.326601 
L 202.379993 102.587805 
L 210.834538 100.859375 
L 219.289084 99.142465 
L 227.743629 97.438155 
L 236.198175 95.747454 
L 244.65272 94.071301 
L 253.107266 92.410572 
L 261.561811 90.766074 
" clip-path="url(#pe096939e4a)" style="fill: none; stroke: #2ca02c; stroke-width: 2; stroke-linecap: square"/>
   </g>
   <g id="line2d_28">
    <path d="M 58.65272 133.409957 
L 67.107266 132.998442 
L 75.561811 132.586171 
L 84.016357 132.172616 
L 92.470902 131.757706 
L 100.925447 131.341449 
L 109.379993 130.923871 
L 117.834538 130.505008 
L 126.289084 130.084899 
L 134.743629 129.663584 
L 143.198175 129.241102 
L 151.65272 128.817494 
L 160.107266 128.3928 
L 168.561811 127.967061 
L 177.016357 127.540316 
L 185.470902 127.112604 
L 193.925447 126.683964 
L 202.379993 126.254436 
L 210.834538 125.824057 
L 219.289084 125.392866 
L 227.743629 124.960898 
L 236.198175 124.528192 
L 244.65272 124.094785 
L 253.107266 123.660711 
L 261.561811 123.226007 
" clip-path="url(#pe096939e4a)" style="fill: none; stroke: #98df8a; stroke-width: 2; stroke-linecap: square"/>
   </g>
   <g id="line2d_29">
    <path d="M 58.65272 133.48478 
L 67.107266 133.157327 
L 75.561811 132.829507 
L 84.016357 132.500885 
L 92.470902 132.171394 
L 100.925447 131.841025 
L 109.379993 131.509789 
L 117.834538 131.177701 
L 126.289084 130.84478 
L 134.743629 130.511045 
L 143.198175 130.176517 
L 151.65272 129.841216 
L 160.107266 129.505162 
L 168.561811 129.168378 
L 177.016357 128.830883 
L 185.470902 128.492697 
L 193.925447 128.153841 
L 202.379993 127.814336 
L 210.834538 127.474201 
L 219.289084 127.133456 
L 227.743629 126.792121 
L 236.198175 126.450216 
L 244.65272 126.107759 
L 253.107266 125.764771 
L 261.561811 125.421271 
" clip-path="url(#pe096939e4a)" style="fill: none; stroke: #d62728; stroke-width: 2; stroke-linecap: square"/>
   </g>
   <g id="line2d_30">
    <path d="M 58.65272 133.514806 
L 67.107266 133.221053 
L 75.561811 132.927056 
L 84.016357 132.632423 
L 92.470902 132.337087 
L 100.925447 132.041039 
L 109.379993 131.744282 
L 117.834538 131.446827 
L 126.289084 131.148687 
L 134.743629 130.849877 
L 143.198175 130.55041 
L 151.65272 130.250301 
L 160.107266 129.949566 
L 168.561811 129.64822 
L 177.016357 129.346277 
L 185.470902 129.043752 
L 193.925447 128.740661 
L 202.379993 128.437018 
L 210.834538 128.132838 
L 219.289084 127.828135 
L 227.743629 127.522925 
L 236.198175 127.217221 
L 244.65272 126.911038 
L 253.107266 126.60439 
L 261.561811 126.297291 
" clip-path="url(#pe096939e4a)" style="fill: none; stroke: #ff9896; stroke-width: 2; stroke-linecap: square"/>
   </g>
   <g id="line2d_31">
    <path d="M 58.65272 133.641414 
L 67.107266 133.489544 
L 75.561811 133.337742 
L 84.016357 133.185796 
L 92.470902 133.033667 
L 100.925447 132.881343 
L 109.379993 132.72882 
L 117.834538 132.576098 
L 126.289084 132.423178 
L 134.743629 132.270059 
L 143.198175 132.116745 
L 151.65272 131.963237 
L 160.107266 131.809537 
L 168.561811 131.655647 
L 177.016357 131.501569 
L 185.470902 131.347306 
L 193.925447 131.192859 
L 202.379993 131.03823 
L 210.834538 130.883422 
L 219.289084 130.728436 
L 227.743629 130.573276 
L 236.198175 130.417943 
L 244.65272 130.262439 
L 253.107266 130.106766 
L 261.561811 129.950927 
" clip-path="url(#pe096939e4a)" style="fill: none; stroke: #9467bd; stroke-width: 2; stroke-linecap: square"/>
   </g>
   <g id="line2d_32">
    <path d="M 58.65272 133.758758 
L 67.107266 133.738074 
L 75.561811 133.717425 
L 84.016357 133.696781 
L 92.470902 133.676137 
L 100.925447 133.65549 
L 109.379993 133.634841 
L 117.834538 133.614188 
L 126.289084 133.593532 
L 134.743629 133.572872 
L 143.198175 133.552208 
L 151.65272 133.53154 
L 160.107266 133.510868 
L 168.561811 133.490193 
L 177.016357 133.469513 
L 185.470902 133.44883 
L 193.925447 133.428142 
L 202.379993 133.407451 
L 210.834538 133.386755 
L 219.289084 133.366056 
L 227.743629 133.345353 
L 236.198175 133.324646 
L 244.65272 133.303934 
L 253.107266 133.283219 
L 261.561811 133.2625 
" clip-path="url(#pe096939e4a)" style="fill: none; stroke: #c5b0d5; stroke-width: 2; stroke-linecap: square"/>
   </g>
   <g id="line2d_33"/>
   <g id="line2d_34"/>
   <g id="line2d_35"/>
   <g id="line2d_36"/>
   <g id="line2d_37"/>
   <g id="line2d_38"/>
   <g id="line2d_39"/>
   <g id="line2d_40"/>
   <g id="line2d_41"/>
   <g id="line2d_42"/>
   <g id="patch_3">
    <path d="M 48.507266 139.785366 
L 48.507266 7.2 
" style="fill: none; stroke: #000000; stroke-width: 0.8; stroke-linejoin: miter; stroke-linecap: square"/>
   </g>
   <g id="patch_4">
    <path d="M 48.507266 139.785366 
L 271.707266 139.785366 
" style="fill: none; stroke: #000000; stroke-width: 0.8; stroke-linejoin: miter; stroke-linecap: square"/>
   </g>
   <g id="legend_1">
    <g id="text_7">
     <!-- Binary Category -->
     <g transform="translate(286.352486 19.656438)scale(0.1 -0.1)">
      <defs>
       <path id="DejaVuSans-42" d="M 1259 2228 
L 1259 519 
L 2272 519 
Q 2781 519 3026 730 
Q 3272 941 3272 1375 
Q 3272 1813 3026 2020 
Q 2781 2228 2272 2228 
L 1259 2228 
z
M 1259 4147 
L 1259 2741 
L 2194 2741 
Q 2656 2741 2882 2914 
Q 3109 3088 3109 3444 
Q 3109 3797 2882 3972 
Q 2656 4147 2194 4147 
L 1259 4147 
z
M 628 4666 
L 2241 4666 
Q 2963 4666 3353 4366 
Q 3744 4066 3744 3513 
Q 3744 3084 3544 2831 
Q 3344 2578 2956 2516 
Q 3422 2416 3680 2098 
Q 3938 1781 3938 1306 
Q 3938 681 3513 340 
Q 3088 0 2303 0 
L 628 0 
L 628 4666 
z
" transform="scale(0.015625)"/>
       <path id="DejaVuSans-69" d="M 603 3500 
L 1178 3500 
L 1178 0 
L 603 0 
L 603 3500 
z
M 603 4863 
L 1178 4863 
L 1178 4134 
L 603 4134 
L 603 4863 
z
" transform="scale(0.015625)"/>
       <path id="DejaVuSans-6e" d="M 3513 2113 
L 3513 0 
L 2938 0 
L 2938 2094 
Q 2938 2591 2744 2837 
Q 2550 3084 2163 3084 
Q 1697 3084 1428 2787 
Q 1159 2491 1159 1978 
L 1159 0 
L 581 0 
L 581 3500 
L 1159 3500 
L 1159 2956 
Q 1366 3272 1645 3428 
Q 1925 3584 2291 3584 
Q 2894 3584 3203 3211 
Q 3513 2838 3513 2113 
z
" transform="scale(0.015625)"/>
       <path id="DejaVuSans-61" d="M 2194 1759 
Q 1497 1759 1228 1600 
Q 959 1441 959 1056 
Q 959 750 1161 570 
Q 1363 391 1709 391 
Q 2188 391 2477 730 
Q 2766 1069 2766 1631 
L 2766 1759 
L 2194 1759 
z
M 3341 1997 
L 3341 0 
L 2766 0 
L 2766 531 
Q 2569 213 2275 61 
Q 1981 -91 1556 -91 
Q 1019 -91 701 211 
Q 384 513 384 1019 
Q 384 1609 779 1909 
Q 1175 2209 1959 2209 
L 2766 2209 
L 2766 2266 
Q 2766 2663 2505 2880 
Q 2244 3097 1772 3097 
Q 1472 3097 1187 3025 
Q 903 2953 641 2809 
L 641 3341 
Q 956 3463 1253 3523 
Q 1550 3584 1831 3584 
Q 2591 3584 2966 3190 
Q 3341 2797 3341 1997 
z
" transform="scale(0.015625)"/>
       <path id="DejaVuSans-79" d="M 2059 -325 
Q 1816 -950 1584 -1140 
Q 1353 -1331 966 -1331 
L 506 -1331 
L 506 -850 
L 844 -850 
Q 1081 -850 1212 -737 
Q 1344 -625 1503 -206 
L 1606 56 
L 191 3500 
L 800 3500 
L 1894 763 
L 2988 3500 
L 3597 3500 
L 2059 -325 
z
" transform="scale(0.015625)"/>
       <path id="DejaVuSans-43" d="M 4122 4306 
L 4122 3641 
Q 3803 3938 3442 4084 
Q 3081 4231 2675 4231 
Q 1875 4231 1450 3742 
Q 1025 3253 1025 2328 
Q 1025 1406 1450 917 
Q 1875 428 2675 428 
Q 3081 428 3442 575 
Q 3803 722 4122 1019 
L 4122 359 
Q 3791 134 3420 21 
Q 3050 -91 2638 -91 
Q 1578 -91 968 557 
Q 359 1206 359 2328 
Q 359 3453 968 4101 
Q 1578 4750 2638 4750 
Q 3056 4750 3426 4639 
Q 3797 4528 4122 4306 
z
" transform="scale(0.015625)"/>
       <path id="DejaVuSans-74" d="M 1172 4494 
L 1172 3500 
L 2356 3500 
L 2356 3053 
L 1172 3053 
L 1172 1153 
Q 1172 725 1289 603 
Q 1406 481 1766 481 
L 2356 481 
L 2356 0 
L 1766 0 
Q 1100 0 847 248 
Q 594 497 594 1153 
L 594 3053 
L 172 3053 
L 172 3500 
L 594 3500 
L 594 4494 
L 1172 4494 
z
" transform="scale(0.015625)"/>
       <path id="DejaVuSans-67" d="M 2906 1791 
Q 2906 2416 2648 2759 
Q 2391 3103 1925 3103 
Q 1463 3103 1205 2759 
Q 947 2416 947 1791 
Q 947 1169 1205 825 
Q 1463 481 1925 481 
Q 2391 481 2648 825 
Q 2906 1169 2906 1791 
z
M 3481 434 
Q 3481 -459 3084 -895 
Q 2688 -1331 1869 -1331 
Q 1566 -1331 1297 -1286 
Q 1028 -1241 775 -1147 
L 775 -588 
Q 1028 -725 1275 -790 
Q 1522 -856 1778 -856 
Q 2344 -856 2625 -561 
Q 2906 -266 2906 331 
L 2906 616 
Q 2728 306 2450 153 
Q 2172 0 1784 0 
Q 1141 0 747 490 
Q 353 981 353 1791 
Q 353 2603 747 3093 
Q 1141 3584 1784 3584 
Q 2172 3584 2450 3431 
Q 2728 3278 2906 2969 
L 2906 3500 
L 3481 3500 
L 3481 434 
z
" transform="scale(0.015625)"/>
      </defs>
      <use xlink:href="#DejaVuSans-42"/>
      <use xlink:href="#DejaVuSans-69" x="68.603516"/>
      <use xlink:href="#DejaVuSans-6e" x="96.386719"/>
      <use xlink:href="#DejaVuSans-61" x="159.765625"/>
      <use xlink:href="#DejaVuSans-72" x="221.044922"/>
      <use xlink:href="#DejaVuSans-79" x="262.158203"/>
      <use xlink:href="#DejaVuSans-20" x="321.337891"/>
      <use xlink:href="#DejaVuSans-43" x="353.125"/>
      <use xlink:href="#DejaVuSans-61" x="422.949219"/>
      <use xlink:href="#DejaVuSans-74" x="484.228516"/>
      <use xlink:href="#DejaVuSans-65" x="523.4375"/>
      <use xlink:href="#DejaVuSans-67" x="584.960938"/>
      <use xlink:href="#DejaVuSans-6f" x="648.4375"/>
      <use xlink:href="#DejaVuSans-72" x="709.619141"/>
      <use xlink:href="#DejaVuSans-79" x="750.732422"/>
     </g>
    </g>
    <g id="line2d_43">
     <path d="M 276.565266 28.050441 
L 283.505266 28.050441 
L 290.445266 28.050441 
" style="fill: none; stroke: #1f77b4; stroke-width: 2; stroke-linecap: square"/>
    </g>
    <g id="text_8">
     <!-- IBD -->
     <g transform="translate(295.997266 30.479441)scale(0.0694 -0.0694)">
      <defs>
       <path id="DejaVuSans-49" d="M 628 4666 
L 1259 4666 
L 1259 0 
L 628 0 
L 628 4666 
z
" transform="scale(0.015625)"/>
       <path id="DejaVuSans-44" d="M 1259 4147 
L 1259 519 
L 2022 519 
Q 2988 519 3436 956 
Q 3884 1394 3884 2338 
Q 3884 3275 3436 3711 
Q 2988 4147 2022 4147 
L 1259 4147 
z
M 628 4666 
L 1925 4666 
Q 3281 4666 3915 4102 
Q 4550 3538 4550 2338 
Q 4550 1131 3912 565 
Q 3275 0 1925 0 
L 628 0 
L 628 4666 
z
" transform="scale(0.015625)"/>
      </defs>
      <use xlink:href="#DejaVuSans-49"/>
      <use xlink:href="#DejaVuSans-42" x="29.492188"/>
      <use xlink:href="#DejaVuSans-44" x="98.095703"/>
     </g>
    </g>
    <g id="line2d_44">
     <path d="M 276.565266 38.237059 
L 283.505266 38.237059 
L 290.445266 38.237059 
" style="fill: none; stroke: #aec7e8; stroke-width: 2; stroke-linecap: square"/>
    </g>
    <g id="text_9">
     <!-- ASD -->
     <g transform="translate(295.997266 40.666059)scale(0.0694 -0.0694)">
      <defs>
       <path id="DejaVuSans-41" d="M 2188 4044 
L 1331 1722 
L 3047 1722 
L 2188 4044 
z
M 1831 4666 
L 2547 4666 
L 4325 0 
L 3669 0 
L 3244 1197 
L 1141 1197 
L 716 0 
L 50 0 
L 1831 4666 
z
" transform="scale(0.015625)"/>
       <path id="DejaVuSans-53" d="M 3425 4513 
L 3425 3897 
Q 3066 4069 2747 4153 
Q 2428 4238 2131 4238 
Q 1616 4238 1336 4038 
Q 1056 3838 1056 3469 
Q 1056 3159 1242 3001 
Q 1428 2844 1947 2747 
L 2328 2669 
Q 3034 2534 3370 2195 
Q 3706 1856 3706 1288 
Q 3706 609 3251 259 
Q 2797 -91 1919 -91 
Q 1588 -91 1214 -16 
Q 841 59 441 206 
L 441 856 
Q 825 641 1194 531 
Q 1563 422 1919 422 
Q 2459 422 2753 634 
Q 3047 847 3047 1241 
Q 3047 1584 2836 1778 
Q 2625 1972 2144 2069 
L 1759 2144 
Q 1053 2284 737 2584 
Q 422 2884 422 3419 
Q 422 4038 858 4394 
Q 1294 4750 2059 4750 
Q 2388 4750 2728 4690 
Q 3069 4631 3425 4513 
z
" transform="scale(0.015625)"/>
      </defs>
      <use xlink:href="#DejaVuSans-41"/>
      <use xlink:href="#DejaVuSans-53" x="68.408203"/>
      <use xlink:href="#DejaVuSans-44" x="131.884766"/>
     </g>
    </g>
    <g id="line2d_45">
     <path d="M 276.565266 48.423678 
L 283.505266 48.423678 
L 290.445266 48.423678 
" style="fill: none; stroke: #ff7f0e; stroke-width: 2; stroke-linecap: square"/>
    </g>
    <g id="text_10">
     <!-- Kidney Disease -->
     <g transform="translate(295.997266 50.852678)scale(0.0694 -0.0694)">
      <defs>
       <path id="DejaVuSans-4b" d="M 628 4666 
L 1259 4666 
L 1259 2694 
L 3353 4666 
L 4166 4666 
L 1850 2491 
L 4331 0 
L 3500 0 
L 1259 2247 
L 1259 0 
L 628 0 
L 628 4666 
z
" transform="scale(0.015625)"/>
       <path id="DejaVuSans-64" d="M 2906 2969 
L 2906 4863 
L 3481 4863 
L 3481 0 
L 2906 0 
L 2906 525 
Q 2725 213 2448 61 
Q 2172 -91 1784 -91 
Q 1150 -91 751 415 
Q 353 922 353 1747 
Q 353 2572 751 3078 
Q 1150 3584 1784 3584 
Q 2172 3584 2448 3432 
Q 2725 3281 2906 2969 
z
M 947 1747 
Q 947 1113 1208 752 
Q 1469 391 1925 391 
Q 2381 391 2643 752 
Q 2906 1113 2906 1747 
Q 2906 2381 2643 2742 
Q 2381 3103 1925 3103 
Q 1469 3103 1208 2742 
Q 947 2381 947 1747 
z
" transform="scale(0.015625)"/>
       <path id="DejaVuSans-73" d="M 2834 3397 
L 2834 2853 
Q 2591 2978 2328 3040 
Q 2066 3103 1784 3103 
Q 1356 3103 1142 2972 
Q 928 2841 928 2578 
Q 928 2378 1081 2264 
Q 1234 2150 1697 2047 
L 1894 2003 
Q 2506 1872 2764 1633 
Q 3022 1394 3022 966 
Q 3022 478 2636 193 
Q 2250 -91 1575 -91 
Q 1294 -91 989 -36 
Q 684 19 347 128 
L 347 722 
Q 666 556 975 473 
Q 1284 391 1588 391 
Q 1994 391 2212 530 
Q 2431 669 2431 922 
Q 2431 1156 2273 1281 
Q 2116 1406 1581 1522 
L 1381 1569 
Q 847 1681 609 1914 
Q 372 2147 372 2553 
Q 372 3047 722 3315 
Q 1072 3584 1716 3584 
Q 2034 3584 2315 3537 
Q 2597 3491 2834 3397 
z
" transform="scale(0.015625)"/>
      </defs>
      <use xlink:href="#DejaVuSans-4b"/>
      <use xlink:href="#DejaVuSans-69" x="65.576172"/>
      <use xlink:href="#DejaVuSans-64" x="93.359375"/>
      <use xlink:href="#DejaVuSans-6e" x="156.835938"/>
      <use xlink:href="#DejaVuSans-65" x="220.214844"/>
      <use xlink:href="#DejaVuSans-79" x="281.738281"/>
      <use xlink:href="#DejaVuSans-20" x="340.917969"/>
      <use xlink:href="#DejaVuSans-44" x="372.705078"/>
      <use xlink:href="#DejaVuSans-69" x="449.707031"/>
      <use xlink:href="#DejaVuSans-73" x="477.490234"/>
      <use xlink:href="#DejaVuSans-65" x="529.589844"/>
      <use xlink:href="#DejaVuSans-61" x="591.113281"/>
      <use xlink:href="#DejaVuSans-73" x="652.392578"/>
      <use xlink:href="#DejaVuSans-65" x="704.492188"/>
     </g>
    </g>
    <g id="line2d_46">
     <path d="M 276.565266 58.610297 
L 283.505266 58.610297 
L 290.445266 58.610297 
" style="fill: none; stroke: #ffbb78; stroke-width: 2; stroke-linecap: square"/>
    </g>
    <g id="text_11">
     <!-- IBS -->
     <g transform="translate(295.997266 61.039297)scale(0.0694 -0.0694)">
      <use xlink:href="#DejaVuSans-49"/>
      <use xlink:href="#DejaVuSans-42" x="29.492188"/>
      <use xlink:href="#DejaVuSans-53" x="96.345703"/>
     </g>
    </g>
    <g id="line2d_47">
     <path d="M 276.565266 68.796916 
L 283.505266 68.796916 
L 290.445266 68.796916 
" style="fill: none; stroke: #2ca02c; stroke-width: 2; stroke-linecap: square"/>
    </g>
    <g id="text_12">
     <!-- Sex -->
     <g transform="translate(295.997266 71.225916)scale(0.0694 -0.0694)">
      <defs>
       <path id="DejaVuSans-78" d="M 3513 3500 
L 2247 1797 
L 3578 0 
L 2900 0 
L 1881 1375 
L 863 0 
L 184 0 
L 1544 1831 
L 300 3500 
L 978 3500 
L 1906 2253 
L 2834 3500 
L 3513 3500 
z
" transform="scale(0.015625)"/>
      </defs>
      <use xlink:href="#DejaVuSans-53"/>
      <use xlink:href="#DejaVuSans-65" x="63.476562"/>
      <use xlink:href="#DejaVuSans-78" x="123.25"/>
     </g>
    </g>
    <g id="line2d_48">
     <path d="M 276.565266 78.983534 
L 283.505266 78.983534 
L 290.445266 78.983534 
" style="fill: none; stroke: #98df8a; stroke-width: 2; stroke-linecap: square"/>
    </g>
    <g id="text_13">
     <!-- Lung Disease -->
     <g transform="translate(295.997266 81.412534)scale(0.0694 -0.0694)">
      <defs>
       <path id="DejaVuSans-4c" d="M 628 4666 
L 1259 4666 
L 1259 531 
L 3531 531 
L 3531 0 
L 628 0 
L 628 4666 
z
" transform="scale(0.015625)"/>
       <path id="DejaVuSans-75" d="M 544 1381 
L 544 3500 
L 1119 3500 
L 1119 1403 
Q 1119 906 1312 657 
Q 1506 409 1894 409 
Q 2359 409 2629 706 
Q 2900 1003 2900 1516 
L 2900 3500 
L 3475 3500 
L 3475 0 
L 2900 0 
L 2900 538 
Q 2691 219 2414 64 
Q 2138 -91 1772 -91 
Q 1169 -91 856 284 
Q 544 659 544 1381 
z
M 1991 3584 
L 1991 3584 
z
" transform="scale(0.015625)"/>
      </defs>
      <use xlink:href="#DejaVuSans-4c"/>
      <use xlink:href="#DejaVuSans-75" x="53.962891"/>
      <use xlink:href="#DejaVuSans-6e" x="117.341797"/>
      <use xlink:href="#DejaVuSans-67" x="180.720703"/>
      <use xlink:href="#DejaVuSans-20" x="244.197266"/>
      <use xlink:href="#DejaVuSans-44" x="275.984375"/>
      <use xlink:href="#DejaVuSans-69" x="352.986328"/>
      <use xlink:href="#DejaVuSans-73" x="380.769531"/>
      <use xlink:href="#DejaVuSans-65" x="432.869141"/>
      <use xlink:href="#DejaVuSans-61" x="494.392578"/>
      <use xlink:href="#DejaVuSans-73" x="555.671875"/>
      <use xlink:href="#DejaVuSans-65" x="607.771484"/>
     </g>
    </g>
    <g id="line2d_49">
     <path d="M 276.565266 89.170153 
L 283.505266 89.170153 
L 290.445266 89.170153 
" style="fill: none; stroke: #d62728; stroke-width: 2; stroke-linecap: square"/>
    </g>
    <g id="text_14">
     <!-- Mental Illness -->
     <g transform="translate(295.997266 91.599153)scale(0.0694 -0.0694)">
      <defs>
       <path id="DejaVuSans-4d" d="M 628 4666 
L 1569 4666 
L 2759 1491 
L 3956 4666 
L 4897 4666 
L 4897 0 
L 4281 0 
L 4281 4097 
L 3078 897 
L 2444 897 
L 1241 4097 
L 1241 0 
L 628 0 
L 628 4666 
z
" transform="scale(0.015625)"/>
       <path id="DejaVuSans-6c" d="M 603 4863 
L 1178 4863 
L 1178 0 
L 603 0 
L 603 4863 
z
" transform="scale(0.015625)"/>
      </defs>
      <use xlink:href="#DejaVuSans-4d"/>
      <use xlink:href="#DejaVuSans-65" x="86.279297"/>
      <use xlink:href="#DejaVuSans-6e" x="147.802734"/>
      <use xlink:href="#DejaVuSans-74" x="211.181641"/>
      <use xlink:href="#DejaVuSans-61" x="250.390625"/>
      <use xlink:href="#DejaVuSans-6c" x="311.669922"/>
      <use xlink:href="#DejaVuSans-20" x="339.453125"/>
      <use xlink:href="#DejaVuSans-49" x="371.240234"/>
      <use xlink:href="#DejaVuSans-6c" x="400.732422"/>
      <use xlink:href="#DejaVuSans-6c" x="428.515625"/>
      <use xlink:href="#DejaVuSans-6e" x="456.298828"/>
      <use xlink:href="#DejaVuSans-65" x="519.677734"/>
      <use xlink:href="#DejaVuSans-73" x="581.201172"/>
      <use xlink:href="#DejaVuSans-73" x="633.300781"/>
     </g>
    </g>
    <g id="line2d_50">
     <path d="M 276.565266 99.356772 
L 283.505266 99.356772 
L 290.445266 99.356772 
" style="fill: none; stroke: #ff9896; stroke-width: 2; stroke-linecap: square"/>
    </g>
    <g id="text_15">
     <!-- Skin Condition -->
     <g transform="translate(295.997266 101.785772)scale(0.0694 -0.0694)">
      <defs>
       <path id="DejaVuSans-6b" d="M 581 4863 
L 1159 4863 
L 1159 1991 
L 2875 3500 
L 3609 3500 
L 1753 1863 
L 3688 0 
L 2938 0 
L 1159 1709 
L 1159 0 
L 581 0 
L 581 4863 
z
" transform="scale(0.015625)"/>
      </defs>
      <use xlink:href="#DejaVuSans-53"/>
      <use xlink:href="#DejaVuSans-6b" x="63.476562"/>
      <use xlink:href="#DejaVuSans-69" x="121.386719"/>
      <use xlink:href="#DejaVuSans-6e" x="149.169922"/>
      <use xlink:href="#DejaVuSans-20" x="212.548828"/>
      <use xlink:href="#DejaVuSans-43" x="244.335938"/>
      <use xlink:href="#DejaVuSans-6f" x="314.160156"/>
      <use xlink:href="#DejaVuSans-6e" x="375.341797"/>
      <use xlink:href="#DejaVuSans-64" x="438.720703"/>
      <use xlink:href="#DejaVuSans-69" x="502.197266"/>
      <use xlink:href="#DejaVuSans-74" x="529.980469"/>
      <use xlink:href="#DejaVuSans-69" x="569.189453"/>
      <use xlink:href="#DejaVuSans-6f" x="596.972656"/>
      <use xlink:href="#DejaVuSans-6e" x="658.154297"/>
     </g>
    </g>
    <g id="line2d_51">
     <path d="M 276.565266 109.543391 
L 283.505266 109.543391 
L 290.445266 109.543391 
" style="fill: none; stroke: #9467bd; stroke-width: 2; stroke-linecap: square"/>
    </g>
    <g id="text_16">
     <!-- Liver Disease -->
     <g transform="translate(295.997266 111.972391)scale(0.0694 -0.0694)">
      <defs>
       <path id="DejaVuSans-76" d="M 191 3500 
L 800 3500 
L 1894 563 
L 2988 3500 
L 3597 3500 
L 2284 0 
L 1503 0 
L 191 3500 
z
" transform="scale(0.015625)"/>
      </defs>
      <use xlink:href="#DejaVuSans-4c"/>
      <use xlink:href="#DejaVuSans-69" x="55.712891"/>
      <use xlink:href="#DejaVuSans-76" x="83.496094"/>
      <use xlink:href="#DejaVuSans-65" x="142.675781"/>
      <use xlink:href="#DejaVuSans-72" x="204.199219"/>
      <use xlink:href="#DejaVuSans-20" x="245.3125"/>
      <use xlink:href="#DejaVuSans-44" x="277.099609"/>
      <use xlink:href="#DejaVuSans-69" x="354.101562"/>
      <use xlink:href="#DejaVuSans-73" x="381.884766"/>
      <use xlink:href="#DejaVuSans-65" x="433.984375"/>
      <use xlink:href="#DejaVuSans-61" x="495.507812"/>
      <use xlink:href="#DejaVuSans-73" x="556.787109"/>
      <use xlink:href="#DejaVuSans-65" x="608.886719"/>
     </g>
    </g>
    <g id="line2d_52">
     <path d="M 276.565266 119.730009 
L 283.505266 119.730009 
L 290.445266 119.730009 
" style="fill: none; stroke: #c5b0d5; stroke-width: 2; stroke-linecap: square"/>
    </g>
    <g id="text_17">
     <!-- Cardiovascular Disease -->
     <g transform="translate(295.997266 122.159009)scale(0.0694 -0.0694)">
      <defs>
       <path id="DejaVuSans-63" d="M 3122 3366 
L 3122 2828 
Q 2878 2963 2633 3030 
Q 2388 3097 2138 3097 
Q 1578 3097 1268 2742 
Q 959 2388 959 1747 
Q 959 1106 1268 751 
Q 1578 397 2138 397 
Q 2388 397 2633 464 
Q 2878 531 3122 666 
L 3122 134 
Q 2881 22 2623 -34 
Q 2366 -91 2075 -91 
Q 1284 -91 818 406 
Q 353 903 353 1747 
Q 353 2603 823 3093 
Q 1294 3584 2113 3584 
Q 2378 3584 2631 3529 
Q 2884 3475 3122 3366 
z
" transform="scale(0.015625)"/>
      </defs>
      <use xlink:href="#DejaVuSans-43"/>
      <use xlink:href="#DejaVuSans-61" x="69.824219"/>
      <use xlink:href="#DejaVuSans-72" x="131.103516"/>
      <use xlink:href="#DejaVuSans-64" x="170.466797"/>
      <use xlink:href="#DejaVuSans-69" x="233.943359"/>
      <use xlink:href="#DejaVuSans-6f" x="261.726562"/>
      <use xlink:href="#DejaVuSans-76" x="322.908203"/>
      <use xlink:href="#DejaVuSans-61" x="382.087891"/>
      <use xlink:href="#DejaVuSans-73" x="443.367188"/>
      <use xlink:href="#DejaVuSans-63" x="495.466797"/>
      <use xlink:href="#DejaVuSans-75" x="550.447266"/>
      <use xlink:href="#DejaVuSans-6c" x="613.826172"/>
      <use xlink:href="#DejaVuSans-61" x="641.609375"/>
      <use xlink:href="#DejaVuSans-72" x="702.888672"/>
      <use xlink:href="#DejaVuSans-20" x="744.001953"/>
      <use xlink:href="#DejaVuSans-44" x="775.789062"/>
      <use xlink:href="#DejaVuSans-69" x="852.791016"/>
      <use xlink:href="#DejaVuSans-73" x="880.574219"/>
      <use xlink:href="#DejaVuSans-65" x="932.673828"/>
      <use xlink:href="#DejaVuSans-61" x="994.197266"/>
      <use xlink:href="#DejaVuSans-73" x="1055.476562"/>
      <use xlink:href="#DejaVuSans-65" x="1107.576172"/>
     </g>
    </g>
   </g>
  </g>
  <g id="axes_2">
   <g id="patch_5">
    <path d="M 48.507266 279 
L 271.707266 279 
L 271.707266 146.414634 
L 48.507266 146.414634 
z
" style="fill: #ffffff"/>
   </g>
   <g id="matplotlib.axis_3">
    <g id="xtick_7">
     <g id="line2d_53">
      <path d="M 50.198175 279 
L 50.198175 146.414634 
" clip-path="url(#pe031ec8663)" style="fill: none; stroke: #b0b0b0; stroke-width: 0.3; stroke-linecap: square"/>
     </g>
     <g id="line2d_54">
      <g>
       <use xlink:href="#ma3910992db" x="50.198175" y="279" style="stroke: #000000; stroke-width: 0.8"/>
      </g>
     </g>
     <g id="text_18">
      <!-- 0 -->
      <g transform="translate(47.548193 292.329498)scale(0.0833 -0.0833)">
       <use xlink:href="#DejaVuSans-30"/>
      </g>
     </g>
    </g>
    <g id="xtick_8">
     <g id="line2d_55">
      <path d="M 92.470902 279 
L 92.470902 146.414634 
" clip-path="url(#pe031ec8663)" style="fill: none; stroke: #b0b0b0; stroke-width: 0.3; stroke-linecap: square"/>
     </g>
     <g id="line2d_56">
      <g>
       <use xlink:href="#ma3910992db" x="92.470902" y="279" style="stroke: #000000; stroke-width: 0.8"/>
      </g>
     </g>
     <g id="text_19">
      <!-- 100 -->
      <g transform="translate(84.520958 292.329498)scale(0.0833 -0.0833)">
       <use xlink:href="#DejaVuSans-31"/>
       <use xlink:href="#DejaVuSans-30" x="63.623047"/>
       <use xlink:href="#DejaVuSans-30" x="127.246094"/>
      </g>
     </g>
    </g>
    <g id="xtick_9">
     <g id="line2d_57">
      <path d="M 134.743629 279 
L 134.743629 146.414634 
" clip-path="url(#pe031ec8663)" style="fill: none; stroke: #b0b0b0; stroke-width: 0.3; stroke-linecap: square"/>
     </g>
     <g id="line2d_58">
      <g>
       <use xlink:href="#ma3910992db" x="134.743629" y="279" style="stroke: #000000; stroke-width: 0.8"/>
      </g>
     </g>
     <g id="text_20">
      <!-- 200 -->
      <g transform="translate(126.793686 292.329498)scale(0.0833 -0.0833)">
       <use xlink:href="#DejaVuSans-32"/>
       <use xlink:href="#DejaVuSans-30" x="63.623047"/>
       <use xlink:href="#DejaVuSans-30" x="127.246094"/>
      </g>
     </g>
    </g>
    <g id="xtick_10">
     <g id="line2d_59">
      <path d="M 177.016357 279 
L 177.016357 146.414634 
" clip-path="url(#pe031ec8663)" style="fill: none; stroke: #b0b0b0; stroke-width: 0.3; stroke-linecap: square"/>
     </g>
     <g id="line2d_60">
      <g>
       <use xlink:href="#ma3910992db" x="177.016357" y="279" style="stroke: #000000; stroke-width: 0.8"/>
      </g>
     </g>
     <g id="text_21">
      <!-- 300 -->
      <g transform="translate(169.066413 292.329498)scale(0.0833 -0.0833)">
       <defs>
        <path id="DejaVuSans-33" d="M 2597 2516 
Q 3050 2419 3304 2112 
Q 3559 1806 3559 1356 
Q 3559 666 3084 287 
Q 2609 -91 1734 -91 
Q 1441 -91 1130 -33 
Q 819 25 488 141 
L 488 750 
Q 750 597 1062 519 
Q 1375 441 1716 441 
Q 2309 441 2620 675 
Q 2931 909 2931 1356 
Q 2931 1769 2642 2001 
Q 2353 2234 1838 2234 
L 1294 2234 
L 1294 2753 
L 1863 2753 
Q 2328 2753 2575 2939 
Q 2822 3125 2822 3475 
Q 2822 3834 2567 4026 
Q 2313 4219 1838 4219 
Q 1578 4219 1281 4162 
Q 984 4106 628 3988 
L 628 4550 
Q 988 4650 1302 4700 
Q 1616 4750 1894 4750 
Q 2613 4750 3031 4423 
Q 3450 4097 3450 3541 
Q 3450 3153 3228 2886 
Q 3006 2619 2597 2516 
z
" transform="scale(0.015625)"/>
       </defs>
       <use xlink:href="#DejaVuSans-33"/>
       <use xlink:href="#DejaVuSans-30" x="63.623047"/>
       <use xlink:href="#DejaVuSans-30" x="127.246094"/>
      </g>
     </g>
    </g>
    <g id="xtick_11">
     <g id="line2d_61">
      <path d="M 219.289084 279 
L 219.289084 146.414634 
" clip-path="url(#pe031ec8663)" style="fill: none; stroke: #b0b0b0; stroke-width: 0.3; stroke-linecap: square"/>
     </g>
     <g id="line2d_62">
      <g>
       <use xlink:href="#ma3910992db" x="219.289084" y="279" style="stroke: #000000; stroke-width: 0.8"/>
      </g>
     </g>
     <g id="text_22">
      <!-- 400 -->
      <g transform="translate(211.33914 292.329498)scale(0.0833 -0.0833)">
       <use xlink:href="#DejaVuSans-34"/>
       <use xlink:href="#DejaVuSans-30" x="63.623047"/>
       <use xlink:href="#DejaVuSans-30" x="127.246094"/>
      </g>
     </g>
    </g>
    <g id="xtick_12">
     <g id="line2d_63">
      <path d="M 261.561811 279 
L 261.561811 146.414634 
" clip-path="url(#pe031ec8663)" style="fill: none; stroke: #b0b0b0; stroke-width: 0.3; stroke-linecap: square"/>
     </g>
     <g id="line2d_64">
      <g>
       <use xlink:href="#ma3910992db" x="261.561811" y="279" style="stroke: #000000; stroke-width: 0.8"/>
      </g>
     </g>
     <g id="text_23">
      <!-- 500 -->
      <g transform="translate(253.611867 292.329498)scale(0.0833 -0.0833)">
       <defs>
        <path id="DejaVuSans-35" d="M 691 4666 
L 3169 4666 
L 3169 4134 
L 1269 4134 
L 1269 2991 
Q 1406 3038 1543 3061 
Q 1681 3084 1819 3084 
Q 2600 3084 3056 2656 
Q 3513 2228 3513 1497 
Q 3513 744 3044 326 
Q 2575 -91 1722 -91 
Q 1428 -91 1123 -41 
Q 819 9 494 109 
L 494 744 
Q 775 591 1075 516 
Q 1375 441 1709 441 
Q 2250 441 2565 725 
Q 2881 1009 2881 1497 
Q 2881 1984 2565 2268 
Q 2250 2553 1709 2553 
Q 1456 2553 1204 2497 
Q 953 2441 691 2322 
L 691 4666 
z
" transform="scale(0.015625)"/>
       </defs>
       <use xlink:href="#DejaVuSans-35"/>
       <use xlink:href="#DejaVuSans-30" x="63.623047"/>
       <use xlink:href="#DejaVuSans-30" x="127.246094"/>
      </g>
     </g>
    </g>
    <g id="text_24">
     <!-- Total Number of Observations -->
     <g transform="translate(70.825391 307.180003)scale(0.12 -0.12)">
      <defs>
       <path id="DejaVuSans-54" d="M -19 4666 
L 3928 4666 
L 3928 4134 
L 2272 4134 
L 2272 0 
L 1638 0 
L 1638 4134 
L -19 4134 
L -19 4666 
z
" transform="scale(0.015625)"/>
       <path id="DejaVuSans-4e" d="M 628 4666 
L 1478 4666 
L 3547 763 
L 3547 4666 
L 4159 4666 
L 4159 0 
L 3309 0 
L 1241 3903 
L 1241 0 
L 628 0 
L 628 4666 
z
" transform="scale(0.015625)"/>
       <path id="DejaVuSans-6d" d="M 3328 2828 
Q 3544 3216 3844 3400 
Q 4144 3584 4550 3584 
Q 5097 3584 5394 3201 
Q 5691 2819 5691 2113 
L 5691 0 
L 5113 0 
L 5113 2094 
Q 5113 2597 4934 2840 
Q 4756 3084 4391 3084 
Q 3944 3084 3684 2787 
Q 3425 2491 3425 1978 
L 3425 0 
L 2847 0 
L 2847 2094 
Q 2847 2600 2669 2842 
Q 2491 3084 2119 3084 
Q 1678 3084 1418 2786 
Q 1159 2488 1159 1978 
L 1159 0 
L 581 0 
L 581 3500 
L 1159 3500 
L 1159 2956 
Q 1356 3278 1631 3431 
Q 1906 3584 2284 3584 
Q 2666 3584 2933 3390 
Q 3200 3197 3328 2828 
z
" transform="scale(0.015625)"/>
       <path id="DejaVuSans-62" d="M 3116 1747 
Q 3116 2381 2855 2742 
Q 2594 3103 2138 3103 
Q 1681 3103 1420 2742 
Q 1159 2381 1159 1747 
Q 1159 1113 1420 752 
Q 1681 391 2138 391 
Q 2594 391 2855 752 
Q 3116 1113 3116 1747 
z
M 1159 2969 
Q 1341 3281 1617 3432 
Q 1894 3584 2278 3584 
Q 2916 3584 3314 3078 
Q 3713 2572 3713 1747 
Q 3713 922 3314 415 
Q 2916 -91 2278 -91 
Q 1894 -91 1617 61 
Q 1341 213 1159 525 
L 1159 0 
L 581 0 
L 581 4863 
L 1159 4863 
L 1159 2969 
z
" transform="scale(0.015625)"/>
       <path id="DejaVuSans-66" d="M 2375 4863 
L 2375 4384 
L 1825 4384 
Q 1516 4384 1395 4259 
Q 1275 4134 1275 3809 
L 1275 3500 
L 2222 3500 
L 2222 3053 
L 1275 3053 
L 1275 0 
L 697 0 
L 697 3053 
L 147 3053 
L 147 3500 
L 697 3500 
L 697 3744 
Q 697 4328 969 4595 
Q 1241 4863 1831 4863 
L 2375 4863 
z
" transform="scale(0.015625)"/>
       <path id="DejaVuSans-4f" d="M 2522 4238 
Q 1834 4238 1429 3725 
Q 1025 3213 1025 2328 
Q 1025 1447 1429 934 
Q 1834 422 2522 422 
Q 3209 422 3611 934 
Q 4013 1447 4013 2328 
Q 4013 3213 3611 3725 
Q 3209 4238 2522 4238 
z
M 2522 4750 
Q 3503 4750 4090 4092 
Q 4678 3434 4678 2328 
Q 4678 1225 4090 567 
Q 3503 -91 2522 -91 
Q 1538 -91 948 565 
Q 359 1222 359 2328 
Q 359 3434 948 4092 
Q 1538 4750 2522 4750 
z
" transform="scale(0.015625)"/>
      </defs>
      <use xlink:href="#DejaVuSans-54"/>
      <use xlink:href="#DejaVuSans-6f" x="44.083984"/>
      <use xlink:href="#DejaVuSans-74" x="105.265625"/>
      <use xlink:href="#DejaVuSans-61" x="144.474609"/>
      <use xlink:href="#DejaVuSans-6c" x="205.753906"/>
      <use xlink:href="#DejaVuSans-20" x="233.537109"/>
      <use xlink:href="#DejaVuSans-4e" x="265.324219"/>
      <use xlink:href="#DejaVuSans-75" x="340.128906"/>
      <use xlink:href="#DejaVuSans-6d" x="403.507812"/>
      <use xlink:href="#DejaVuSans-62" x="500.919922"/>
      <use xlink:href="#DejaVuSans-65" x="564.396484"/>
      <use xlink:href="#DejaVuSans-72" x="625.919922"/>
      <use xlink:href="#DejaVuSans-20" x="667.033203"/>
      <use xlink:href="#DejaVuSans-6f" x="698.820312"/>
      <use xlink:href="#DejaVuSans-66" x="760.001953"/>
      <use xlink:href="#DejaVuSans-20" x="795.207031"/>
      <use xlink:href="#DejaVuSans-4f" x="826.994141"/>
      <use xlink:href="#DejaVuSans-62" x="905.705078"/>
      <use xlink:href="#DejaVuSans-73" x="969.181641"/>
      <use xlink:href="#DejaVuSans-65" x="1021.28125"/>
      <use xlink:href="#DejaVuSans-72" x="1082.804688"/>
      <use xlink:href="#DejaVuSans-76" x="1123.917969"/>
      <use xlink:href="#DejaVuSans-61" x="1183.097656"/>
      <use xlink:href="#DejaVuSans-74" x="1244.376953"/>
      <use xlink:href="#DejaVuSans-69" x="1283.585938"/>
      <use xlink:href="#DejaVuSans-6f" x="1311.369141"/>
      <use xlink:href="#DejaVuSans-6e" x="1372.550781"/>
      <use xlink:href="#DejaVuSans-73" x="1435.929688"/>
     </g>
    </g>
   </g>
   <g id="matplotlib.axis_4">
    <g id="ytick_6">
     <g id="line2d_65">
      <path d="M 48.507266 254.484072 
L 271.707266 254.484072 
" clip-path="url(#pe031ec8663)" style="fill: none; stroke: #b0b0b0; stroke-width: 0.3; stroke-linecap: square"/>
     </g>
     <g id="line2d_66">
      <g>
       <use xlink:href="#mfdb57bed31" x="48.507266" y="254.484072" style="stroke: #000000; stroke-width: 0.8"/>
      </g>
     </g>
     <g id="text_25">
      <!-- 0.10 -->
      <g transform="translate(22.96 257.648821)scale(0.0833 -0.0833)">
       <use xlink:href="#DejaVuSans-30"/>
       <use xlink:href="#DejaVuSans-2e" x="63.623047"/>
       <use xlink:href="#DejaVuSans-31" x="95.410156"/>
       <use xlink:href="#DejaVuSans-30" x="159.033203"/>
      </g>
     </g>
    </g>
    <g id="ytick_7">
     <g id="line2d_67">
      <path d="M 48.507266 217.424155 
L 271.707266 217.424155 
" clip-path="url(#pe031ec8663)" style="fill: none; stroke: #b0b0b0; stroke-width: 0.3; stroke-linecap: square"/>
     </g>
     <g id="line2d_68">
      <g>
       <use xlink:href="#mfdb57bed31" x="48.507266" y="217.424155" style="stroke: #000000; stroke-width: 0.8"/>
      </g>
     </g>
     <g id="text_26">
      <!-- 0.20 -->
      <g transform="translate(22.96 220.588904)scale(0.0833 -0.0833)">
       <use xlink:href="#DejaVuSans-30"/>
       <use xlink:href="#DejaVuSans-2e" x="63.623047"/>
       <use xlink:href="#DejaVuSans-32" x="95.410156"/>
       <use xlink:href="#DejaVuSans-30" x="159.033203"/>
      </g>
     </g>
    </g>
    <g id="ytick_8">
     <g id="line2d_69">
      <path d="M 48.507266 180.364239 
L 271.707266 180.364239 
" clip-path="url(#pe031ec8663)" style="fill: none; stroke: #b0b0b0; stroke-width: 0.3; stroke-linecap: square"/>
     </g>
     <g id="line2d_70">
      <g>
       <use xlink:href="#mfdb57bed31" x="48.507266" y="180.364239" style="stroke: #000000; stroke-width: 0.8"/>
      </g>
     </g>
     <g id="text_27">
      <!-- 0.30 -->
      <g transform="translate(22.96 183.528988)scale(0.0833 -0.0833)">
       <use xlink:href="#DejaVuSans-30"/>
       <use xlink:href="#DejaVuSans-2e" x="63.623047"/>
       <use xlink:href="#DejaVuSans-33" x="95.410156"/>
       <use xlink:href="#DejaVuSans-30" x="159.033203"/>
      </g>
     </g>
    </g>
    <g id="text_28">
     <!-- Power $(1 - \beta)$ -->
     <g transform="translate(16.44 252.667317)rotate(-90)scale(0.12 -0.12)">
      <use xlink:href="#DejaVuSans-50" transform="translate(0 0.390625)"/>
      <use xlink:href="#DejaVuSans-6f" transform="translate(60.302734 0.390625)"/>
      <use xlink:href="#DejaVuSans-77" transform="translate(121.484375 0.390625)"/>
      <use xlink:href="#DejaVuSans-65" transform="translate(203.271484 0.390625)"/>
      <use xlink:href="#DejaVuSans-72" transform="translate(264.794922 0.390625)"/>
      <use xlink:href="#DejaVuSans-20" transform="translate(305.908203 0.390625)"/>
      <use xlink:href="#DejaVuSans-28" transform="translate(337.695312 0.390625)"/>
      <use xlink:href="#DejaVuSans-31" transform="translate(376.708984 0.390625)"/>
      <use xlink:href="#DejaVuSans-2212" transform="translate(459.814453 0.390625)"/>
      <use xlink:href="#DejaVuSans-Oblique-3b2" transform="translate(563.085938 0.390625)"/>
      <use xlink:href="#DejaVuSans-29" transform="translate(626.904297 0.390625)"/>
     </g>
    </g>
   </g>
   <g id="line2d_71">
    <path d="M 58.65272 270.82633 
L 67.107266 267.337536 
L 75.561811 263.673302 
L 84.016357 259.824562 
L 92.470902 255.799163 
L 100.925447 251.603133 
L 109.379993 247.245907 
L 117.834538 242.736621 
L 126.289084 238.088416 
L 134.743629 233.306251 
L 143.198175 228.401969 
L 151.65272 223.385536 
L 160.107266 218.269962 
L 168.561811 213.060807 
L 177.016357 207.769851 
L 185.470902 202.406911 
L 193.925447 196.981645 
L 202.379993 191.503516 
L 210.834538 185.98552 
L 219.289084 180.430677 
L 227.743629 174.850405 
L 236.198175 169.253239 
L 244.65272 163.64742 
L 253.107266 158.040883 
L 261.561811 152.441242 
" clip-path="url(#pe031ec8663)" style="fill: none; stroke: #8c564b; stroke-width: 2; stroke-linecap: square"/>
   </g>
   <g id="line2d_72">
    <path d="M 58.65272 271.258248 
L 67.107266 268.832697 
L 75.561811 266.335254 
L 84.016357 263.762103 
L 92.470902 261.116111 
L 100.925447 258.397964 
L 109.379993 255.610938 
L 117.834538 252.757781 
L 126.289084 249.841273 
L 134.743629 246.866386 
L 143.198175 243.832925 
L 151.65272 240.745044 
L 160.107266 237.605634 
L 168.561811 234.417571 
L 177.016357 231.183706 
L 185.470902 227.906868 
L 193.925447 224.592352 
L 202.379993 221.238899 
L 210.834538 217.851036 
L 219.289084 214.431495 
L 227.743629 210.98297 
L 236.198175 207.508114 
L 244.65272 204.009532 
L 253.107266 200.48978 
L 261.561811 196.951368 
" clip-path="url(#pe031ec8663)" style="fill: none; stroke: #c49c94; stroke-width: 2; stroke-linecap: square"/>
   </g>
   <g id="line2d_73">
    <path d="M 58.65272 272.32662 
L 67.107266 271.502685 
L 75.561811 270.674867 
L 84.016357 269.841856 
L 92.470902 269.003427 
L 100.925447 268.159552 
L 109.379993 267.310258 
L 117.834538 266.455591 
L 126.289084 265.596405 
L 134.743629 264.731553 
L 143.198175 263.861624 
L 151.65272 262.986695 
L 160.107266 262.106849 
L 168.561811 261.222165 
L 177.016357 260.332722 
L 185.470902 259.438601 
L 193.925447 258.539881 
L 202.379993 257.63664 
L 210.834538 256.728958 
L 219.289084 255.816911 
L 227.743629 254.900578 
L 236.198175 253.980034 
L 244.65272 253.055357 
L 253.107266 252.126622 
L 261.561811 251.195124 
" clip-path="url(#pe031ec8663)" style="fill: none; stroke: #e377c2; stroke-width: 2; stroke-linecap: square"/>
   </g>
   <g id="line2d_74">
    <path d="M 58.65272 272.65704 
L 67.107266 272.175931 
L 75.561811 271.692994 
L 84.016357 271.206973 
L 92.470902 270.717602 
L 100.925447 270.224796 
L 109.379993 269.728521 
L 117.834538 269.228761 
L 126.289084 268.726443 
L 134.743629 268.220152 
L 143.198175 267.710504 
L 151.65272 267.197517 
L 160.107266 266.681212 
L 168.561811 266.161612 
L 177.016357 265.638738 
L 185.470902 265.11261 
L 193.925447 264.583251 
L 202.379993 264.050682 
L 210.834538 263.514924 
L 219.289084 262.976 
L 227.743629 262.433929 
L 236.198175 261.888733 
L 244.65272 261.340433 
L 253.107266 260.790469 
L 261.561811 260.236318 
" clip-path="url(#pe031ec8663)" style="fill: none; stroke: #f7b6d2; stroke-width: 2; stroke-linecap: square"/>
   </g>
   <g id="line2d_75">
    <path d="M 67.107266 272.973392 
L 75.561811 272.926366 
L 84.016357 272.880935 
L 92.470902 272.836158 
L 100.925447 272.791377 
L 109.379993 272.746641 
L 117.834538 272.701906 
L 126.289084 272.657148 
L 134.743629 272.612355 
L 143.198175 272.567517 
L 151.65272 272.522629 
L 160.107266 272.477687 
L 168.561811 272.432688 
L 177.016357 272.387629 
L 185.470902 272.342509 
L 193.925447 272.297327 
L 202.379993 272.25208 
L 210.834538 272.206767 
L 219.289084 272.161388 
L 227.743629 272.115941 
L 236.198175 272.070424 
L 244.65272 272.024838 
L 253.107266 271.979181 
L 261.561811 271.933451 
" clip-path="url(#pe031ec8663)" style="fill: none; stroke: #7f7f7f; stroke-width: 2; stroke-linecap: square"/>
   </g>
   <g id="line2d_76"/>
   <g id="line2d_77"/>
   <g id="line2d_78"/>
   <g id="line2d_79"/>
   <g id="line2d_80"/>
   <g id="patch_6">
    <path d="M 48.507266 279 
L 48.507266 146.414634 
" style="fill: none; stroke: #000000; stroke-width: 0.8; stroke-linejoin: miter; stroke-linecap: square"/>
   </g>
   <g id="patch_7">
    <path d="M 48.507266 279 
L 271.707266 279 
" style="fill: none; stroke: #000000; stroke-width: 0.8; stroke-linejoin: miter; stroke-linecap: square"/>
   </g>
   <g id="legend_2">
    <g id="text_29">
     <!-- Multi-Class Category -->
     <g transform="translate(278.09918 158.871072)scale(0.1 -0.1)">
      <defs>
       <path id="DejaVuSans-2d" d="M 313 2009 
L 1997 2009 
L 1997 1497 
L 313 1497 
L 313 2009 
z
" transform="scale(0.015625)"/>
      </defs>
      <use xlink:href="#DejaVuSans-4d"/>
      <use xlink:href="#DejaVuSans-75" x="86.279297"/>
      <use xlink:href="#DejaVuSans-6c" x="149.658203"/>
      <use xlink:href="#DejaVuSans-74" x="177.441406"/>
      <use xlink:href="#DejaVuSans-69" x="216.650391"/>
      <use xlink:href="#DejaVuSans-2d" x="244.433594"/>
      <use xlink:href="#DejaVuSans-43" x="280.517578"/>
      <use xlink:href="#DejaVuSans-6c" x="350.341797"/>
      <use xlink:href="#DejaVuSans-61" x="378.125"/>
      <use xlink:href="#DejaVuSans-73" x="439.404297"/>
      <use xlink:href="#DejaVuSans-73" x="491.503906"/>
      <use xlink:href="#DejaVuSans-20" x="543.603516"/>
      <use xlink:href="#DejaVuSans-43" x="575.390625"/>
      <use xlink:href="#DejaVuSans-61" x="645.214844"/>
      <use xlink:href="#DejaVuSans-74" x="706.494141"/>
      <use xlink:href="#DejaVuSans-65" x="745.703125"/>
      <use xlink:href="#DejaVuSans-67" x="807.226562"/>
      <use xlink:href="#DejaVuSans-6f" x="870.703125"/>
      <use xlink:href="#DejaVuSans-72" x="931.884766"/>
      <use xlink:href="#DejaVuSans-79" x="972.998047"/>
     </g>
    </g>
    <g id="line2d_81">
     <path d="M 276.565266 167.265075 
L 283.505266 167.265075 
L 290.445266 167.265075 
" style="fill: none; stroke: #8c564b; stroke-width: 2; stroke-linecap: square"/>
    </g>
    <g id="text_30">
     <!-- Age Category -->
     <g transform="translate(295.997266 169.694075)scale(0.0694 -0.0694)">
      <use xlink:href="#DejaVuSans-41"/>
      <use xlink:href="#DejaVuSans-67" x="68.408203"/>
      <use xlink:href="#DejaVuSans-65" x="131.884766"/>
      <use xlink:href="#DejaVuSans-20" x="193.408203"/>
      <use xlink:href="#DejaVuSans-43" x="225.195312"/>
      <use xlink:href="#DejaVuSans-61" x="295.019531"/>
      <use xlink:href="#DejaVuSans-74" x="356.298828"/>
      <use xlink:href="#DejaVuSans-65" x="395.507812"/>
      <use xlink:href="#DejaVuSans-67" x="457.03125"/>
      <use xlink:href="#DejaVuSans-6f" x="520.507812"/>
      <use xlink:href="#DejaVuSans-72" x="581.689453"/>
      <use xlink:href="#DejaVuSans-79" x="622.802734"/>
     </g>
    </g>
    <g id="line2d_82">
     <path d="M 276.565266 177.451694 
L 283.505266 177.451694 
L 290.445266 177.451694 
" style="fill: none; stroke: #c49c94; stroke-width: 2; stroke-linecap: square"/>
    </g>
    <g id="text_31">
     <!-- Types of Plants -->
     <g transform="translate(295.997266 179.880694)scale(0.0694 -0.0694)">
      <defs>
       <path id="DejaVuSans-70" d="M 1159 525 
L 1159 -1331 
L 581 -1331 
L 581 3500 
L 1159 3500 
L 1159 2969 
Q 1341 3281 1617 3432 
Q 1894 3584 2278 3584 
Q 2916 3584 3314 3078 
Q 3713 2572 3713 1747 
Q 3713 922 3314 415 
Q 2916 -91 2278 -91 
Q 1894 -91 1617 61 
Q 1341 213 1159 525 
z
M 3116 1747 
Q 3116 2381 2855 2742 
Q 2594 3103 2138 3103 
Q 1681 3103 1420 2742 
Q 1159 2381 1159 1747 
Q 1159 1113 1420 752 
Q 1681 391 2138 391 
Q 2594 391 2855 752 
Q 3116 1113 3116 1747 
z
" transform="scale(0.015625)"/>
      </defs>
      <use xlink:href="#DejaVuSans-54"/>
      <use xlink:href="#DejaVuSans-79" x="45.458984"/>
      <use xlink:href="#DejaVuSans-70" x="104.638672"/>
      <use xlink:href="#DejaVuSans-65" x="168.115234"/>
      <use xlink:href="#DejaVuSans-73" x="229.638672"/>
      <use xlink:href="#DejaVuSans-20" x="281.738281"/>
      <use xlink:href="#DejaVuSans-6f" x="313.525391"/>
      <use xlink:href="#DejaVuSans-66" x="374.707031"/>
      <use xlink:href="#DejaVuSans-20" x="409.912109"/>
      <use xlink:href="#DejaVuSans-50" x="441.699219"/>
      <use xlink:href="#DejaVuSans-6c" x="502.001953"/>
      <use xlink:href="#DejaVuSans-61" x="529.785156"/>
      <use xlink:href="#DejaVuSans-6e" x="591.064453"/>
      <use xlink:href="#DejaVuSans-74" x="654.443359"/>
      <use xlink:href="#DejaVuSans-73" x="693.652344"/>
     </g>
    </g>
    <g id="line2d_83">
     <path d="M 276.565266 187.638312 
L 283.505266 187.638312 
L 290.445266 187.638312 
" style="fill: none; stroke: #e377c2; stroke-width: 2; stroke-linecap: square"/>
    </g>
    <g id="text_32">
     <!-- Bowel Movement Quality -->
     <g transform="translate(295.997266 190.067312)scale(0.0694 -0.0694)">
      <defs>
       <path id="DejaVuSans-51" d="M 2522 4238 
Q 1834 4238 1429 3725 
Q 1025 3213 1025 2328 
Q 1025 1447 1429 934 
Q 1834 422 2522 422 
Q 3209 422 3611 934 
Q 4013 1447 4013 2328 
Q 4013 3213 3611 3725 
Q 3209 4238 2522 4238 
z
M 3406 84 
L 4238 -825 
L 3475 -825 
L 2784 -78 
Q 2681 -84 2626 -87 
Q 2572 -91 2522 -91 
Q 1538 -91 948 567 
Q 359 1225 359 2328 
Q 359 3434 948 4092 
Q 1538 4750 2522 4750 
Q 3503 4750 4090 4092 
Q 4678 3434 4678 2328 
Q 4678 1516 4351 937 
Q 4025 359 3406 84 
z
" transform="scale(0.015625)"/>
      </defs>
      <use xlink:href="#DejaVuSans-42"/>
      <use xlink:href="#DejaVuSans-6f" x="68.603516"/>
      <use xlink:href="#DejaVuSans-77" x="129.785156"/>
      <use xlink:href="#DejaVuSans-65" x="211.572266"/>
      <use xlink:href="#DejaVuSans-6c" x="273.095703"/>
      <use xlink:href="#DejaVuSans-20" x="300.878906"/>
      <use xlink:href="#DejaVuSans-4d" x="332.666016"/>
      <use xlink:href="#DejaVuSans-6f" x="418.945312"/>
      <use xlink:href="#DejaVuSans-76" x="480.126953"/>
      <use xlink:href="#DejaVuSans-65" x="539.306641"/>
      <use xlink:href="#DejaVuSans-6d" x="600.830078"/>
      <use xlink:href="#DejaVuSans-65" x="698.242188"/>
      <use xlink:href="#DejaVuSans-6e" x="759.765625"/>
      <use xlink:href="#DejaVuSans-74" x="823.144531"/>
      <use xlink:href="#DejaVuSans-20" x="862.353516"/>
      <use xlink:href="#DejaVuSans-51" x="894.140625"/>
      <use xlink:href="#DejaVuSans-75" x="972.851562"/>
      <use xlink:href="#DejaVuSans-61" x="1036.230469"/>
      <use xlink:href="#DejaVuSans-6c" x="1097.509766"/>
      <use xlink:href="#DejaVuSans-69" x="1125.292969"/>
      <use xlink:href="#DejaVuSans-74" x="1153.076172"/>
      <use xlink:href="#DejaVuSans-79" x="1192.285156"/>
     </g>
    </g>
    <g id="line2d_84">
     <path d="M 276.565266 197.824931 
L 283.505266 197.824931 
L 290.445266 197.824931 
" style="fill: none; stroke: #f7b6d2; stroke-width: 2; stroke-linecap: square"/>
    </g>
    <g id="text_33">
     <!-- ABX History -->
     <g transform="translate(295.997266 200.253931)scale(0.0694 -0.0694)">
      <defs>
       <path id="DejaVuSans-58" d="M 403 4666 
L 1081 4666 
L 2241 2931 
L 3406 4666 
L 4084 4666 
L 2584 2425 
L 4184 0 
L 3506 0 
L 2194 1984 
L 872 0 
L 191 0 
L 1856 2491 
L 403 4666 
z
" transform="scale(0.015625)"/>
       <path id="DejaVuSans-48" d="M 628 4666 
L 1259 4666 
L 1259 2753 
L 3553 2753 
L 3553 4666 
L 4184 4666 
L 4184 0 
L 3553 0 
L 3553 2222 
L 1259 2222 
L 1259 0 
L 628 0 
L 628 4666 
z
" transform="scale(0.015625)"/>
      </defs>
      <use xlink:href="#DejaVuSans-41"/>
      <use xlink:href="#DejaVuSans-42" x="68.408203"/>
      <use xlink:href="#DejaVuSans-58" x="137.011719"/>
      <use xlink:href="#DejaVuSans-20" x="205.517578"/>
      <use xlink:href="#DejaVuSans-48" x="237.304688"/>
      <use xlink:href="#DejaVuSans-69" x="312.5"/>
      <use xlink:href="#DejaVuSans-73" x="340.283203"/>
      <use xlink:href="#DejaVuSans-74" x="392.382812"/>
      <use xlink:href="#DejaVuSans-6f" x="431.591797"/>
      <use xlink:href="#DejaVuSans-72" x="492.773438"/>
      <use xlink:href="#DejaVuSans-79" x="533.886719"/>
     </g>
    </g>
    <g id="line2d_85">
     <path d="M 276.565266 208.01155 
L 283.505266 208.01155 
L 290.445266 208.01155 
" style="fill: none; stroke: #7f7f7f; stroke-width: 2; stroke-linecap: square"/>
    </g>
    <g id="text_34">
     <!-- Country -->
     <g transform="translate(295.997266 210.44055)scale(0.0694 -0.0694)">
      <use xlink:href="#DejaVuSans-43"/>
      <use xlink:href="#DejaVuSans-6f" x="69.824219"/>
      <use xlink:href="#DejaVuSans-75" x="131.005859"/>
      <use xlink:href="#DejaVuSans-6e" x="194.384766"/>
      <use xlink:href="#DejaVuSans-74" x="257.763672"/>
      <use xlink:href="#DejaVuSans-72" x="296.972656"/>
      <use xlink:href="#DejaVuSans-79" x="338.085938"/>
     </g>
    </g>
   </g>
  </g>
 </g>
 <defs>
  <clipPath id="pe096939e4a">
   <rect x="48.507266" y="7.2" width="223.2" height="132.585366"/>
  </clipPath>
  <clipPath id="pe031ec8663">
   <rect x="48.507266" y="146.414634" width="223.2" height="132.585366"/>
  </clipPath>
 </defs>
</svg>
