<?xml version="1.0" encoding="utf-8" standalone="no"?>
<!DOCTYPE svg PUBLIC "-//W3C//DTD SVG 1.1//EN"
  "http://www.w3.org/Graphics/SVG/1.1/DTD/svg11.dtd">
<svg xmlns:xlink="http://www.w3.org/1999/xlink" width="403.187795pt" height="338.568225pt" viewBox="0 0 403.187795 338.568225" xmlns="http://www.w3.org/2000/svg" version="1.1">
 <metadata>
  <rdf:RDF xmlns:dc="http://purl.org/dc/elements/1.1/" xmlns:cc="http://creativecommons.org/ns#" xmlns:rdf="http://www.w3.org/1999/02/22-rdf-syntax-ns#">
   <cc:Work>
    <dc:type rdf:resource="http://purl.org/dc/dcmitype/StillImage"/>
    <dc:date>2022-03-03T17:04:24.560080</dc:date>
    <dc:format>image/svg+xml</dc:format>
    <dc:creator>
     <cc:Agent>
      <dc:title>Matplotlib v3.5.1, https://matplotlib.org/</dc:title>
     </cc:Agent>
    </dc:creator>
   </cc:Work>
  </rdf:RDF>
 </metadata>
 <defs>
  <style type="text/css">*{stroke-linejoin: round; stroke-linecap: butt}</style>
 </defs>
 <g id="figure_1">
  <g id="patch_1">
   <path d="M 0 338.568225 
L 403.187795 338.568225 
L 403.187795 0 
L 0 0 
z
" style="fill: #ffffff"/>
  </g>
  <g id="axes_1">
   <g id="patch_2">
    <path d="M 48.507266 241.58175 
L 383.307266 241.58175 
L 383.307266 24.14175 
L 48.507266 24.14175 
z
" style="fill: #ffffff"/>
   </g>
   <g id="matplotlib.axis_1">
    <g id="xtick_1">
     <g id="line2d_1">
      <path d="M 51.043629 241.58175 
L 51.043629 24.14175 
" clip-path="url(#peda1c86b37)" style="fill: none; stroke: #b0b0b0; stroke-width: 0.3; stroke-linecap: square"/>
     </g>
     <g id="line2d_2">
      <defs>
       <path id="mc3c8529399" d="M 0 0 
L 0 3.5 
" style="stroke: #000000; stroke-width: 0.8"/>
      </defs>
      <g>
       <use xlink:href="#mc3c8529399" x="51.043629" y="241.58175" style="stroke: #000000; stroke-width: 0.8"/>
      </g>
     </g>
     <g id="text_1">
      <!-- 0 -->
      <g transform="translate(48.393648 254.911248)scale(0.0833 -0.0833)">
       <defs>
        <path id="DejaVuSans-30" d="M 2034 4250 
Q 1547 4250 1301 3770 
Q 1056 3291 1056 2328 
Q 1056 1369 1301 889 
Q 1547 409 2034 409 
Q 2525 409 2770 889 
Q 3016 1369 3016 2328 
Q 3016 3291 2770 3770 
Q 2525 4250 2034 4250 
z
M 2034 4750 
Q 2819 4750 3233 4129 
Q 3647 3509 3647 2328 
Q 3647 1150 3233 529 
Q 2819 -91 2034 -91 
Q 1250 -91 836 529 
Q 422 1150 422 2328 
Q 422 3509 836 4129 
Q 1250 4750 2034 4750 
z
" transform="scale(0.015625)"/>
       </defs>
       <use xlink:href="#DejaVuSans-30"/>
      </g>
     </g>
    </g>
    <g id="xtick_2">
     <g id="line2d_3">
      <path d="M 114.45272 241.58175 
L 114.45272 24.14175 
" clip-path="url(#peda1c86b37)" style="fill: none; stroke: #b0b0b0; stroke-width: 0.3; stroke-linecap: square"/>
     </g>
     <g id="line2d_4">
      <g>
       <use xlink:href="#mc3c8529399" x="114.45272" y="241.58175" style="stroke: #000000; stroke-width: 0.8"/>
      </g>
     </g>
     <g id="text_2">
      <!-- 100 -->
      <g transform="translate(106.502776 254.911248)scale(0.0833 -0.0833)">
       <defs>
        <path id="DejaVuSans-31" d="M 794 531 
L 1825 531 
L 1825 4091 
L 703 3866 
L 703 4441 
L 1819 4666 
L 2450 4666 
L 2450 531 
L 3481 531 
L 3481 0 
L 794 0 
L 794 531 
z
" transform="scale(0.015625)"/>
       </defs>
       <use xlink:href="#DejaVuSans-31"/>
       <use xlink:href="#DejaVuSans-30" x="63.623047"/>
       <use xlink:href="#DejaVuSans-30" x="127.246094"/>
      </g>
     </g>
    </g>
    <g id="xtick_3">
     <g id="line2d_5">
      <path d="M 177.861811 241.58175 
L 177.861811 24.14175 
" clip-path="url(#peda1c86b37)" style="fill: none; stroke: #b0b0b0; stroke-width: 0.3; stroke-linecap: square"/>
     </g>
     <g id="line2d_6">
      <g>
       <use xlink:href="#mc3c8529399" x="177.861811" y="241.58175" style="stroke: #000000; stroke-width: 0.8"/>
      </g>
     </g>
     <g id="text_3">
      <!-- 200 -->
      <g transform="translate(169.911867 254.911248)scale(0.0833 -0.0833)">
       <defs>
        <path id="DejaVuSans-32" d="M 1228 531 
L 3431 531 
L 3431 0 
L 469 0 
L 469 531 
Q 828 903 1448 1529 
Q 2069 2156 2228 2338 
Q 2531 2678 2651 2914 
Q 2772 3150 2772 3378 
Q 2772 3750 2511 3984 
Q 2250 4219 1831 4219 
Q 1534 4219 1204 4116 
Q 875 4013 500 3803 
L 500 4441 
Q 881 4594 1212 4672 
Q 1544 4750 1819 4750 
Q 2544 4750 2975 4387 
Q 3406 4025 3406 3419 
Q 3406 3131 3298 2873 
Q 3191 2616 2906 2266 
Q 2828 2175 2409 1742 
Q 1991 1309 1228 531 
z
" transform="scale(0.015625)"/>
       </defs>
       <use xlink:href="#DejaVuSans-32"/>
       <use xlink:href="#DejaVuSans-30" x="63.623047"/>
       <use xlink:href="#DejaVuSans-30" x="127.246094"/>
      </g>
     </g>
    </g>
    <g id="xtick_4">
     <g id="line2d_7">
      <path d="M 241.270902 241.58175 
L 241.270902 24.14175 
" clip-path="url(#peda1c86b37)" style="fill: none; stroke: #b0b0b0; stroke-width: 0.3; stroke-linecap: square"/>
     </g>
     <g id="line2d_8">
      <g>
       <use xlink:href="#mc3c8529399" x="241.270902" y="241.58175" style="stroke: #000000; stroke-width: 0.8"/>
      </g>
     </g>
     <g id="text_4">
      <!-- 300 -->
      <g transform="translate(233.320958 254.911248)scale(0.0833 -0.0833)">
       <defs>
        <path id="DejaVuSans-33" d="M 2597 2516 
Q 3050 2419 3304 2112 
Q 3559 1806 3559 1356 
Q 3559 666 3084 287 
Q 2609 -91 1734 -91 
Q 1441 -91 1130 -33 
Q 819 25 488 141 
L 488 750 
Q 750 597 1062 519 
Q 1375 441 1716 441 
Q 2309 441 2620 675 
Q 2931 909 2931 1356 
Q 2931 1769 2642 2001 
Q 2353 2234 1838 2234 
L 1294 2234 
L 1294 2753 
L 1863 2753 
Q 2328 2753 2575 2939 
Q 2822 3125 2822 3475 
Q 2822 3834 2567 4026 
Q 2313 4219 1838 4219 
Q 1578 4219 1281 4162 
Q 984 4106 628 3988 
L 628 4550 
Q 988 4650 1302 4700 
Q 1616 4750 1894 4750 
Q 2613 4750 3031 4423 
Q 3450 4097 3450 3541 
Q 3450 3153 3228 2886 
Q 3006 2619 2597 2516 
z
" transform="scale(0.015625)"/>
       </defs>
       <use xlink:href="#DejaVuSans-33"/>
       <use xlink:href="#DejaVuSans-30" x="63.623047"/>
       <use xlink:href="#DejaVuSans-30" x="127.246094"/>
      </g>
     </g>
    </g>
    <g id="xtick_5">
     <g id="line2d_9">
      <path d="M 304.679993 241.58175 
L 304.679993 24.14175 
" clip-path="url(#peda1c86b37)" style="fill: none; stroke: #b0b0b0; stroke-width: 0.3; stroke-linecap: square"/>
     </g>
     <g id="line2d_10">
      <g>
       <use xlink:href="#mc3c8529399" x="304.679993" y="241.58175" style="stroke: #000000; stroke-width: 0.8"/>
      </g>
     </g>
     <g id="text_5">
      <!-- 400 -->
      <g transform="translate(296.730049 254.911248)scale(0.0833 -0.0833)">
       <defs>
        <path id="DejaVuSans-34" d="M 2419 4116 
L 825 1625 
L 2419 1625 
L 2419 4116 
z
M 2253 4666 
L 3047 4666 
L 3047 1625 
L 3713 1625 
L 3713 1100 
L 3047 1100 
L 3047 0 
L 2419 0 
L 2419 1100 
L 313 1100 
L 313 1709 
L 2253 4666 
z
" transform="scale(0.015625)"/>
       </defs>
       <use xlink:href="#DejaVuSans-34"/>
       <use xlink:href="#DejaVuSans-30" x="63.623047"/>
       <use xlink:href="#DejaVuSans-30" x="127.246094"/>
      </g>
     </g>
    </g>
    <g id="xtick_6">
     <g id="line2d_11">
      <path d="M 368.089084 241.58175 
L 368.089084 24.14175 
" clip-path="url(#peda1c86b37)" style="fill: none; stroke: #b0b0b0; stroke-width: 0.3; stroke-linecap: square"/>
     </g>
     <g id="line2d_12">
      <g>
       <use xlink:href="#mc3c8529399" x="368.089084" y="241.58175" style="stroke: #000000; stroke-width: 0.8"/>
      </g>
     </g>
     <g id="text_6">
      <!-- 500 -->
      <g transform="translate(360.13914 254.911248)scale(0.0833 -0.0833)">
       <defs>
        <path id="DejaVuSans-35" d="M 691 4666 
L 3169 4666 
L 3169 4134 
L 1269 4134 
L 1269 2991 
Q 1406 3038 1543 3061 
Q 1681 3084 1819 3084 
Q 2600 3084 3056 2656 
Q 3513 2228 3513 1497 
Q 3513 744 3044 326 
Q 2575 -91 1722 -91 
Q 1428 -91 1123 -41 
Q 819 9 494 109 
L 494 744 
Q 775 591 1075 516 
Q 1375 441 1709 441 
Q 2250 441 2565 725 
Q 2881 1009 2881 1497 
Q 2881 1984 2565 2268 
Q 2250 2553 1709 2553 
Q 1456 2553 1204 2497 
Q 953 2441 691 2322 
L 691 4666 
z
" transform="scale(0.015625)"/>
       </defs>
       <use xlink:href="#DejaVuSans-35"/>
       <use xlink:href="#DejaVuSans-30" x="63.623047"/>
       <use xlink:href="#DejaVuSans-30" x="127.246094"/>
      </g>
     </g>
    </g>
    <g id="text_7">
     <!-- Total Observations -->
     <g transform="translate(160.325703 269.761753)scale(0.12 -0.12)">
      <defs>
       <path id="DejaVuSans-54" d="M -19 4666 
L 3928 4666 
L 3928 4134 
L 2272 4134 
L 2272 0 
L 1638 0 
L 1638 4134 
L -19 4134 
L -19 4666 
z
" transform="scale(0.015625)"/>
       <path id="DejaVuSans-6f" d="M 1959 3097 
Q 1497 3097 1228 2736 
Q 959 2375 959 1747 
Q 959 1119 1226 758 
Q 1494 397 1959 397 
Q 2419 397 2687 759 
Q 2956 1122 2956 1747 
Q 2956 2369 2687 2733 
Q 2419 3097 1959 3097 
z
M 1959 3584 
Q 2709 3584 3137 3096 
Q 3566 2609 3566 1747 
Q 3566 888 3137 398 
Q 2709 -91 1959 -91 
Q 1206 -91 779 398 
Q 353 888 353 1747 
Q 353 2609 779 3096 
Q 1206 3584 1959 3584 
z
" transform="scale(0.015625)"/>
       <path id="DejaVuSans-74" d="M 1172 4494 
L 1172 3500 
L 2356 3500 
L 2356 3053 
L 1172 3053 
L 1172 1153 
Q 1172 725 1289 603 
Q 1406 481 1766 481 
L 2356 481 
L 2356 0 
L 1766 0 
Q 1100 0 847 248 
Q 594 497 594 1153 
L 594 3053 
L 172 3053 
L 172 3500 
L 594 3500 
L 594 4494 
L 1172 4494 
z
" transform="scale(0.015625)"/>
       <path id="DejaVuSans-61" d="M 2194 1759 
Q 1497 1759 1228 1600 
Q 959 1441 959 1056 
Q 959 750 1161 570 
Q 1363 391 1709 391 
Q 2188 391 2477 730 
Q 2766 1069 2766 1631 
L 2766 1759 
L 2194 1759 
z
M 3341 1997 
L 3341 0 
L 2766 0 
L 2766 531 
Q 2569 213 2275 61 
Q 1981 -91 1556 -91 
Q 1019 -91 701 211 
Q 384 513 384 1019 
Q 384 1609 779 1909 
Q 1175 2209 1959 2209 
L 2766 2209 
L 2766 2266 
Q 2766 2663 2505 2880 
Q 2244 3097 1772 3097 
Q 1472 3097 1187 3025 
Q 903 2953 641 2809 
L 641 3341 
Q 956 3463 1253 3523 
Q 1550 3584 1831 3584 
Q 2591 3584 2966 3190 
Q 3341 2797 3341 1997 
z
" transform="scale(0.015625)"/>
       <path id="DejaVuSans-6c" d="M 603 4863 
L 1178 4863 
L 1178 0 
L 603 0 
L 603 4863 
z
" transform="scale(0.015625)"/>
       <path id="DejaVuSans-20" transform="scale(0.015625)"/>
       <path id="DejaVuSans-4f" d="M 2522 4238 
Q 1834 4238 1429 3725 
Q 1025 3213 1025 2328 
Q 1025 1447 1429 934 
Q 1834 422 2522 422 
Q 3209 422 3611 934 
Q 4013 1447 4013 2328 
Q 4013 3213 3611 3725 
Q 3209 4238 2522 4238 
z
M 2522 4750 
Q 3503 4750 4090 4092 
Q 4678 3434 4678 2328 
Q 4678 1225 4090 567 
Q 3503 -91 2522 -91 
Q 1538 -91 948 565 
Q 359 1222 359 2328 
Q 359 3434 948 4092 
Q 1538 4750 2522 4750 
z
" transform="scale(0.015625)"/>
       <path id="DejaVuSans-62" d="M 3116 1747 
Q 3116 2381 2855 2742 
Q 2594 3103 2138 3103 
Q 1681 3103 1420 2742 
Q 1159 2381 1159 1747 
Q 1159 1113 1420 752 
Q 1681 391 2138 391 
Q 2594 391 2855 752 
Q 3116 1113 3116 1747 
z
M 1159 2969 
Q 1341 3281 1617 3432 
Q 1894 3584 2278 3584 
Q 2916 3584 3314 3078 
Q 3713 2572 3713 1747 
Q 3713 922 3314 415 
Q 2916 -91 2278 -91 
Q 1894 -91 1617 61 
Q 1341 213 1159 525 
L 1159 0 
L 581 0 
L 581 4863 
L 1159 4863 
L 1159 2969 
z
" transform="scale(0.015625)"/>
       <path id="DejaVuSans-73" d="M 2834 3397 
L 2834 2853 
Q 2591 2978 2328 3040 
Q 2066 3103 1784 3103 
Q 1356 3103 1142 2972 
Q 928 2841 928 2578 
Q 928 2378 1081 2264 
Q 1234 2150 1697 2047 
L 1894 2003 
Q 2506 1872 2764 1633 
Q 3022 1394 3022 966 
Q 3022 478 2636 193 
Q 2250 -91 1575 -91 
Q 1294 -91 989 -36 
Q 684 19 347 128 
L 347 722 
Q 666 556 975 473 
Q 1284 391 1588 391 
Q 1994 391 2212 530 
Q 2431 669 2431 922 
Q 2431 1156 2273 1281 
Q 2116 1406 1581 1522 
L 1381 1569 
Q 847 1681 609 1914 
Q 372 2147 372 2553 
Q 372 3047 722 3315 
Q 1072 3584 1716 3584 
Q 2034 3584 2315 3537 
Q 2597 3491 2834 3397 
z
" transform="scale(0.015625)"/>
       <path id="DejaVuSans-65" d="M 3597 1894 
L 3597 1613 
L 953 1613 
Q 991 1019 1311 708 
Q 1631 397 2203 397 
Q 2534 397 2845 478 
Q 3156 559 3463 722 
L 3463 178 
Q 3153 47 2828 -22 
Q 2503 -91 2169 -91 
Q 1331 -91 842 396 
Q 353 884 353 1716 
Q 353 2575 817 3079 
Q 1281 3584 2069 3584 
Q 2775 3584 3186 3129 
Q 3597 2675 3597 1894 
z
M 3022 2063 
Q 3016 2534 2758 2815 
Q 2500 3097 2075 3097 
Q 1594 3097 1305 2825 
Q 1016 2553 972 2059 
L 3022 2063 
z
" transform="scale(0.015625)"/>
       <path id="DejaVuSans-72" d="M 2631 2963 
Q 2534 3019 2420 3045 
Q 2306 3072 2169 3072 
Q 1681 3072 1420 2755 
Q 1159 2438 1159 1844 
L 1159 0 
L 581 0 
L 581 3500 
L 1159 3500 
L 1159 2956 
Q 1341 3275 1631 3429 
Q 1922 3584 2338 3584 
Q 2397 3584 2469 3576 
Q 2541 3569 2628 3553 
L 2631 2963 
z
" transform="scale(0.015625)"/>
       <path id="DejaVuSans-76" d="M 191 3500 
L 800 3500 
L 1894 563 
L 2988 3500 
L 3597 3500 
L 2284 0 
L 1503 0 
L 191 3500 
z
" transform="scale(0.015625)"/>
       <path id="DejaVuSans-69" d="M 603 3500 
L 1178 3500 
L 1178 0 
L 603 0 
L 603 3500 
z
M 603 4863 
L 1178 4863 
L 1178 4134 
L 603 4134 
L 603 4863 
z
" transform="scale(0.015625)"/>
       <path id="DejaVuSans-6e" d="M 3513 2113 
L 3513 0 
L 2938 0 
L 2938 2094 
Q 2938 2591 2744 2837 
Q 2550 3084 2163 3084 
Q 1697 3084 1428 2787 
Q 1159 2491 1159 1978 
L 1159 0 
L 581 0 
L 581 3500 
L 1159 3500 
L 1159 2956 
Q 1366 3272 1645 3428 
Q 1925 3584 2291 3584 
Q 2894 3584 3203 3211 
Q 3513 2838 3513 2113 
z
" transform="scale(0.015625)"/>
      </defs>
      <use xlink:href="#DejaVuSans-54"/>
      <use xlink:href="#DejaVuSans-6f" x="44.083984"/>
      <use xlink:href="#DejaVuSans-74" x="105.265625"/>
      <use xlink:href="#DejaVuSans-61" x="144.474609"/>
      <use xlink:href="#DejaVuSans-6c" x="205.753906"/>
      <use xlink:href="#DejaVuSans-20" x="233.537109"/>
      <use xlink:href="#DejaVuSans-4f" x="265.324219"/>
      <use xlink:href="#DejaVuSans-62" x="344.035156"/>
      <use xlink:href="#DejaVuSans-73" x="407.511719"/>
      <use xlink:href="#DejaVuSans-65" x="459.611328"/>
      <use xlink:href="#DejaVuSans-72" x="521.134766"/>
      <use xlink:href="#DejaVuSans-76" x="562.248047"/>
      <use xlink:href="#DejaVuSans-61" x="621.427734"/>
      <use xlink:href="#DejaVuSans-74" x="682.707031"/>
      <use xlink:href="#DejaVuSans-69" x="721.916016"/>
      <use xlink:href="#DejaVuSans-6f" x="749.699219"/>
      <use xlink:href="#DejaVuSans-6e" x="810.880859"/>
      <use xlink:href="#DejaVuSans-73" x="874.259766"/>
     </g>
    </g>
   </g>
   <g id="matplotlib.axis_2">
    <g id="ytick_1">
     <g id="line2d_13">
      <path d="M 48.507266 211.516773 
L 383.307266 211.516773 
" clip-path="url(#peda1c86b37)" style="fill: none; stroke: #b0b0b0; stroke-width: 0.3; stroke-linecap: square"/>
     </g>
     <g id="line2d_14">
      <defs>
       <path id="m67ec2ffbed" d="M 0 0 
L -3.5 0 
" style="stroke: #000000; stroke-width: 0.8"/>
      </defs>
      <g>
       <use xlink:href="#m67ec2ffbed" x="48.507266" y="211.516773" style="stroke: #000000; stroke-width: 0.8"/>
      </g>
     </g>
     <g id="text_8">
      <!-- 0.10 -->
      <g transform="translate(22.96 214.681522)scale(0.0833 -0.0833)">
       <defs>
        <path id="DejaVuSans-2e" d="M 684 794 
L 1344 794 
L 1344 0 
L 684 0 
L 684 794 
z
" transform="scale(0.015625)"/>
       </defs>
       <use xlink:href="#DejaVuSans-30"/>
       <use xlink:href="#DejaVuSans-2e" x="63.623047"/>
       <use xlink:href="#DejaVuSans-31" x="95.410156"/>
       <use xlink:href="#DejaVuSans-30" x="159.033203"/>
      </g>
     </g>
    </g>
    <g id="ytick_2">
     <g id="line2d_15">
      <path d="M 48.507266 171.142487 
L 383.307266 171.142487 
" clip-path="url(#peda1c86b37)" style="fill: none; stroke: #b0b0b0; stroke-width: 0.3; stroke-linecap: square"/>
     </g>
     <g id="line2d_16">
      <g>
       <use xlink:href="#m67ec2ffbed" x="48.507266" y="171.142487" style="stroke: #000000; stroke-width: 0.8"/>
      </g>
     </g>
     <g id="text_9">
      <!-- 0.20 -->
      <g transform="translate(22.96 174.307236)scale(0.0833 -0.0833)">
       <use xlink:href="#DejaVuSans-30"/>
       <use xlink:href="#DejaVuSans-2e" x="63.623047"/>
       <use xlink:href="#DejaVuSans-32" x="95.410156"/>
       <use xlink:href="#DejaVuSans-30" x="159.033203"/>
      </g>
     </g>
    </g>
    <g id="ytick_3">
     <g id="line2d_17">
      <path d="M 48.507266 130.768201 
L 383.307266 130.768201 
" clip-path="url(#peda1c86b37)" style="fill: none; stroke: #b0b0b0; stroke-width: 0.3; stroke-linecap: square"/>
     </g>
     <g id="line2d_18">
      <g>
       <use xlink:href="#m67ec2ffbed" x="48.507266" y="130.768201" style="stroke: #000000; stroke-width: 0.8"/>
      </g>
     </g>
     <g id="text_10">
      <!-- 0.30 -->
      <g transform="translate(22.96 133.93295)scale(0.0833 -0.0833)">
       <use xlink:href="#DejaVuSans-30"/>
       <use xlink:href="#DejaVuSans-2e" x="63.623047"/>
       <use xlink:href="#DejaVuSans-33" x="95.410156"/>
       <use xlink:href="#DejaVuSans-30" x="159.033203"/>
      </g>
     </g>
    </g>
    <g id="ytick_4">
     <g id="line2d_19">
      <path d="M 48.507266 90.393915 
L 383.307266 90.393915 
" clip-path="url(#peda1c86b37)" style="fill: none; stroke: #b0b0b0; stroke-width: 0.3; stroke-linecap: square"/>
     </g>
     <g id="line2d_20">
      <g>
       <use xlink:href="#m67ec2ffbed" x="48.507266" y="90.393915" style="stroke: #000000; stroke-width: 0.8"/>
      </g>
     </g>
     <g id="text_11">
      <!-- 0.40 -->
      <g transform="translate(22.96 93.558665)scale(0.0833 -0.0833)">
       <use xlink:href="#DejaVuSans-30"/>
       <use xlink:href="#DejaVuSans-2e" x="63.623047"/>
       <use xlink:href="#DejaVuSans-34" x="95.410156"/>
       <use xlink:href="#DejaVuSans-30" x="159.033203"/>
      </g>
     </g>
    </g>
    <g id="ytick_5">
     <g id="line2d_21">
      <path d="M 48.507266 50.019629 
L 383.307266 50.019629 
" clip-path="url(#peda1c86b37)" style="fill: none; stroke: #b0b0b0; stroke-width: 0.3; stroke-linecap: square"/>
     </g>
     <g id="line2d_22">
      <g>
       <use xlink:href="#m67ec2ffbed" x="48.507266" y="50.019629" style="stroke: #000000; stroke-width: 0.8"/>
      </g>
     </g>
     <g id="text_12">
      <!-- 0.50 -->
      <g transform="translate(22.96 53.184379)scale(0.0833 -0.0833)">
       <use xlink:href="#DejaVuSans-30"/>
       <use xlink:href="#DejaVuSans-2e" x="63.623047"/>
       <use xlink:href="#DejaVuSans-35" x="95.410156"/>
       <use xlink:href="#DejaVuSans-30" x="159.033203"/>
      </g>
     </g>
    </g>
    <g id="text_13">
     <!-- Power $(1 - \beta)$ -->
     <g transform="translate(16.44 172.82175)rotate(-90)scale(0.12 -0.12)">
      <defs>
       <path id="DejaVuSans-50" d="M 1259 4147 
L 1259 2394 
L 2053 2394 
Q 2494 2394 2734 2622 
Q 2975 2850 2975 3272 
Q 2975 3691 2734 3919 
Q 2494 4147 2053 4147 
L 1259 4147 
z
M 628 4666 
L 2053 4666 
Q 2838 4666 3239 4311 
Q 3641 3956 3641 3272 
Q 3641 2581 3239 2228 
Q 2838 1875 2053 1875 
L 1259 1875 
L 1259 0 
L 628 0 
L 628 4666 
z
" transform="scale(0.015625)"/>
       <path id="DejaVuSans-77" d="M 269 3500 
L 844 3500 
L 1563 769 
L 2278 3500 
L 2956 3500 
L 3675 769 
L 4391 3500 
L 4966 3500 
L 4050 0 
L 3372 0 
L 2619 2869 
L 1863 0 
L 1184 0 
L 269 3500 
z
" transform="scale(0.015625)"/>
       <path id="DejaVuSans-28" d="M 1984 4856 
Q 1566 4138 1362 3434 
Q 1159 2731 1159 2009 
Q 1159 1288 1364 580 
Q 1569 -128 1984 -844 
L 1484 -844 
Q 1016 -109 783 600 
Q 550 1309 550 2009 
Q 550 2706 781 3412 
Q 1013 4119 1484 4856 
L 1984 4856 
z
" transform="scale(0.015625)"/>
       <path id="DejaVuSans-2212" d="M 678 2272 
L 4684 2272 
L 4684 1741 
L 678 1741 
L 678 2272 
z
" transform="scale(0.015625)"/>
       <path id="DejaVuSans-Oblique-3b2" d="M 872 216 
L 572 -1331 
L -6 -1331 
L 928 3478 
Q 1206 4903 2538 4903 
Q 3888 4903 3659 3700 
Q 3503 2844 2894 2531 
Q 3713 2250 3553 1416 
Q 3272 -69 1759 -66 
Q 1097 -63 872 216 
z
M 1019 966 
Q 1259 422 1875 425 
Q 2775 425 2966 1406 
Q 3138 2288 1675 2219 
L 1778 2750 
Q 2909 2731 3106 3750 
Q 3241 4438 2509 4434 
Q 1691 4434 1503 3459 
L 1019 966 
z
" transform="scale(0.015625)"/>
       <path id="DejaVuSans-29" d="M 513 4856 
L 1013 4856 
Q 1481 4119 1714 3412 
Q 1947 2706 1947 2009 
Q 1947 1309 1714 600 
Q 1481 -109 1013 -844 
L 513 -844 
Q 928 -128 1133 580 
Q 1338 1288 1338 2009 
Q 1338 2731 1133 3434 
Q 928 4138 513 4856 
z
" transform="scale(0.015625)"/>
      </defs>
      <use xlink:href="#DejaVuSans-50" transform="translate(0 0.390625)"/>
      <use xlink:href="#DejaVuSans-6f" transform="translate(60.302734 0.390625)"/>
      <use xlink:href="#DejaVuSans-77" transform="translate(121.484375 0.390625)"/>
      <use xlink:href="#DejaVuSans-65" transform="translate(203.271484 0.390625)"/>
      <use xlink:href="#DejaVuSans-72" transform="translate(264.794922 0.390625)"/>
      <use xlink:href="#DejaVuSans-20" transform="translate(305.908203 0.390625)"/>
      <use xlink:href="#DejaVuSans-28" transform="translate(337.695312 0.390625)"/>
      <use xlink:href="#DejaVuSans-31" transform="translate(376.708984 0.390625)"/>
      <use xlink:href="#DejaVuSans-2212" transform="translate(459.814453 0.390625)"/>
      <use xlink:href="#DejaVuSans-Oblique-3b2" transform="translate(563.085938 0.390625)"/>
      <use xlink:href="#DejaVuSans-29" transform="translate(626.904297 0.390625)"/>
     </g>
    </g>
   </g>
   <g id="line2d_23">
    <path d="M 63.725447 224.557587 
L 76.407266 216.428245 
L 89.089084 208.184429 
L 101.770902 199.843172 
L 114.45272 191.428499 
L 127.134538 182.964077 
L 139.816357 174.472234 
L 152.498175 165.973771 
L 165.179993 157.487941 
L 177.861811 149.032493 
L 190.543629 140.623723 
L 203.225447 132.276541 
L 215.907266 124.004536 
L 228.589084 115.820036 
L 241.270902 107.734184 
L 253.95272 99.756995 
L 266.634538 91.89742 
L 279.316357 84.163408 
L 291.998175 76.561971 
L 304.679993 69.099234 
L 317.361811 61.780493 
L 330.043629 54.610269 
L 342.725447 47.592364 
L 355.407266 40.729904 
L 368.089084 34.025386 
" clip-path="url(#peda1c86b37)" style="fill: none; stroke: #0173b2; stroke-width: 2; stroke-linecap: square"/>
   </g>
   <g id="line2d_24">
    <path d="M 63.725447 227.443423 
L 76.407266 222.629221 
L 89.089084 217.769428 
L 101.770902 212.863837 
L 114.45272 207.917311 
L 127.134538 202.935344 
L 139.816357 197.92344 
L 152.498175 192.886955 
L 165.179993 187.831056 
L 177.861811 182.760704 
L 190.543629 177.680648 
L 203.225447 172.595429 
L 215.907266 167.50938 
L 228.589084 162.426633 
L 241.270902 157.351122 
L 253.95272 152.286588 
L 266.634538 147.236586 
L 279.316357 142.204485 
L 291.998175 137.193481 
L 304.679993 132.206596 
L 317.361811 127.246686 
L 330.043629 122.316446 
L 342.725447 117.418414 
L 355.407266 112.554974 
L 368.089084 107.728371 
" clip-path="url(#peda1c86b37)" style="fill: none; stroke: #de8f05; stroke-width: 2; stroke-linecap: square"/>
   </g>
   <g id="line2d_25">
    <path d="M 63.725447 227.512839 
L 76.407266 222.777909 
L 89.089084 217.998798 
L 101.770902 213.17511 
L 114.45272 208.311444 
L 127.134538 203.413038 
L 139.816357 198.485144 
L 152.498175 193.532884 
L 165.179993 188.561202 
L 177.861811 183.574849 
L 190.543629 178.578379 
L 203.225447 173.576149 
L 215.907266 168.572322 
L 228.589084 163.570872 
L 241.270902 158.575583 
L 253.95272 153.590062 
L 266.634538 148.617735 
L 279.316357 143.661859 
L 291.998175 138.725523 
L 304.679993 133.811652 
L 317.361811 128.923016 
L 330.043629 124.06223 
L 342.725447 119.231762 
L 355.407266 114.433936 
L 368.089084 109.670939 
" clip-path="url(#peda1c86b37)" style="fill: none; stroke: #029e73; stroke-width: 2; stroke-linecap: square"/>
   </g>
   <g id="line2d_26">
    <path d="M 63.725447 229.711607 
L 76.407266 227.47418 
L 89.089084 225.227434 
L 101.770902 222.968951 
L 114.45272 220.6988 
L 127.134538 218.417448 
L 139.816357 216.125469 
L 152.498175 213.823467 
L 165.179993 211.512054 
L 177.861811 209.19184 
L 190.543629 206.863427 
L 203.225447 204.527411 
L 215.907266 202.184375 
L 228.589084 199.834893 
L 241.270902 197.479528 
L 253.95272 195.118834 
L 266.634538 192.75335 
L 279.316357 190.383609 
L 291.998175 188.01013 
L 304.679993 185.633423 
L 317.361811 183.253986 
L 330.043629 180.872307 
L 342.725447 178.488864 
L 355.407266 176.104124 
L 368.089084 173.718545 
" clip-path="url(#peda1c86b37)" style="fill: none; stroke: #d55e00; stroke-width: 2; stroke-linecap: square"/>
   </g>
   <g id="line2d_27">
    <path d="M 63.725447 229.799931 
L 76.407266 227.662242 
L 89.089084 225.516162 
L 101.770902 223.359322 
L 114.45272 221.191733 
L 127.134538 219.013788 
L 139.816357 216.825982 
L 152.498175 214.628844 
L 165.179993 212.422909 
L 177.861811 210.208713 
L 190.543629 207.986784 
L 203.225447 205.757647 
L 215.907266 203.521816 
L 228.589084 201.279798 
L 241.270902 199.03209 
L 253.95272 196.779181 
L 266.634538 194.52155 
L 279.316357 192.259668 
L 291.998175 189.993995 
L 304.679993 187.724985 
L 317.361811 185.45308 
L 330.043629 183.178716 
L 342.725447 180.902317 
L 355.407266 178.624302 
L 368.089084 176.345077 
" clip-path="url(#peda1c86b37)" style="fill: none; stroke: #cc78bc; stroke-width: 2; stroke-linecap: square"/>
   </g>
   <g id="line2d_28">
    <path d="M 63.725447 231.162935 
L 76.407266 230.558052 
L 89.089084 229.953227 
L 101.770902 229.347625 
L 114.45272 228.741094 
L 127.134538 228.133592 
L 139.816357 227.525109 
L 152.498175 226.915648 
L 165.179993 226.305216 
L 177.861811 225.693824 
L 190.543629 225.081483 
L 203.225447 224.468205 
L 215.907266 223.854003 
L 228.589084 223.23889 
L 241.270902 222.622879 
L 253.95272 222.005984 
L 266.634538 221.388217 
L 279.316357 220.769592 
L 291.998175 220.150122 
L 304.679993 219.529821 
L 317.361811 218.908701 
L 330.043629 218.286777 
L 342.725447 217.66406 
L 355.407266 217.040564 
L 368.089084 216.416302 
" clip-path="url(#peda1c86b37)" style="fill: none; stroke: #ca9161; stroke-width: 2; stroke-linecap: square"/>
   </g>
   <g id="line2d_29">
    <path d="M 63.725447 231.253718 
L 76.407266 230.750486 
L 89.089084 230.247447 
L 101.770902 229.743905 
L 114.45272 229.239728 
L 127.134538 228.734878 
L 139.816357 228.229343 
L 152.498175 227.723122 
L 165.179993 227.216217 
L 177.861811 226.708634 
L 190.543629 226.200377 
L 203.225447 225.691455 
L 215.907266 225.181875 
L 228.589084 224.671642 
L 241.270902 224.160766 
L 253.95272 223.649254 
L 266.634538 223.137113 
L 279.316357 222.624351 
L 291.998175 222.110975 
L 304.679993 221.596995 
L 317.361811 221.082416 
L 330.043629 220.567247 
L 342.725447 220.051496 
L 355.407266 219.53517 
L 368.089084 219.018277 
" clip-path="url(#peda1c86b37)" style="fill: none; stroke: #fbafe4; stroke-width: 2; stroke-linecap: square"/>
   </g>
   <g id="line2d_30">
    <path d="M 63.725447 231.27341 
L 76.407266 230.792219 
L 89.089084 230.311244 
L 101.770902 229.829818 
L 114.45272 229.347813 
L 127.134538 228.865193 
L 139.816357 228.381947 
L 152.498175 227.89807 
L 165.179993 227.413567 
L 177.861811 226.92844 
L 190.543629 226.442696 
L 203.225447 225.956338 
L 215.907266 225.469375 
L 228.589084 224.981812 
L 241.270902 224.493656 
L 253.95272 224.004913 
L 266.634538 223.51559 
L 279.316357 223.025695 
L 291.998175 222.535232 
L 304.679993 222.044211 
L 317.361811 221.552636 
L 330.043629 221.060515 
L 342.725447 220.567855 
L 355.407266 220.074662 
L 368.089084 219.580943 
" clip-path="url(#peda1c86b37)" style="fill: none; stroke: #949494; stroke-width: 2; stroke-linecap: square"/>
   </g>
   <g id="line2d_31">
    <path d="M 63.725447 231.328472 
L 76.407266 230.908898 
L 89.089084 230.489588 
L 101.770902 230.069957 
L 114.45272 229.649893 
L 127.134538 229.229363 
L 139.816357 228.808354 
L 152.498175 228.386864 
L 165.179993 227.964892 
L 177.861811 227.54244 
L 190.543629 227.119512 
L 203.225447 226.696111 
L 215.907266 226.272241 
L 228.589084 225.847907 
L 241.270902 225.423112 
L 253.95272 224.99786 
L 266.634538 224.572157 
L 279.316357 224.146007 
L 291.998175 223.719413 
L 304.679993 223.292382 
L 317.361811 222.864916 
L 330.043629 222.437022 
L 342.725447 222.008702 
L 355.407266 221.579962 
L 368.089084 221.150807 
" clip-path="url(#peda1c86b37)" style="fill: none; stroke: #ece133; stroke-width: 2; stroke-linecap: square"/>
   </g>
   <g id="line2d_32">
    <path d="M 63.725447 231.698114 
L 76.407266 231.691637 
L 89.089084 231.685173 
L 101.770902 231.678711 
L 114.45272 231.672251 
L 127.134538 231.665791 
L 139.816357 231.659331 
L 152.498175 231.652872 
L 165.179993 231.646412 
L 177.861811 231.639952 
L 190.543629 231.633493 
L 203.225447 231.627033 
L 215.907266 231.620573 
L 228.589084 231.614113 
L 241.270902 231.607653 
L 253.95272 231.601193 
L 266.634538 231.594732 
L 279.316357 231.588272 
L 291.998175 231.581811 
L 304.679993 231.575351 
L 317.361811 231.56889 
L 330.043629 231.562429 
L 342.725447 231.555968 
L 355.407266 231.549507 
L 368.089084 231.543046 
" clip-path="url(#peda1c86b37)" style="fill: none; stroke: #56b4e9; stroke-width: 2; stroke-linecap: square"/>
   </g>
   <g id="line2d_33"/>
   <g id="line2d_34"/>
   <g id="line2d_35"/>
   <g id="line2d_36"/>
   <g id="line2d_37"/>
   <g id="line2d_38"/>
   <g id="line2d_39"/>
   <g id="line2d_40"/>
   <g id="line2d_41"/>
   <g id="line2d_42"/>
   <g id="patch_3">
    <path d="M 48.507266 241.58175 
L 48.507266 24.14175 
" style="fill: none; stroke: #000000; stroke-width: 0.8; stroke-linejoin: miter; stroke-linecap: square"/>
   </g>
   <g id="patch_4">
    <path d="M 48.507266 241.58175 
L 383.307266 241.58175 
" style="fill: none; stroke: #000000; stroke-width: 0.8; stroke-linejoin: miter; stroke-linecap: square"/>
   </g>
   <g id="text_14">
    <!-- Types of Plants - Pairwise -->
    <g transform="translate(125.581016 18.14175)scale(0.144 -0.144)">
     <defs>
      <path id="DejaVuSans-79" d="M 2059 -325 
Q 1816 -950 1584 -1140 
Q 1353 -1331 966 -1331 
L 506 -1331 
L 506 -850 
L 844 -850 
Q 1081 -850 1212 -737 
Q 1344 -625 1503 -206 
L 1606 56 
L 191 3500 
L 800 3500 
L 1894 763 
L 2988 3500 
L 3597 3500 
L 2059 -325 
z
" transform="scale(0.015625)"/>
      <path id="DejaVuSans-70" d="M 1159 525 
L 1159 -1331 
L 581 -1331 
L 581 3500 
L 1159 3500 
L 1159 2969 
Q 1341 3281 1617 3432 
Q 1894 3584 2278 3584 
Q 2916 3584 3314 3078 
Q 3713 2572 3713 1747 
Q 3713 922 3314 415 
Q 2916 -91 2278 -91 
Q 1894 -91 1617 61 
Q 1341 213 1159 525 
z
M 3116 1747 
Q 3116 2381 2855 2742 
Q 2594 3103 2138 3103 
Q 1681 3103 1420 2742 
Q 1159 2381 1159 1747 
Q 1159 1113 1420 752 
Q 1681 391 2138 391 
Q 2594 391 2855 752 
Q 3116 1113 3116 1747 
z
" transform="scale(0.015625)"/>
      <path id="DejaVuSans-66" d="M 2375 4863 
L 2375 4384 
L 1825 4384 
Q 1516 4384 1395 4259 
Q 1275 4134 1275 3809 
L 1275 3500 
L 2222 3500 
L 2222 3053 
L 1275 3053 
L 1275 0 
L 697 0 
L 697 3053 
L 147 3053 
L 147 3500 
L 697 3500 
L 697 3744 
Q 697 4328 969 4595 
Q 1241 4863 1831 4863 
L 2375 4863 
z
" transform="scale(0.015625)"/>
      <path id="DejaVuSans-2d" d="M 313 2009 
L 1997 2009 
L 1997 1497 
L 313 1497 
L 313 2009 
z
" transform="scale(0.015625)"/>
     </defs>
     <use xlink:href="#DejaVuSans-54"/>
     <use xlink:href="#DejaVuSans-79" x="45.458984"/>
     <use xlink:href="#DejaVuSans-70" x="104.638672"/>
     <use xlink:href="#DejaVuSans-65" x="168.115234"/>
     <use xlink:href="#DejaVuSans-73" x="229.638672"/>
     <use xlink:href="#DejaVuSans-20" x="281.738281"/>
     <use xlink:href="#DejaVuSans-6f" x="313.525391"/>
     <use xlink:href="#DejaVuSans-66" x="374.707031"/>
     <use xlink:href="#DejaVuSans-20" x="409.912109"/>
     <use xlink:href="#DejaVuSans-50" x="441.699219"/>
     <use xlink:href="#DejaVuSans-6c" x="502.001953"/>
     <use xlink:href="#DejaVuSans-61" x="529.785156"/>
     <use xlink:href="#DejaVuSans-6e" x="591.064453"/>
     <use xlink:href="#DejaVuSans-74" x="654.443359"/>
     <use xlink:href="#DejaVuSans-73" x="693.652344"/>
     <use xlink:href="#DejaVuSans-20" x="745.751953"/>
     <use xlink:href="#DejaVuSans-2d" x="777.539062"/>
     <use xlink:href="#DejaVuSans-20" x="813.623047"/>
     <use xlink:href="#DejaVuSans-50" x="845.410156"/>
     <use xlink:href="#DejaVuSans-61" x="901.212891"/>
     <use xlink:href="#DejaVuSans-69" x="962.492188"/>
     <use xlink:href="#DejaVuSans-72" x="990.275391"/>
     <use xlink:href="#DejaVuSans-77" x="1031.388672"/>
     <use xlink:href="#DejaVuSans-69" x="1113.175781"/>
     <use xlink:href="#DejaVuSans-73" x="1140.958984"/>
     <use xlink:href="#DejaVuSans-65" x="1193.058594"/>
    </g>
   </g>
   <g id="legend_1">
    <g id="line2d_43">
     <path d="M 38.602736 294.160066 
L 45.542736 294.160066 
L 52.482736 294.160066 
" style="fill: none; stroke: #0173b2; stroke-width: 2; stroke-linecap: square"/>
    </g>
    <g id="text_15">
     <!-- 11 to 20 vs 21 to 30 -->
     <g transform="translate(58.034736 296.589066)scale(0.0694 -0.0694)">
      <use xlink:href="#DejaVuSans-31"/>
      <use xlink:href="#DejaVuSans-31" x="63.623047"/>
      <use xlink:href="#DejaVuSans-20" x="127.246094"/>
      <use xlink:href="#DejaVuSans-74" x="159.033203"/>
      <use xlink:href="#DejaVuSans-6f" x="198.242188"/>
      <use xlink:href="#DejaVuSans-20" x="259.423828"/>
      <use xlink:href="#DejaVuSans-32" x="291.210938"/>
      <use xlink:href="#DejaVuSans-30" x="354.833984"/>
      <use xlink:href="#DejaVuSans-20" x="418.457031"/>
      <use xlink:href="#DejaVuSans-76" x="450.244141"/>
      <use xlink:href="#DejaVuSans-73" x="509.423828"/>
      <use xlink:href="#DejaVuSans-20" x="561.523438"/>
      <use xlink:href="#DejaVuSans-32" x="593.310547"/>
      <use xlink:href="#DejaVuSans-31" x="656.933594"/>
      <use xlink:href="#DejaVuSans-20" x="720.556641"/>
      <use xlink:href="#DejaVuSans-74" x="752.34375"/>
      <use xlink:href="#DejaVuSans-6f" x="791.552734"/>
      <use xlink:href="#DejaVuSans-20" x="852.734375"/>
      <use xlink:href="#DejaVuSans-33" x="884.521484"/>
      <use xlink:href="#DejaVuSans-30" x="948.144531"/>
     </g>
    </g>
    <g id="line2d_44">
     <path d="M 38.602736 304.346684 
L 45.542736 304.346684 
L 52.482736 304.346684 
" style="fill: none; stroke: #de8f05; stroke-width: 2; stroke-linecap: square"/>
    </g>
    <g id="text_16">
     <!-- 11 to 20 vs Less than 5 -->
     <g transform="translate(58.034736 306.775684)scale(0.0694 -0.0694)">
      <defs>
       <path id="DejaVuSans-4c" d="M 628 4666 
L 1259 4666 
L 1259 531 
L 3531 531 
L 3531 0 
L 628 0 
L 628 4666 
z
" transform="scale(0.015625)"/>
       <path id="DejaVuSans-68" d="M 3513 2113 
L 3513 0 
L 2938 0 
L 2938 2094 
Q 2938 2591 2744 2837 
Q 2550 3084 2163 3084 
Q 1697 3084 1428 2787 
Q 1159 2491 1159 1978 
L 1159 0 
L 581 0 
L 581 4863 
L 1159 4863 
L 1159 2956 
Q 1366 3272 1645 3428 
Q 1925 3584 2291 3584 
Q 2894 3584 3203 3211 
Q 3513 2838 3513 2113 
z
" transform="scale(0.015625)"/>
      </defs>
      <use xlink:href="#DejaVuSans-31"/>
      <use xlink:href="#DejaVuSans-31" x="63.623047"/>
      <use xlink:href="#DejaVuSans-20" x="127.246094"/>
      <use xlink:href="#DejaVuSans-74" x="159.033203"/>
      <use xlink:href="#DejaVuSans-6f" x="198.242188"/>
      <use xlink:href="#DejaVuSans-20" x="259.423828"/>
      <use xlink:href="#DejaVuSans-32" x="291.210938"/>
      <use xlink:href="#DejaVuSans-30" x="354.833984"/>
      <use xlink:href="#DejaVuSans-20" x="418.457031"/>
      <use xlink:href="#DejaVuSans-76" x="450.244141"/>
      <use xlink:href="#DejaVuSans-73" x="509.423828"/>
      <use xlink:href="#DejaVuSans-20" x="561.523438"/>
      <use xlink:href="#DejaVuSans-4c" x="593.310547"/>
      <use xlink:href="#DejaVuSans-65" x="647.273438"/>
      <use xlink:href="#DejaVuSans-73" x="708.796875"/>
      <use xlink:href="#DejaVuSans-73" x="760.896484"/>
      <use xlink:href="#DejaVuSans-20" x="812.996094"/>
      <use xlink:href="#DejaVuSans-74" x="844.783203"/>
      <use xlink:href="#DejaVuSans-68" x="883.992188"/>
      <use xlink:href="#DejaVuSans-61" x="947.371094"/>
      <use xlink:href="#DejaVuSans-6e" x="1008.650391"/>
      <use xlink:href="#DejaVuSans-20" x="1072.029297"/>
      <use xlink:href="#DejaVuSans-35" x="1103.816406"/>
     </g>
    </g>
    <g id="line2d_45">
     <path d="M 38.602736 314.533303 
L 45.542736 314.533303 
L 52.482736 314.533303 
" style="fill: none; stroke: #029e73; stroke-width: 2; stroke-linecap: square"/>
    </g>
    <g id="text_17">
     <!-- 11 to 20 vs 6 to 10 -->
     <g transform="translate(58.034736 316.962303)scale(0.0694 -0.0694)">
      <defs>
       <path id="DejaVuSans-36" d="M 2113 2584 
Q 1688 2584 1439 2293 
Q 1191 2003 1191 1497 
Q 1191 994 1439 701 
Q 1688 409 2113 409 
Q 2538 409 2786 701 
Q 3034 994 3034 1497 
Q 3034 2003 2786 2293 
Q 2538 2584 2113 2584 
z
M 3366 4563 
L 3366 3988 
Q 3128 4100 2886 4159 
Q 2644 4219 2406 4219 
Q 1781 4219 1451 3797 
Q 1122 3375 1075 2522 
Q 1259 2794 1537 2939 
Q 1816 3084 2150 3084 
Q 2853 3084 3261 2657 
Q 3669 2231 3669 1497 
Q 3669 778 3244 343 
Q 2819 -91 2113 -91 
Q 1303 -91 875 529 
Q 447 1150 447 2328 
Q 447 3434 972 4092 
Q 1497 4750 2381 4750 
Q 2619 4750 2861 4703 
Q 3103 4656 3366 4563 
z
" transform="scale(0.015625)"/>
      </defs>
      <use xlink:href="#DejaVuSans-31"/>
      <use xlink:href="#DejaVuSans-31" x="63.623047"/>
      <use xlink:href="#DejaVuSans-20" x="127.246094"/>
      <use xlink:href="#DejaVuSans-74" x="159.033203"/>
      <use xlink:href="#DejaVuSans-6f" x="198.242188"/>
      <use xlink:href="#DejaVuSans-20" x="259.423828"/>
      <use xlink:href="#DejaVuSans-32" x="291.210938"/>
      <use xlink:href="#DejaVuSans-30" x="354.833984"/>
      <use xlink:href="#DejaVuSans-20" x="418.457031"/>
      <use xlink:href="#DejaVuSans-76" x="450.244141"/>
      <use xlink:href="#DejaVuSans-73" x="509.423828"/>
      <use xlink:href="#DejaVuSans-20" x="561.523438"/>
      <use xlink:href="#DejaVuSans-36" x="593.310547"/>
      <use xlink:href="#DejaVuSans-20" x="656.933594"/>
      <use xlink:href="#DejaVuSans-74" x="688.720703"/>
      <use xlink:href="#DejaVuSans-6f" x="727.929688"/>
      <use xlink:href="#DejaVuSans-20" x="789.111328"/>
      <use xlink:href="#DejaVuSans-31" x="820.898438"/>
      <use xlink:href="#DejaVuSans-30" x="884.521484"/>
     </g>
    </g>
    <g id="line2d_46">
     <path d="M 38.602736 324.719922 
L 45.542736 324.719922 
L 52.482736 324.719922 
" style="fill: none; stroke: #d55e00; stroke-width: 2; stroke-linecap: square"/>
    </g>
    <g id="text_18">
     <!-- 11 to 20 vs More than 30 -->
     <g transform="translate(58.034736 327.148922)scale(0.0694 -0.0694)">
      <defs>
       <path id="DejaVuSans-4d" d="M 628 4666 
L 1569 4666 
L 2759 1491 
L 3956 4666 
L 4897 4666 
L 4897 0 
L 4281 0 
L 4281 4097 
L 3078 897 
L 2444 897 
L 1241 4097 
L 1241 0 
L 628 0 
L 628 4666 
z
" transform="scale(0.015625)"/>
      </defs>
      <use xlink:href="#DejaVuSans-31"/>
      <use xlink:href="#DejaVuSans-31" x="63.623047"/>
      <use xlink:href="#DejaVuSans-20" x="127.246094"/>
      <use xlink:href="#DejaVuSans-74" x="159.033203"/>
      <use xlink:href="#DejaVuSans-6f" x="198.242188"/>
      <use xlink:href="#DejaVuSans-20" x="259.423828"/>
      <use xlink:href="#DejaVuSans-32" x="291.210938"/>
      <use xlink:href="#DejaVuSans-30" x="354.833984"/>
      <use xlink:href="#DejaVuSans-20" x="418.457031"/>
      <use xlink:href="#DejaVuSans-76" x="450.244141"/>
      <use xlink:href="#DejaVuSans-73" x="509.423828"/>
      <use xlink:href="#DejaVuSans-20" x="561.523438"/>
      <use xlink:href="#DejaVuSans-4d" x="593.310547"/>
      <use xlink:href="#DejaVuSans-6f" x="679.589844"/>
      <use xlink:href="#DejaVuSans-72" x="740.771484"/>
      <use xlink:href="#DejaVuSans-65" x="779.634766"/>
      <use xlink:href="#DejaVuSans-20" x="841.158203"/>
      <use xlink:href="#DejaVuSans-74" x="872.945312"/>
      <use xlink:href="#DejaVuSans-68" x="912.154297"/>
      <use xlink:href="#DejaVuSans-61" x="975.533203"/>
      <use xlink:href="#DejaVuSans-6e" x="1036.8125"/>
      <use xlink:href="#DejaVuSans-20" x="1100.191406"/>
      <use xlink:href="#DejaVuSans-33" x="1131.978516"/>
      <use xlink:href="#DejaVuSans-30" x="1195.601562"/>
     </g>
    </g>
    <g id="line2d_47">
     <path d="M 159.303433 294.160066 
L 166.243433 294.160066 
L 173.183433 294.160066 
" style="fill: none; stroke: #cc78bc; stroke-width: 2; stroke-linecap: square"/>
    </g>
    <g id="text_19">
     <!-- More than 30 vs 21 to 30 -->
     <g transform="translate(178.735433 296.589066)scale(0.0694 -0.0694)">
      <use xlink:href="#DejaVuSans-4d"/>
      <use xlink:href="#DejaVuSans-6f" x="86.279297"/>
      <use xlink:href="#DejaVuSans-72" x="147.460938"/>
      <use xlink:href="#DejaVuSans-65" x="186.324219"/>
      <use xlink:href="#DejaVuSans-20" x="247.847656"/>
      <use xlink:href="#DejaVuSans-74" x="279.634766"/>
      <use xlink:href="#DejaVuSans-68" x="318.84375"/>
      <use xlink:href="#DejaVuSans-61" x="382.222656"/>
      <use xlink:href="#DejaVuSans-6e" x="443.501953"/>
      <use xlink:href="#DejaVuSans-20" x="506.880859"/>
      <use xlink:href="#DejaVuSans-33" x="538.667969"/>
      <use xlink:href="#DejaVuSans-30" x="602.291016"/>
      <use xlink:href="#DejaVuSans-20" x="665.914062"/>
      <use xlink:href="#DejaVuSans-76" x="697.701172"/>
      <use xlink:href="#DejaVuSans-73" x="756.880859"/>
      <use xlink:href="#DejaVuSans-20" x="808.980469"/>
      <use xlink:href="#DejaVuSans-32" x="840.767578"/>
      <use xlink:href="#DejaVuSans-31" x="904.390625"/>
      <use xlink:href="#DejaVuSans-20" x="968.013672"/>
      <use xlink:href="#DejaVuSans-74" x="999.800781"/>
      <use xlink:href="#DejaVuSans-6f" x="1039.009766"/>
      <use xlink:href="#DejaVuSans-20" x="1100.191406"/>
      <use xlink:href="#DejaVuSans-33" x="1131.978516"/>
      <use xlink:href="#DejaVuSans-30" x="1195.601562"/>
     </g>
    </g>
    <g id="line2d_48">
     <path d="M 159.303433 304.346684 
L 166.243433 304.346684 
L 173.183433 304.346684 
" style="fill: none; stroke: #ca9161; stroke-width: 2; stroke-linecap: square"/>
    </g>
    <g id="text_20">
     <!-- More than 30 vs Less than 5 -->
     <g transform="translate(178.735433 306.775684)scale(0.0694 -0.0694)">
      <use xlink:href="#DejaVuSans-4d"/>
      <use xlink:href="#DejaVuSans-6f" x="86.279297"/>
      <use xlink:href="#DejaVuSans-72" x="147.460938"/>
      <use xlink:href="#DejaVuSans-65" x="186.324219"/>
      <use xlink:href="#DejaVuSans-20" x="247.847656"/>
      <use xlink:href="#DejaVuSans-74" x="279.634766"/>
      <use xlink:href="#DejaVuSans-68" x="318.84375"/>
      <use xlink:href="#DejaVuSans-61" x="382.222656"/>
      <use xlink:href="#DejaVuSans-6e" x="443.501953"/>
      <use xlink:href="#DejaVuSans-20" x="506.880859"/>
      <use xlink:href="#DejaVuSans-33" x="538.667969"/>
      <use xlink:href="#DejaVuSans-30" x="602.291016"/>
      <use xlink:href="#DejaVuSans-20" x="665.914062"/>
      <use xlink:href="#DejaVuSans-76" x="697.701172"/>
      <use xlink:href="#DejaVuSans-73" x="756.880859"/>
      <use xlink:href="#DejaVuSans-20" x="808.980469"/>
      <use xlink:href="#DejaVuSans-4c" x="840.767578"/>
      <use xlink:href="#DejaVuSans-65" x="894.730469"/>
      <use xlink:href="#DejaVuSans-73" x="956.253906"/>
      <use xlink:href="#DejaVuSans-73" x="1008.353516"/>
      <use xlink:href="#DejaVuSans-20" x="1060.453125"/>
      <use xlink:href="#DejaVuSans-74" x="1092.240234"/>
      <use xlink:href="#DejaVuSans-68" x="1131.449219"/>
      <use xlink:href="#DejaVuSans-61" x="1194.828125"/>
      <use xlink:href="#DejaVuSans-6e" x="1256.107422"/>
      <use xlink:href="#DejaVuSans-20" x="1319.486328"/>
      <use xlink:href="#DejaVuSans-35" x="1351.273438"/>
     </g>
    </g>
    <g id="line2d_49">
     <path d="M 159.303433 314.533303 
L 166.243433 314.533303 
L 173.183433 314.533303 
" style="fill: none; stroke: #fbafe4; stroke-width: 2; stroke-linecap: square"/>
    </g>
    <g id="text_21">
     <!-- 6 to 10 vs 21 to 30 -->
     <g transform="translate(178.735433 316.962303)scale(0.0694 -0.0694)">
      <use xlink:href="#DejaVuSans-36"/>
      <use xlink:href="#DejaVuSans-20" x="63.623047"/>
      <use xlink:href="#DejaVuSans-74" x="95.410156"/>
      <use xlink:href="#DejaVuSans-6f" x="134.619141"/>
      <use xlink:href="#DejaVuSans-20" x="195.800781"/>
      <use xlink:href="#DejaVuSans-31" x="227.587891"/>
      <use xlink:href="#DejaVuSans-30" x="291.210938"/>
      <use xlink:href="#DejaVuSans-20" x="354.833984"/>
      <use xlink:href="#DejaVuSans-76" x="386.621094"/>
      <use xlink:href="#DejaVuSans-73" x="445.800781"/>
      <use xlink:href="#DejaVuSans-20" x="497.900391"/>
      <use xlink:href="#DejaVuSans-32" x="529.6875"/>
      <use xlink:href="#DejaVuSans-31" x="593.310547"/>
      <use xlink:href="#DejaVuSans-20" x="656.933594"/>
      <use xlink:href="#DejaVuSans-74" x="688.720703"/>
      <use xlink:href="#DejaVuSans-6f" x="727.929688"/>
      <use xlink:href="#DejaVuSans-20" x="789.111328"/>
      <use xlink:href="#DejaVuSans-33" x="820.898438"/>
      <use xlink:href="#DejaVuSans-30" x="884.521484"/>
     </g>
    </g>
    <g id="line2d_50">
     <path d="M 290.806673 294.160066 
L 297.746673 294.160066 
L 304.686673 294.160066 
" style="fill: none; stroke: #949494; stroke-width: 2; stroke-linecap: square"/>
    </g>
    <g id="text_22">
     <!-- More than 30 vs 6 to 10 -->
     <g transform="translate(310.238673 296.589066)scale(0.0694 -0.0694)">
      <use xlink:href="#DejaVuSans-4d"/>
      <use xlink:href="#DejaVuSans-6f" x="86.279297"/>
      <use xlink:href="#DejaVuSans-72" x="147.460938"/>
      <use xlink:href="#DejaVuSans-65" x="186.324219"/>
      <use xlink:href="#DejaVuSans-20" x="247.847656"/>
      <use xlink:href="#DejaVuSans-74" x="279.634766"/>
      <use xlink:href="#DejaVuSans-68" x="318.84375"/>
      <use xlink:href="#DejaVuSans-61" x="382.222656"/>
      <use xlink:href="#DejaVuSans-6e" x="443.501953"/>
      <use xlink:href="#DejaVuSans-20" x="506.880859"/>
      <use xlink:href="#DejaVuSans-33" x="538.667969"/>
      <use xlink:href="#DejaVuSans-30" x="602.291016"/>
      <use xlink:href="#DejaVuSans-20" x="665.914062"/>
      <use xlink:href="#DejaVuSans-76" x="697.701172"/>
      <use xlink:href="#DejaVuSans-73" x="756.880859"/>
      <use xlink:href="#DejaVuSans-20" x="808.980469"/>
      <use xlink:href="#DejaVuSans-36" x="840.767578"/>
      <use xlink:href="#DejaVuSans-20" x="904.390625"/>
      <use xlink:href="#DejaVuSans-74" x="936.177734"/>
      <use xlink:href="#DejaVuSans-6f" x="975.386719"/>
      <use xlink:href="#DejaVuSans-20" x="1036.568359"/>
      <use xlink:href="#DejaVuSans-31" x="1068.355469"/>
      <use xlink:href="#DejaVuSans-30" x="1131.978516"/>
     </g>
    </g>
    <g id="line2d_51">
     <path d="M 290.806673 304.346684 
L 297.746673 304.346684 
L 304.686673 304.346684 
" style="fill: none; stroke: #ece133; stroke-width: 2; stroke-linecap: square"/>
    </g>
    <g id="text_23">
     <!-- Less than 5 vs 21 to 30 -->
     <g transform="translate(310.238673 306.775684)scale(0.0694 -0.0694)">
      <use xlink:href="#DejaVuSans-4c"/>
      <use xlink:href="#DejaVuSans-65" x="53.962891"/>
      <use xlink:href="#DejaVuSans-73" x="115.486328"/>
      <use xlink:href="#DejaVuSans-73" x="167.585938"/>
      <use xlink:href="#DejaVuSans-20" x="219.685547"/>
      <use xlink:href="#DejaVuSans-74" x="251.472656"/>
      <use xlink:href="#DejaVuSans-68" x="290.681641"/>
      <use xlink:href="#DejaVuSans-61" x="354.060547"/>
      <use xlink:href="#DejaVuSans-6e" x="415.339844"/>
      <use xlink:href="#DejaVuSans-20" x="478.71875"/>
      <use xlink:href="#DejaVuSans-35" x="510.505859"/>
      <use xlink:href="#DejaVuSans-20" x="574.128906"/>
      <use xlink:href="#DejaVuSans-76" x="605.916016"/>
      <use xlink:href="#DejaVuSans-73" x="665.095703"/>
      <use xlink:href="#DejaVuSans-20" x="717.195312"/>
      <use xlink:href="#DejaVuSans-32" x="748.982422"/>
      <use xlink:href="#DejaVuSans-31" x="812.605469"/>
      <use xlink:href="#DejaVuSans-20" x="876.228516"/>
      <use xlink:href="#DejaVuSans-74" x="908.015625"/>
      <use xlink:href="#DejaVuSans-6f" x="947.224609"/>
      <use xlink:href="#DejaVuSans-20" x="1008.40625"/>
      <use xlink:href="#DejaVuSans-33" x="1040.193359"/>
      <use xlink:href="#DejaVuSans-30" x="1103.816406"/>
     </g>
    </g>
    <g id="line2d_52">
     <path d="M 290.806673 314.533303 
L 297.746673 314.533303 
L 304.686673 314.533303 
" style="fill: none; stroke: #56b4e9; stroke-width: 2; stroke-linecap: square"/>
    </g>
    <g id="text_24">
     <!-- 6 to 10 vs Less than 5 -->
     <g transform="translate(310.238673 316.962303)scale(0.0694 -0.0694)">
      <use xlink:href="#DejaVuSans-36"/>
      <use xlink:href="#DejaVuSans-20" x="63.623047"/>
      <use xlink:href="#DejaVuSans-74" x="95.410156"/>
      <use xlink:href="#DejaVuSans-6f" x="134.619141"/>
      <use xlink:href="#DejaVuSans-20" x="195.800781"/>
      <use xlink:href="#DejaVuSans-31" x="227.587891"/>
      <use xlink:href="#DejaVuSans-30" x="291.210938"/>
      <use xlink:href="#DejaVuSans-20" x="354.833984"/>
      <use xlink:href="#DejaVuSans-76" x="386.621094"/>
      <use xlink:href="#DejaVuSans-73" x="445.800781"/>
      <use xlink:href="#DejaVuSans-20" x="497.900391"/>
      <use xlink:href="#DejaVuSans-4c" x="529.6875"/>
      <use xlink:href="#DejaVuSans-65" x="583.650391"/>
      <use xlink:href="#DejaVuSans-73" x="645.173828"/>
      <use xlink:href="#DejaVuSans-73" x="697.273438"/>
      <use xlink:href="#DejaVuSans-20" x="749.373047"/>
      <use xlink:href="#DejaVuSans-74" x="781.160156"/>
      <use xlink:href="#DejaVuSans-68" x="820.369141"/>
      <use xlink:href="#DejaVuSans-61" x="883.748047"/>
      <use xlink:href="#DejaVuSans-6e" x="945.027344"/>
      <use xlink:href="#DejaVuSans-20" x="1008.40625"/>
      <use xlink:href="#DejaVuSans-35" x="1040.193359"/>
     </g>
    </g>
   </g>
  </g>
 </g>
 <defs>
  <clipPath id="peda1c86b37">
   <rect x="48.507266" y="24.14175" width="334.8" height="217.44"/>
  </clipPath>
 </defs>
</svg>
