<?xml version="1.0" encoding="utf-8" standalone="no"?>
<!DOCTYPE svg PUBLIC "-//W3C//DTD SVG 1.1//EN"
  "http://www.w3.org/Graphics/SVG/1.1/DTD/svg11.dtd">
<svg xmlns:xlink="http://www.w3.org/1999/xlink" width="401.78353pt" height="338.568225pt" viewBox="0 0 401.78353 338.568225" xmlns="http://www.w3.org/2000/svg" version="1.1">
 <metadata>
  <rdf:RDF xmlns:dc="http://purl.org/dc/elements/1.1/" xmlns:cc="http://creativecommons.org/ns#" xmlns:rdf="http://www.w3.org/1999/02/22-rdf-syntax-ns#">
   <cc:Work>
    <dc:type rdf:resource="http://purl.org/dc/dcmitype/StillImage"/>
    <dc:date>2022-03-03T17:04:23.804289</dc:date>
    <dc:format>image/svg+xml</dc:format>
    <dc:creator>
     <cc:Agent>
      <dc:title>Matplotlib v3.5.1, https://matplotlib.org/</dc:title>
     </cc:Agent>
    </dc:creator>
   </cc:Work>
  </rdf:RDF>
 </metadata>
 <defs>
  <style type="text/css">*{stroke-linejoin: round; stroke-linecap: butt}</style>
 </defs>
 <g id="figure_1">
  <g id="patch_1">
   <path d="M 0 338.568225 
L 401.78353 338.568225 
L 401.78353 0 
L 0 0 
z
" style="fill: #ffffff"/>
  </g>
  <g id="axes_1">
   <g id="patch_2">
    <path d="M 48.507266 241.58175 
L 383.307266 241.58175 
L 383.307266 24.14175 
L 48.507266 24.14175 
z
" style="fill: #ffffff"/>
   </g>
   <g id="matplotlib.axis_1">
    <g id="xtick_1">
     <g id="line2d_1">
      <path d="M 51.043629 241.58175 
L 51.043629 24.14175 
" clip-path="url(#pf4c6a12a4a)" style="fill: none; stroke: #b0b0b0; stroke-width: 0.3; stroke-linecap: square"/>
     </g>
     <g id="line2d_2">
      <defs>
       <path id="m70ac0dd707" d="M 0 0 
L 0 3.5 
" style="stroke: #000000; stroke-width: 0.8"/>
      </defs>
      <g>
       <use xlink:href="#m70ac0dd707" x="51.043629" y="241.58175" style="stroke: #000000; stroke-width: 0.8"/>
      </g>
     </g>
     <g id="text_1">
      <!-- 0 -->
      <g transform="translate(48.393648 254.911248)scale(0.0833 -0.0833)">
       <defs>
        <path id="DejaVuSans-30" d="M 2034 4250 
Q 1547 4250 1301 3770 
Q 1056 3291 1056 2328 
Q 1056 1369 1301 889 
Q 1547 409 2034 409 
Q 2525 409 2770 889 
Q 3016 1369 3016 2328 
Q 3016 3291 2770 3770 
Q 2525 4250 2034 4250 
z
M 2034 4750 
Q 2819 4750 3233 4129 
Q 3647 3509 3647 2328 
Q 3647 1150 3233 529 
Q 2819 -91 2034 -91 
Q 1250 -91 836 529 
Q 422 1150 422 2328 
Q 422 3509 836 4129 
Q 1250 4750 2034 4750 
z
" transform="scale(0.015625)"/>
       </defs>
       <use xlink:href="#DejaVuSans-30"/>
      </g>
     </g>
    </g>
    <g id="xtick_2">
     <g id="line2d_3">
      <path d="M 114.45272 241.58175 
L 114.45272 24.14175 
" clip-path="url(#pf4c6a12a4a)" style="fill: none; stroke: #b0b0b0; stroke-width: 0.3; stroke-linecap: square"/>
     </g>
     <g id="line2d_4">
      <g>
       <use xlink:href="#m70ac0dd707" x="114.45272" y="241.58175" style="stroke: #000000; stroke-width: 0.8"/>
      </g>
     </g>
     <g id="text_2">
      <!-- 100 -->
      <g transform="translate(106.502776 254.911248)scale(0.0833 -0.0833)">
       <defs>
        <path id="DejaVuSans-31" d="M 794 531 
L 1825 531 
L 1825 4091 
L 703 3866 
L 703 4441 
L 1819 4666 
L 2450 4666 
L 2450 531 
L 3481 531 
L 3481 0 
L 794 0 
L 794 531 
z
" transform="scale(0.015625)"/>
       </defs>
       <use xlink:href="#DejaVuSans-31"/>
       <use xlink:href="#DejaVuSans-30" x="63.623047"/>
       <use xlink:href="#DejaVuSans-30" x="127.246094"/>
      </g>
     </g>
    </g>
    <g id="xtick_3">
     <g id="line2d_5">
      <path d="M 177.861811 241.58175 
L 177.861811 24.14175 
" clip-path="url(#pf4c6a12a4a)" style="fill: none; stroke: #b0b0b0; stroke-width: 0.3; stroke-linecap: square"/>
     </g>
     <g id="line2d_6">
      <g>
       <use xlink:href="#m70ac0dd707" x="177.861811" y="241.58175" style="stroke: #000000; stroke-width: 0.8"/>
      </g>
     </g>
     <g id="text_3">
      <!-- 200 -->
      <g transform="translate(169.911867 254.911248)scale(0.0833 -0.0833)">
       <defs>
        <path id="DejaVuSans-32" d="M 1228 531 
L 3431 531 
L 3431 0 
L 469 0 
L 469 531 
Q 828 903 1448 1529 
Q 2069 2156 2228 2338 
Q 2531 2678 2651 2914 
Q 2772 3150 2772 3378 
Q 2772 3750 2511 3984 
Q 2250 4219 1831 4219 
Q 1534 4219 1204 4116 
Q 875 4013 500 3803 
L 500 4441 
Q 881 4594 1212 4672 
Q 1544 4750 1819 4750 
Q 2544 4750 2975 4387 
Q 3406 4025 3406 3419 
Q 3406 3131 3298 2873 
Q 3191 2616 2906 2266 
Q 2828 2175 2409 1742 
Q 1991 1309 1228 531 
z
" transform="scale(0.015625)"/>
       </defs>
       <use xlink:href="#DejaVuSans-32"/>
       <use xlink:href="#DejaVuSans-30" x="63.623047"/>
       <use xlink:href="#DejaVuSans-30" x="127.246094"/>
      </g>
     </g>
    </g>
    <g id="xtick_4">
     <g id="line2d_7">
      <path d="M 241.270902 241.58175 
L 241.270902 24.14175 
" clip-path="url(#pf4c6a12a4a)" style="fill: none; stroke: #b0b0b0; stroke-width: 0.3; stroke-linecap: square"/>
     </g>
     <g id="line2d_8">
      <g>
       <use xlink:href="#m70ac0dd707" x="241.270902" y="241.58175" style="stroke: #000000; stroke-width: 0.8"/>
      </g>
     </g>
     <g id="text_4">
      <!-- 300 -->
      <g transform="translate(233.320958 254.911248)scale(0.0833 -0.0833)">
       <defs>
        <path id="DejaVuSans-33" d="M 2597 2516 
Q 3050 2419 3304 2112 
Q 3559 1806 3559 1356 
Q 3559 666 3084 287 
Q 2609 -91 1734 -91 
Q 1441 -91 1130 -33 
Q 819 25 488 141 
L 488 750 
Q 750 597 1062 519 
Q 1375 441 1716 441 
Q 2309 441 2620 675 
Q 2931 909 2931 1356 
Q 2931 1769 2642 2001 
Q 2353 2234 1838 2234 
L 1294 2234 
L 1294 2753 
L 1863 2753 
Q 2328 2753 2575 2939 
Q 2822 3125 2822 3475 
Q 2822 3834 2567 4026 
Q 2313 4219 1838 4219 
Q 1578 4219 1281 4162 
Q 984 4106 628 3988 
L 628 4550 
Q 988 4650 1302 4700 
Q 1616 4750 1894 4750 
Q 2613 4750 3031 4423 
Q 3450 4097 3450 3541 
Q 3450 3153 3228 2886 
Q 3006 2619 2597 2516 
z
" transform="scale(0.015625)"/>
       </defs>
       <use xlink:href="#DejaVuSans-33"/>
       <use xlink:href="#DejaVuSans-30" x="63.623047"/>
       <use xlink:href="#DejaVuSans-30" x="127.246094"/>
      </g>
     </g>
    </g>
    <g id="xtick_5">
     <g id="line2d_9">
      <path d="M 304.679993 241.58175 
L 304.679993 24.14175 
" clip-path="url(#pf4c6a12a4a)" style="fill: none; stroke: #b0b0b0; stroke-width: 0.3; stroke-linecap: square"/>
     </g>
     <g id="line2d_10">
      <g>
       <use xlink:href="#m70ac0dd707" x="304.679993" y="241.58175" style="stroke: #000000; stroke-width: 0.8"/>
      </g>
     </g>
     <g id="text_5">
      <!-- 400 -->
      <g transform="translate(296.730049 254.911248)scale(0.0833 -0.0833)">
       <defs>
        <path id="DejaVuSans-34" d="M 2419 4116 
L 825 1625 
L 2419 1625 
L 2419 4116 
z
M 2253 4666 
L 3047 4666 
L 3047 1625 
L 3713 1625 
L 3713 1100 
L 3047 1100 
L 3047 0 
L 2419 0 
L 2419 1100 
L 313 1100 
L 313 1709 
L 2253 4666 
z
" transform="scale(0.015625)"/>
       </defs>
       <use xlink:href="#DejaVuSans-34"/>
       <use xlink:href="#DejaVuSans-30" x="63.623047"/>
       <use xlink:href="#DejaVuSans-30" x="127.246094"/>
      </g>
     </g>
    </g>
    <g id="xtick_6">
     <g id="line2d_11">
      <path d="M 368.089084 241.58175 
L 368.089084 24.14175 
" clip-path="url(#pf4c6a12a4a)" style="fill: none; stroke: #b0b0b0; stroke-width: 0.3; stroke-linecap: square"/>
     </g>
     <g id="line2d_12">
      <g>
       <use xlink:href="#m70ac0dd707" x="368.089084" y="241.58175" style="stroke: #000000; stroke-width: 0.8"/>
      </g>
     </g>
     <g id="text_6">
      <!-- 500 -->
      <g transform="translate(360.13914 254.911248)scale(0.0833 -0.0833)">
       <defs>
        <path id="DejaVuSans-35" d="M 691 4666 
L 3169 4666 
L 3169 4134 
L 1269 4134 
L 1269 2991 
Q 1406 3038 1543 3061 
Q 1681 3084 1819 3084 
Q 2600 3084 3056 2656 
Q 3513 2228 3513 1497 
Q 3513 744 3044 326 
Q 2575 -91 1722 -91 
Q 1428 -91 1123 -41 
Q 819 9 494 109 
L 494 744 
Q 775 591 1075 516 
Q 1375 441 1709 441 
Q 2250 441 2565 725 
Q 2881 1009 2881 1497 
Q 2881 1984 2565 2268 
Q 2250 2553 1709 2553 
Q 1456 2553 1204 2497 
Q 953 2441 691 2322 
L 691 4666 
z
" transform="scale(0.015625)"/>
       </defs>
       <use xlink:href="#DejaVuSans-35"/>
       <use xlink:href="#DejaVuSans-30" x="63.623047"/>
       <use xlink:href="#DejaVuSans-30" x="127.246094"/>
      </g>
     </g>
    </g>
    <g id="text_7">
     <!-- Total Observations -->
     <g transform="translate(160.325703 269.761753)scale(0.12 -0.12)">
      <defs>
       <path id="DejaVuSans-54" d="M -19 4666 
L 3928 4666 
L 3928 4134 
L 2272 4134 
L 2272 0 
L 1638 0 
L 1638 4134 
L -19 4134 
L -19 4666 
z
" transform="scale(0.015625)"/>
       <path id="DejaVuSans-6f" d="M 1959 3097 
Q 1497 3097 1228 2736 
Q 959 2375 959 1747 
Q 959 1119 1226 758 
Q 1494 397 1959 397 
Q 2419 397 2687 759 
Q 2956 1122 2956 1747 
Q 2956 2369 2687 2733 
Q 2419 3097 1959 3097 
z
M 1959 3584 
Q 2709 3584 3137 3096 
Q 3566 2609 3566 1747 
Q 3566 888 3137 398 
Q 2709 -91 1959 -91 
Q 1206 -91 779 398 
Q 353 888 353 1747 
Q 353 2609 779 3096 
Q 1206 3584 1959 3584 
z
" transform="scale(0.015625)"/>
       <path id="DejaVuSans-74" d="M 1172 4494 
L 1172 3500 
L 2356 3500 
L 2356 3053 
L 1172 3053 
L 1172 1153 
Q 1172 725 1289 603 
Q 1406 481 1766 481 
L 2356 481 
L 2356 0 
L 1766 0 
Q 1100 0 847 248 
Q 594 497 594 1153 
L 594 3053 
L 172 3053 
L 172 3500 
L 594 3500 
L 594 4494 
L 1172 4494 
z
" transform="scale(0.015625)"/>
       <path id="DejaVuSans-61" d="M 2194 1759 
Q 1497 1759 1228 1600 
Q 959 1441 959 1056 
Q 959 750 1161 570 
Q 1363 391 1709 391 
Q 2188 391 2477 730 
Q 2766 1069 2766 1631 
L 2766 1759 
L 2194 1759 
z
M 3341 1997 
L 3341 0 
L 2766 0 
L 2766 531 
Q 2569 213 2275 61 
Q 1981 -91 1556 -91 
Q 1019 -91 701 211 
Q 384 513 384 1019 
Q 384 1609 779 1909 
Q 1175 2209 1959 2209 
L 2766 2209 
L 2766 2266 
Q 2766 2663 2505 2880 
Q 2244 3097 1772 3097 
Q 1472 3097 1187 3025 
Q 903 2953 641 2809 
L 641 3341 
Q 956 3463 1253 3523 
Q 1550 3584 1831 3584 
Q 2591 3584 2966 3190 
Q 3341 2797 3341 1997 
z
" transform="scale(0.015625)"/>
       <path id="DejaVuSans-6c" d="M 603 4863 
L 1178 4863 
L 1178 0 
L 603 0 
L 603 4863 
z
" transform="scale(0.015625)"/>
       <path id="DejaVuSans-20" transform="scale(0.015625)"/>
       <path id="DejaVuSans-4f" d="M 2522 4238 
Q 1834 4238 1429 3725 
Q 1025 3213 1025 2328 
Q 1025 1447 1429 934 
Q 1834 422 2522 422 
Q 3209 422 3611 934 
Q 4013 1447 4013 2328 
Q 4013 3213 3611 3725 
Q 3209 4238 2522 4238 
z
M 2522 4750 
Q 3503 4750 4090 4092 
Q 4678 3434 4678 2328 
Q 4678 1225 4090 567 
Q 3503 -91 2522 -91 
Q 1538 -91 948 565 
Q 359 1222 359 2328 
Q 359 3434 948 4092 
Q 1538 4750 2522 4750 
z
" transform="scale(0.015625)"/>
       <path id="DejaVuSans-62" d="M 3116 1747 
Q 3116 2381 2855 2742 
Q 2594 3103 2138 3103 
Q 1681 3103 1420 2742 
Q 1159 2381 1159 1747 
Q 1159 1113 1420 752 
Q 1681 391 2138 391 
Q 2594 391 2855 752 
Q 3116 1113 3116 1747 
z
M 1159 2969 
Q 1341 3281 1617 3432 
Q 1894 3584 2278 3584 
Q 2916 3584 3314 3078 
Q 3713 2572 3713 1747 
Q 3713 922 3314 415 
Q 2916 -91 2278 -91 
Q 1894 -91 1617 61 
Q 1341 213 1159 525 
L 1159 0 
L 581 0 
L 581 4863 
L 1159 4863 
L 1159 2969 
z
" transform="scale(0.015625)"/>
       <path id="DejaVuSans-73" d="M 2834 3397 
L 2834 2853 
Q 2591 2978 2328 3040 
Q 2066 3103 1784 3103 
Q 1356 3103 1142 2972 
Q 928 2841 928 2578 
Q 928 2378 1081 2264 
Q 1234 2150 1697 2047 
L 1894 2003 
Q 2506 1872 2764 1633 
Q 3022 1394 3022 966 
Q 3022 478 2636 193 
Q 2250 -91 1575 -91 
Q 1294 -91 989 -36 
Q 684 19 347 128 
L 347 722 
Q 666 556 975 473 
Q 1284 391 1588 391 
Q 1994 391 2212 530 
Q 2431 669 2431 922 
Q 2431 1156 2273 1281 
Q 2116 1406 1581 1522 
L 1381 1569 
Q 847 1681 609 1914 
Q 372 2147 372 2553 
Q 372 3047 722 3315 
Q 1072 3584 1716 3584 
Q 2034 3584 2315 3537 
Q 2597 3491 2834 3397 
z
" transform="scale(0.015625)"/>
       <path id="DejaVuSans-65" d="M 3597 1894 
L 3597 1613 
L 953 1613 
Q 991 1019 1311 708 
Q 1631 397 2203 397 
Q 2534 397 2845 478 
Q 3156 559 3463 722 
L 3463 178 
Q 3153 47 2828 -22 
Q 2503 -91 2169 -91 
Q 1331 -91 842 396 
Q 353 884 353 1716 
Q 353 2575 817 3079 
Q 1281 3584 2069 3584 
Q 2775 3584 3186 3129 
Q 3597 2675 3597 1894 
z
M 3022 2063 
Q 3016 2534 2758 2815 
Q 2500 3097 2075 3097 
Q 1594 3097 1305 2825 
Q 1016 2553 972 2059 
L 3022 2063 
z
" transform="scale(0.015625)"/>
       <path id="DejaVuSans-72" d="M 2631 2963 
Q 2534 3019 2420 3045 
Q 2306 3072 2169 3072 
Q 1681 3072 1420 2755 
Q 1159 2438 1159 1844 
L 1159 0 
L 581 0 
L 581 3500 
L 1159 3500 
L 1159 2956 
Q 1341 3275 1631 3429 
Q 1922 3584 2338 3584 
Q 2397 3584 2469 3576 
Q 2541 3569 2628 3553 
L 2631 2963 
z
" transform="scale(0.015625)"/>
       <path id="DejaVuSans-76" d="M 191 3500 
L 800 3500 
L 1894 563 
L 2988 3500 
L 3597 3500 
L 2284 0 
L 1503 0 
L 191 3500 
z
" transform="scale(0.015625)"/>
       <path id="DejaVuSans-69" d="M 603 3500 
L 1178 3500 
L 1178 0 
L 603 0 
L 603 3500 
z
M 603 4863 
L 1178 4863 
L 1178 4134 
L 603 4134 
L 603 4863 
z
" transform="scale(0.015625)"/>
       <path id="DejaVuSans-6e" d="M 3513 2113 
L 3513 0 
L 2938 0 
L 2938 2094 
Q 2938 2591 2744 2837 
Q 2550 3084 2163 3084 
Q 1697 3084 1428 2787 
Q 1159 2491 1159 1978 
L 1159 0 
L 581 0 
L 581 3500 
L 1159 3500 
L 1159 2956 
Q 1366 3272 1645 3428 
Q 1925 3584 2291 3584 
Q 2894 3584 3203 3211 
Q 3513 2838 3513 2113 
z
" transform="scale(0.015625)"/>
      </defs>
      <use xlink:href="#DejaVuSans-54"/>
      <use xlink:href="#DejaVuSans-6f" x="44.083984"/>
      <use xlink:href="#DejaVuSans-74" x="105.265625"/>
      <use xlink:href="#DejaVuSans-61" x="144.474609"/>
      <use xlink:href="#DejaVuSans-6c" x="205.753906"/>
      <use xlink:href="#DejaVuSans-20" x="233.537109"/>
      <use xlink:href="#DejaVuSans-4f" x="265.324219"/>
      <use xlink:href="#DejaVuSans-62" x="344.035156"/>
      <use xlink:href="#DejaVuSans-73" x="407.511719"/>
      <use xlink:href="#DejaVuSans-65" x="459.611328"/>
      <use xlink:href="#DejaVuSans-72" x="521.134766"/>
      <use xlink:href="#DejaVuSans-76" x="562.248047"/>
      <use xlink:href="#DejaVuSans-61" x="621.427734"/>
      <use xlink:href="#DejaVuSans-74" x="682.707031"/>
      <use xlink:href="#DejaVuSans-69" x="721.916016"/>
      <use xlink:href="#DejaVuSans-6f" x="749.699219"/>
      <use xlink:href="#DejaVuSans-6e" x="810.880859"/>
      <use xlink:href="#DejaVuSans-73" x="874.259766"/>
     </g>
    </g>
   </g>
   <g id="matplotlib.axis_2">
    <g id="ytick_1">
     <g id="line2d_13">
      <path d="M 48.507266 231.6986 
L 383.307266 231.6986 
" clip-path="url(#pf4c6a12a4a)" style="fill: none; stroke: #b0b0b0; stroke-width: 0.3; stroke-linecap: square"/>
     </g>
     <g id="line2d_14">
      <defs>
       <path id="m0c0e3b4b4a" d="M 0 0 
L -3.5 0 
" style="stroke: #000000; stroke-width: 0.8"/>
      </defs>
      <g>
       <use xlink:href="#m0c0e3b4b4a" x="48.507266" y="231.6986" style="stroke: #000000; stroke-width: 0.8"/>
      </g>
     </g>
     <g id="text_8">
      <!-- 0.05 -->
      <g transform="translate(22.96 234.863349)scale(0.0833 -0.0833)">
       <defs>
        <path id="DejaVuSans-2e" d="M 684 794 
L 1344 794 
L 1344 0 
L 684 0 
L 684 794 
z
" transform="scale(0.015625)"/>
       </defs>
       <use xlink:href="#DejaVuSans-30"/>
       <use xlink:href="#DejaVuSans-2e" x="63.623047"/>
       <use xlink:href="#DejaVuSans-30" x="95.410156"/>
       <use xlink:href="#DejaVuSans-35" x="159.033203"/>
      </g>
     </g>
    </g>
    <g id="ytick_2">
     <g id="line2d_15">
      <path d="M 48.507266 205.768597 
L 383.307266 205.768597 
" clip-path="url(#pf4c6a12a4a)" style="fill: none; stroke: #b0b0b0; stroke-width: 0.3; stroke-linecap: square"/>
     </g>
     <g id="line2d_16">
      <g>
       <use xlink:href="#m0c0e3b4b4a" x="48.507266" y="205.768597" style="stroke: #000000; stroke-width: 0.8"/>
      </g>
     </g>
     <g id="text_9">
      <!-- 0.10 -->
      <g transform="translate(22.96 208.933346)scale(0.0833 -0.0833)">
       <use xlink:href="#DejaVuSans-30"/>
       <use xlink:href="#DejaVuSans-2e" x="63.623047"/>
       <use xlink:href="#DejaVuSans-31" x="95.410156"/>
       <use xlink:href="#DejaVuSans-30" x="159.033203"/>
      </g>
     </g>
    </g>
    <g id="ytick_3">
     <g id="line2d_17">
      <path d="M 48.507266 179.838594 
L 383.307266 179.838594 
" clip-path="url(#pf4c6a12a4a)" style="fill: none; stroke: #b0b0b0; stroke-width: 0.3; stroke-linecap: square"/>
     </g>
     <g id="line2d_18">
      <g>
       <use xlink:href="#m0c0e3b4b4a" x="48.507266" y="179.838594" style="stroke: #000000; stroke-width: 0.8"/>
      </g>
     </g>
     <g id="text_10">
      <!-- 0.15 -->
      <g transform="translate(22.96 183.003344)scale(0.0833 -0.0833)">
       <use xlink:href="#DejaVuSans-30"/>
       <use xlink:href="#DejaVuSans-2e" x="63.623047"/>
       <use xlink:href="#DejaVuSans-31" x="95.410156"/>
       <use xlink:href="#DejaVuSans-35" x="159.033203"/>
      </g>
     </g>
    </g>
    <g id="ytick_4">
     <g id="line2d_19">
      <path d="M 48.507266 153.908592 
L 383.307266 153.908592 
" clip-path="url(#pf4c6a12a4a)" style="fill: none; stroke: #b0b0b0; stroke-width: 0.3; stroke-linecap: square"/>
     </g>
     <g id="line2d_20">
      <g>
       <use xlink:href="#m0c0e3b4b4a" x="48.507266" y="153.908592" style="stroke: #000000; stroke-width: 0.8"/>
      </g>
     </g>
     <g id="text_11">
      <!-- 0.20 -->
      <g transform="translate(22.96 157.073341)scale(0.0833 -0.0833)">
       <use xlink:href="#DejaVuSans-30"/>
       <use xlink:href="#DejaVuSans-2e" x="63.623047"/>
       <use xlink:href="#DejaVuSans-32" x="95.410156"/>
       <use xlink:href="#DejaVuSans-30" x="159.033203"/>
      </g>
     </g>
    </g>
    <g id="ytick_5">
     <g id="line2d_21">
      <path d="M 48.507266 127.978589 
L 383.307266 127.978589 
" clip-path="url(#pf4c6a12a4a)" style="fill: none; stroke: #b0b0b0; stroke-width: 0.3; stroke-linecap: square"/>
     </g>
     <g id="line2d_22">
      <g>
       <use xlink:href="#m0c0e3b4b4a" x="48.507266" y="127.978589" style="stroke: #000000; stroke-width: 0.8"/>
      </g>
     </g>
     <g id="text_12">
      <!-- 0.25 -->
      <g transform="translate(22.96 131.143338)scale(0.0833 -0.0833)">
       <use xlink:href="#DejaVuSans-30"/>
       <use xlink:href="#DejaVuSans-2e" x="63.623047"/>
       <use xlink:href="#DejaVuSans-32" x="95.410156"/>
       <use xlink:href="#DejaVuSans-35" x="159.033203"/>
      </g>
     </g>
    </g>
    <g id="ytick_6">
     <g id="line2d_23">
      <path d="M 48.507266 102.048586 
L 383.307266 102.048586 
" clip-path="url(#pf4c6a12a4a)" style="fill: none; stroke: #b0b0b0; stroke-width: 0.3; stroke-linecap: square"/>
     </g>
     <g id="line2d_24">
      <g>
       <use xlink:href="#m0c0e3b4b4a" x="48.507266" y="102.048586" style="stroke: #000000; stroke-width: 0.8"/>
      </g>
     </g>
     <g id="text_13">
      <!-- 0.30 -->
      <g transform="translate(22.96 105.213336)scale(0.0833 -0.0833)">
       <use xlink:href="#DejaVuSans-30"/>
       <use xlink:href="#DejaVuSans-2e" x="63.623047"/>
       <use xlink:href="#DejaVuSans-33" x="95.410156"/>
       <use xlink:href="#DejaVuSans-30" x="159.033203"/>
      </g>
     </g>
    </g>
    <g id="ytick_7">
     <g id="line2d_25">
      <path d="M 48.507266 76.118584 
L 383.307266 76.118584 
" clip-path="url(#pf4c6a12a4a)" style="fill: none; stroke: #b0b0b0; stroke-width: 0.3; stroke-linecap: square"/>
     </g>
     <g id="line2d_26">
      <g>
       <use xlink:href="#m0c0e3b4b4a" x="48.507266" y="76.118584" style="stroke: #000000; stroke-width: 0.8"/>
      </g>
     </g>
     <g id="text_14">
      <!-- 0.35 -->
      <g transform="translate(22.96 79.283333)scale(0.0833 -0.0833)">
       <use xlink:href="#DejaVuSans-30"/>
       <use xlink:href="#DejaVuSans-2e" x="63.623047"/>
       <use xlink:href="#DejaVuSans-33" x="95.410156"/>
       <use xlink:href="#DejaVuSans-35" x="159.033203"/>
      </g>
     </g>
    </g>
    <g id="ytick_8">
     <g id="line2d_27">
      <path d="M 48.507266 50.188581 
L 383.307266 50.188581 
" clip-path="url(#pf4c6a12a4a)" style="fill: none; stroke: #b0b0b0; stroke-width: 0.3; stroke-linecap: square"/>
     </g>
     <g id="line2d_28">
      <g>
       <use xlink:href="#m0c0e3b4b4a" x="48.507266" y="50.188581" style="stroke: #000000; stroke-width: 0.8"/>
      </g>
     </g>
     <g id="text_15">
      <!-- 0.40 -->
      <g transform="translate(22.96 53.35333)scale(0.0833 -0.0833)">
       <use xlink:href="#DejaVuSans-30"/>
       <use xlink:href="#DejaVuSans-2e" x="63.623047"/>
       <use xlink:href="#DejaVuSans-34" x="95.410156"/>
       <use xlink:href="#DejaVuSans-30" x="159.033203"/>
      </g>
     </g>
    </g>
    <g id="ytick_9">
     <g id="line2d_29">
      <path d="M 48.507266 24.258578 
L 383.307266 24.258578 
" clip-path="url(#pf4c6a12a4a)" style="fill: none; stroke: #b0b0b0; stroke-width: 0.3; stroke-linecap: square"/>
     </g>
     <g id="line2d_30">
      <g>
       <use xlink:href="#m0c0e3b4b4a" x="48.507266" y="24.258578" style="stroke: #000000; stroke-width: 0.8"/>
      </g>
     </g>
     <g id="text_16">
      <!-- 0.45 -->
      <g transform="translate(22.96 27.423328)scale(0.0833 -0.0833)">
       <use xlink:href="#DejaVuSans-30"/>
       <use xlink:href="#DejaVuSans-2e" x="63.623047"/>
       <use xlink:href="#DejaVuSans-34" x="95.410156"/>
       <use xlink:href="#DejaVuSans-35" x="159.033203"/>
      </g>
     </g>
    </g>
    <g id="text_17">
     <!-- Power $(1 - \beta)$ -->
     <g transform="translate(16.44 172.82175)rotate(-90)scale(0.12 -0.12)">
      <defs>
       <path id="DejaVuSans-50" d="M 1259 4147 
L 1259 2394 
L 2053 2394 
Q 2494 2394 2734 2622 
Q 2975 2850 2975 3272 
Q 2975 3691 2734 3919 
Q 2494 4147 2053 4147 
L 1259 4147 
z
M 628 4666 
L 2053 4666 
Q 2838 4666 3239 4311 
Q 3641 3956 3641 3272 
Q 3641 2581 3239 2228 
Q 2838 1875 2053 1875 
L 1259 1875 
L 1259 0 
L 628 0 
L 628 4666 
z
" transform="scale(0.015625)"/>
       <path id="DejaVuSans-77" d="M 269 3500 
L 844 3500 
L 1563 769 
L 2278 3500 
L 2956 3500 
L 3675 769 
L 4391 3500 
L 4966 3500 
L 4050 0 
L 3372 0 
L 2619 2869 
L 1863 0 
L 1184 0 
L 269 3500 
z
" transform="scale(0.015625)"/>
       <path id="DejaVuSans-28" d="M 1984 4856 
Q 1566 4138 1362 3434 
Q 1159 2731 1159 2009 
Q 1159 1288 1364 580 
Q 1569 -128 1984 -844 
L 1484 -844 
Q 1016 -109 783 600 
Q 550 1309 550 2009 
Q 550 2706 781 3412 
Q 1013 4119 1484 4856 
L 1984 4856 
z
" transform="scale(0.015625)"/>
       <path id="DejaVuSans-2212" d="M 678 2272 
L 4684 2272 
L 4684 1741 
L 678 1741 
L 678 2272 
z
" transform="scale(0.015625)"/>
       <path id="DejaVuSans-Oblique-3b2" d="M 872 216 
L 572 -1331 
L -6 -1331 
L 928 3478 
Q 1206 4903 2538 4903 
Q 3888 4903 3659 3700 
Q 3503 2844 2894 2531 
Q 3713 2250 3553 1416 
Q 3272 -69 1759 -66 
Q 1097 -63 872 216 
z
M 1019 966 
Q 1259 422 1875 425 
Q 2775 425 2966 1406 
Q 3138 2288 1675 2219 
L 1778 2750 
Q 2909 2731 3106 3750 
Q 3241 4438 2509 4434 
Q 1691 4434 1503 3459 
L 1019 966 
z
" transform="scale(0.015625)"/>
       <path id="DejaVuSans-29" d="M 513 4856 
L 1013 4856 
Q 1481 4119 1714 3412 
Q 1947 2706 1947 2009 
Q 1947 1309 1714 600 
Q 1481 -109 1013 -844 
L 513 -844 
Q 928 -128 1133 580 
Q 1338 1288 1338 2009 
Q 1338 2731 1133 3434 
Q 928 4138 513 4856 
z
" transform="scale(0.015625)"/>
      </defs>
      <use xlink:href="#DejaVuSans-50" transform="translate(0 0.390625)"/>
      <use xlink:href="#DejaVuSans-6f" transform="translate(60.302734 0.390625)"/>
      <use xlink:href="#DejaVuSans-77" transform="translate(121.484375 0.390625)"/>
      <use xlink:href="#DejaVuSans-65" transform="translate(203.271484 0.390625)"/>
      <use xlink:href="#DejaVuSans-72" transform="translate(264.794922 0.390625)"/>
      <use xlink:href="#DejaVuSans-20" transform="translate(305.908203 0.390625)"/>
      <use xlink:href="#DejaVuSans-28" transform="translate(337.695312 0.390625)"/>
      <use xlink:href="#DejaVuSans-31" transform="translate(376.708984 0.390625)"/>
      <use xlink:href="#DejaVuSans-2212" transform="translate(459.814453 0.390625)"/>
      <use xlink:href="#DejaVuSans-Oblique-3b2" transform="translate(563.085938 0.390625)"/>
      <use xlink:href="#DejaVuSans-29" transform="translate(626.904297 0.390625)"/>
     </g>
    </g>
   </g>
   <g id="line2d_31">
    <path d="M 63.725447 224.808059 
L 76.407266 217.000903 
L 89.089084 209.103952 
L 101.770902 201.122506 
L 114.45272 193.069657 
L 127.134538 184.959141 
L 139.816357 176.804337 
L 152.498175 168.618039 
L 165.179993 160.412392 
L 177.861811 152.198882 
L 190.543629 143.988344 
L 203.225447 135.790975 
L 215.907266 127.616351 
L 228.589084 119.473452 
L 241.270902 111.370677 
L 253.95272 103.315868 
L 266.634538 95.31633 
L 279.316357 87.378853 
L 291.998175 79.509726 
L 304.679993 71.714771 
L 317.361811 63.99935 
L 330.043629 56.368388 
L 342.725447 48.826396 
L 355.407266 41.377484 
L 368.089084 34.025386 
" clip-path="url(#pf4c6a12a4a)" style="fill: none; stroke: #0173b2; stroke-width: 2; stroke-linecap: square"/>
   </g>
   <g id="line2d_32">
    <path d="M 63.725447 226.745278 
L 76.407266 221.154005 
L 89.089084 215.51443 
L 101.770902 209.825021 
L 114.45272 204.090219 
L 127.134538 198.315272 
L 139.816357 192.50551 
L 152.498175 186.66616 
L 165.179993 180.802295 
L 177.861811 174.918812 
L 190.543629 169.020427 
L 203.225447 163.11167 
L 215.907266 157.196891 
L 228.589084 151.280259 
L 241.270902 145.365769 
L 253.95272 139.45724 
L 266.634538 133.558327 
L 279.316357 127.672517 
L 291.998175 121.803138 
L 304.679993 115.953362 
L 317.361811 110.126209 
L 330.043629 104.32455 
L 342.725447 98.551114 
L 355.407266 92.808489 
L 368.089084 87.099127 
" clip-path="url(#pf4c6a12a4a)" style="fill: none; stroke: #de8f05; stroke-width: 2; stroke-linecap: square"/>
   </g>
   <g id="line2d_33">
    <path d="M 63.725447 227.004532 
L 76.407266 221.708696 
L 89.089084 216.369403 
L 101.770902 210.98463 
L 114.45272 205.558045 
L 127.134538 200.094111 
L 139.816357 194.597397 
L 152.498175 189.072404 
L 165.179993 183.523515 
L 177.861811 177.95497 
L 190.543629 172.370864 
L 203.225447 166.775144 
L 215.907266 161.171606 
L 228.589084 155.563902 
L 241.270902 149.955538 
L 253.95272 144.34988 
L 266.634538 138.750153 
L 279.316357 133.159449 
L 291.998175 127.580726 
L 304.679993 122.016813 
L 317.361811 116.470413 
L 330.043629 110.944107 
L 342.725447 105.440355 
L 355.407266 99.9615 
L 368.089084 94.509774 
" clip-path="url(#pf4c6a12a4a)" style="fill: none; stroke: #029e73; stroke-width: 2; stroke-linecap: square"/>
   </g>
   <g id="line2d_34">
    <path d="M 63.725447 227.065206 
L 76.407266 221.838471 
L 89.089084 216.569386 
L 101.770902 211.255824 
L 114.45272 205.901285 
L 127.134538 200.510059 
L 139.816357 195.086546 
L 152.498175 189.635089 
L 165.179993 184.159915 
L 177.861811 178.66512 
L 190.543629 173.15466 
L 203.225447 167.632352 
L 215.907266 162.101868 
L 228.589084 156.566744 
L 241.270902 151.030375 
L 253.95272 145.496024 
L 266.634538 139.966821 
L 279.316357 134.445767 
L 291.998175 128.935735 
L 304.679993 123.439476 
L 317.361811 117.959619 
L 330.043629 112.498678 
L 342.725447 107.059052 
L 355.407266 101.643025 
L 368.089084 96.252777 
" clip-path="url(#pf4c6a12a4a)" style="fill: none; stroke: #d55e00; stroke-width: 2; stroke-linecap: square"/>
   </g>
   <g id="line2d_35">
    <path d="M 63.725447 229.229271 
L 76.407266 226.456696 
L 89.089084 223.673099 
L 101.770902 220.875423 
L 114.45272 218.063695 
L 127.134538 215.238441 
L 139.816357 212.400317 
L 152.498175 209.550021 
L 165.179993 206.688262 
L 177.861811 203.815745 
L 190.543629 200.93317 
L 203.225447 198.041228 
L 215.907266 195.140598 
L 228.589084 192.231949 
L 241.270902 189.315936 
L 253.95272 186.393204 
L 266.634538 183.464384 
L 279.316357 180.530097 
L 291.998175 177.59095 
L 304.679993 174.64754 
L 317.361811 171.700451 
L 330.043629 168.750254 
L 342.725447 165.79751 
L 355.407266 162.842768 
L 368.089084 159.886565 
" clip-path="url(#pf4c6a12a4a)" style="fill: none; stroke: #cc78bc; stroke-width: 2; stroke-linecap: square"/>
   </g>
   <g id="line2d_36">
    <path d="M 63.725447 229.318105 
L 76.407266 226.645812 
L 89.089084 223.963399 
L 101.770902 221.267867 
L 114.45272 218.559187 
L 127.134538 215.837817 
L 139.816357 213.10434 
L 152.498175 210.35938 
L 165.179993 207.603573 
L 177.861811 204.837554 
L 190.543629 202.061954 
L 203.225447 199.277395 
L 215.907266 196.484491 
L 228.589084 193.683845 
L 241.270902 190.876051 
L 253.95272 188.061692 
L 266.634538 185.24134 
L 279.316357 182.415558 
L 291.998175 179.584897 
L 304.679993 176.749897 
L 317.361811 173.911091 
L 330.043629 171.068998 
L 342.725447 168.22413 
L 355.407266 165.376985 
L 368.089084 162.528055 
" clip-path="url(#pf4c6a12a4a)" style="fill: none; stroke: #ca9161; stroke-width: 2; stroke-linecap: square"/>
   </g>
   <g id="line2d_37">
    <path d="M 63.725447 231.176898 
L 76.407266 230.593818 
L 89.089084 230.011046 
L 101.770902 229.427772 
L 114.45272 228.843841 
L 127.134538 228.259207 
L 139.816357 227.673855 
L 152.498175 227.087781 
L 165.179993 226.500988 
L 177.861811 225.913478 
L 190.543629 225.325257 
L 203.225447 224.736331 
L 215.907266 224.146707 
L 228.589084 223.556392 
L 241.270902 222.965392 
L 253.95272 222.373715 
L 266.634538 221.781367 
L 279.316357 221.188357 
L 291.998175 220.594691 
L 304.679993 220.000377 
L 317.361811 219.405422 
L 330.043629 218.809834 
L 342.725447 218.213619 
L 355.407266 217.616785 
L 368.089084 217.019339 
" clip-path="url(#pf4c6a12a4a)" style="fill: none; stroke: #fbafe4; stroke-width: 2; stroke-linecap: square"/>
   </g>
   <g id="line2d_38">
    <path d="M 63.725447 231.425077 
L 76.407266 231.119563 
L 89.089084 230.814403 
L 101.770902 230.509169 
L 114.45272 230.203776 
L 127.134538 229.898199 
L 139.816357 229.592426 
L 152.498175 229.286452 
L 165.179993 228.980276 
L 177.861811 228.673895 
L 190.543629 228.36731 
L 203.225447 228.060522 
L 215.907266 227.75353 
L 228.589084 227.446336 
L 241.270902 227.138941 
L 253.95272 226.831344 
L 266.634538 226.523548 
L 279.316357 226.215553 
L 291.998175 225.90736 
L 304.679993 225.59897 
L 317.361811 225.290385 
L 330.043629 224.981605 
L 342.725447 224.672631 
L 355.407266 224.363464 
L 368.089084 224.054106 
" clip-path="url(#pf4c6a12a4a)" style="fill: none; stroke: #949494; stroke-width: 2; stroke-linecap: square"/>
   </g>
   <g id="line2d_39">
    <path d="M 63.725447 231.426772 
L 76.407266 231.123152 
L 89.089084 230.819885 
L 101.770902 230.516546 
L 114.45272 230.213051 
L 127.134538 229.909374 
L 139.816357 229.605503 
L 152.498175 229.301434 
L 165.179993 228.997164 
L 177.861811 228.692693 
L 190.543629 228.388021 
L 203.225447 228.083147 
L 215.907266 227.778073 
L 228.589084 227.472798 
L 241.270902 227.167324 
L 253.95272 226.861652 
L 266.634538 226.555782 
L 279.316357 226.249716 
L 291.998175 225.943455 
L 304.679993 225.636999 
L 317.361811 225.330349 
L 330.043629 225.023507 
L 342.725447 224.716474 
L 355.407266 224.40925 
L 368.089084 224.101837 
" clip-path="url(#pf4c6a12a4a)" style="fill: none; stroke: #ece133; stroke-width: 2; stroke-linecap: square"/>
   </g>
   <g id="line2d_40">
    <path d="M 63.725447 231.698114 
L 76.407266 231.697571 
L 89.089084 231.69703 
L 101.770902 231.696489 
L 114.45272 231.695948 
L 127.134538 231.695407 
L 139.816357 231.694866 
L 152.498175 231.694325 
L 165.179993 231.693784 
L 177.861811 231.693243 
L 190.543629 231.692702 
L 203.225447 231.692161 
L 215.907266 231.69162 
L 228.589084 231.691079 
L 241.270902 231.690538 
L 253.95272 231.689997 
L 266.634538 231.689456 
L 279.316357 231.688915 
L 291.998175 231.688374 
L 304.679993 231.687833 
L 317.361811 231.687292 
L 330.043629 231.686751 
L 342.725447 231.686211 
L 355.407266 231.68567 
L 368.089084 231.685129 
" clip-path="url(#pf4c6a12a4a)" style="fill: none; stroke: #56b4e9; stroke-width: 2; stroke-linecap: square"/>
   </g>
   <g id="line2d_41"/>
   <g id="line2d_42"/>
   <g id="line2d_43"/>
   <g id="line2d_44"/>
   <g id="line2d_45"/>
   <g id="line2d_46"/>
   <g id="line2d_47"/>
   <g id="line2d_48"/>
   <g id="line2d_49"/>
   <g id="line2d_50"/>
   <g id="patch_3">
    <path d="M 48.507266 241.58175 
L 48.507266 24.14175 
" style="fill: none; stroke: #000000; stroke-width: 0.8; stroke-linejoin: miter; stroke-linecap: square"/>
   </g>
   <g id="patch_4">
    <path d="M 48.507266 241.58175 
L 383.307266 241.58175 
" style="fill: none; stroke: #000000; stroke-width: 0.8; stroke-linejoin: miter; stroke-linecap: square"/>
   </g>
   <g id="text_18">
    <!-- ABX History - Pairwise -->
    <g transform="translate(136.573391 18.14175)scale(0.144 -0.144)">
     <defs>
      <path id="DejaVuSans-41" d="M 2188 4044 
L 1331 1722 
L 3047 1722 
L 2188 4044 
z
M 1831 4666 
L 2547 4666 
L 4325 0 
L 3669 0 
L 3244 1197 
L 1141 1197 
L 716 0 
L 50 0 
L 1831 4666 
z
" transform="scale(0.015625)"/>
      <path id="DejaVuSans-42" d="M 1259 2228 
L 1259 519 
L 2272 519 
Q 2781 519 3026 730 
Q 3272 941 3272 1375 
Q 3272 1813 3026 2020 
Q 2781 2228 2272 2228 
L 1259 2228 
z
M 1259 4147 
L 1259 2741 
L 2194 2741 
Q 2656 2741 2882 2914 
Q 3109 3088 3109 3444 
Q 3109 3797 2882 3972 
Q 2656 4147 2194 4147 
L 1259 4147 
z
M 628 4666 
L 2241 4666 
Q 2963 4666 3353 4366 
Q 3744 4066 3744 3513 
Q 3744 3084 3544 2831 
Q 3344 2578 2956 2516 
Q 3422 2416 3680 2098 
Q 3938 1781 3938 1306 
Q 3938 681 3513 340 
Q 3088 0 2303 0 
L 628 0 
L 628 4666 
z
" transform="scale(0.015625)"/>
      <path id="DejaVuSans-58" d="M 403 4666 
L 1081 4666 
L 2241 2931 
L 3406 4666 
L 4084 4666 
L 2584 2425 
L 4184 0 
L 3506 0 
L 2194 1984 
L 872 0 
L 191 0 
L 1856 2491 
L 403 4666 
z
" transform="scale(0.015625)"/>
      <path id="DejaVuSans-48" d="M 628 4666 
L 1259 4666 
L 1259 2753 
L 3553 2753 
L 3553 4666 
L 4184 4666 
L 4184 0 
L 3553 0 
L 3553 2222 
L 1259 2222 
L 1259 0 
L 628 0 
L 628 4666 
z
" transform="scale(0.015625)"/>
      <path id="DejaVuSans-79" d="M 2059 -325 
Q 1816 -950 1584 -1140 
Q 1353 -1331 966 -1331 
L 506 -1331 
L 506 -850 
L 844 -850 
Q 1081 -850 1212 -737 
Q 1344 -625 1503 -206 
L 1606 56 
L 191 3500 
L 800 3500 
L 1894 763 
L 2988 3500 
L 3597 3500 
L 2059 -325 
z
" transform="scale(0.015625)"/>
      <path id="DejaVuSans-2d" d="M 313 2009 
L 1997 2009 
L 1997 1497 
L 313 1497 
L 313 2009 
z
" transform="scale(0.015625)"/>
     </defs>
     <use xlink:href="#DejaVuSans-41"/>
     <use xlink:href="#DejaVuSans-42" x="68.408203"/>
     <use xlink:href="#DejaVuSans-58" x="137.011719"/>
     <use xlink:href="#DejaVuSans-20" x="205.517578"/>
     <use xlink:href="#DejaVuSans-48" x="237.304688"/>
     <use xlink:href="#DejaVuSans-69" x="312.5"/>
     <use xlink:href="#DejaVuSans-73" x="340.283203"/>
     <use xlink:href="#DejaVuSans-74" x="392.382812"/>
     <use xlink:href="#DejaVuSans-6f" x="431.591797"/>
     <use xlink:href="#DejaVuSans-72" x="492.773438"/>
     <use xlink:href="#DejaVuSans-79" x="533.886719"/>
     <use xlink:href="#DejaVuSans-20" x="593.066406"/>
     <use xlink:href="#DejaVuSans-2d" x="624.853516"/>
     <use xlink:href="#DejaVuSans-20" x="660.9375"/>
     <use xlink:href="#DejaVuSans-50" x="692.724609"/>
     <use xlink:href="#DejaVuSans-61" x="748.527344"/>
     <use xlink:href="#DejaVuSans-69" x="809.806641"/>
     <use xlink:href="#DejaVuSans-72" x="837.589844"/>
     <use xlink:href="#DejaVuSans-77" x="878.703125"/>
     <use xlink:href="#DejaVuSans-69" x="960.490234"/>
     <use xlink:href="#DejaVuSans-73" x="988.273438"/>
     <use xlink:href="#DejaVuSans-65" x="1040.373047"/>
    </g>
   </g>
   <g id="legend_1">
    <g id="line2d_51">
     <path d="M 40.007002 294.160066 
L 46.947002 294.160066 
L 53.887002 294.160066 
" style="fill: none; stroke: #0173b2; stroke-width: 2; stroke-linecap: square"/>
    </g>
    <g id="text_19">
     <!-- None in past year vs 6 months -->
     <g transform="translate(59.439002 296.589066)scale(0.0694 -0.0694)">
      <defs>
       <path id="DejaVuSans-4e" d="M 628 4666 
L 1478 4666 
L 3547 763 
L 3547 4666 
L 4159 4666 
L 4159 0 
L 3309 0 
L 1241 3903 
L 1241 0 
L 628 0 
L 628 4666 
z
" transform="scale(0.015625)"/>
       <path id="DejaVuSans-70" d="M 1159 525 
L 1159 -1331 
L 581 -1331 
L 581 3500 
L 1159 3500 
L 1159 2969 
Q 1341 3281 1617 3432 
Q 1894 3584 2278 3584 
Q 2916 3584 3314 3078 
Q 3713 2572 3713 1747 
Q 3713 922 3314 415 
Q 2916 -91 2278 -91 
Q 1894 -91 1617 61 
Q 1341 213 1159 525 
z
M 3116 1747 
Q 3116 2381 2855 2742 
Q 2594 3103 2138 3103 
Q 1681 3103 1420 2742 
Q 1159 2381 1159 1747 
Q 1159 1113 1420 752 
Q 1681 391 2138 391 
Q 2594 391 2855 752 
Q 3116 1113 3116 1747 
z
" transform="scale(0.015625)"/>
       <path id="DejaVuSans-36" d="M 2113 2584 
Q 1688 2584 1439 2293 
Q 1191 2003 1191 1497 
Q 1191 994 1439 701 
Q 1688 409 2113 409 
Q 2538 409 2786 701 
Q 3034 994 3034 1497 
Q 3034 2003 2786 2293 
Q 2538 2584 2113 2584 
z
M 3366 4563 
L 3366 3988 
Q 3128 4100 2886 4159 
Q 2644 4219 2406 4219 
Q 1781 4219 1451 3797 
Q 1122 3375 1075 2522 
Q 1259 2794 1537 2939 
Q 1816 3084 2150 3084 
Q 2853 3084 3261 2657 
Q 3669 2231 3669 1497 
Q 3669 778 3244 343 
Q 2819 -91 2113 -91 
Q 1303 -91 875 529 
Q 447 1150 447 2328 
Q 447 3434 972 4092 
Q 1497 4750 2381 4750 
Q 2619 4750 2861 4703 
Q 3103 4656 3366 4563 
z
" transform="scale(0.015625)"/>
       <path id="DejaVuSans-6d" d="M 3328 2828 
Q 3544 3216 3844 3400 
Q 4144 3584 4550 3584 
Q 5097 3584 5394 3201 
Q 5691 2819 5691 2113 
L 5691 0 
L 5113 0 
L 5113 2094 
Q 5113 2597 4934 2840 
Q 4756 3084 4391 3084 
Q 3944 3084 3684 2787 
Q 3425 2491 3425 1978 
L 3425 0 
L 2847 0 
L 2847 2094 
Q 2847 2600 2669 2842 
Q 2491 3084 2119 3084 
Q 1678 3084 1418 2786 
Q 1159 2488 1159 1978 
L 1159 0 
L 581 0 
L 581 3500 
L 1159 3500 
L 1159 2956 
Q 1356 3278 1631 3431 
Q 1906 3584 2284 3584 
Q 2666 3584 2933 3390 
Q 3200 3197 3328 2828 
z
" transform="scale(0.015625)"/>
       <path id="DejaVuSans-68" d="M 3513 2113 
L 3513 0 
L 2938 0 
L 2938 2094 
Q 2938 2591 2744 2837 
Q 2550 3084 2163 3084 
Q 1697 3084 1428 2787 
Q 1159 2491 1159 1978 
L 1159 0 
L 581 0 
L 581 4863 
L 1159 4863 
L 1159 2956 
Q 1366 3272 1645 3428 
Q 1925 3584 2291 3584 
Q 2894 3584 3203 3211 
Q 3513 2838 3513 2113 
z
" transform="scale(0.015625)"/>
      </defs>
      <use xlink:href="#DejaVuSans-4e"/>
      <use xlink:href="#DejaVuSans-6f" x="74.804688"/>
      <use xlink:href="#DejaVuSans-6e" x="135.986328"/>
      <use xlink:href="#DejaVuSans-65" x="199.365234"/>
      <use xlink:href="#DejaVuSans-20" x="260.888672"/>
      <use xlink:href="#DejaVuSans-69" x="292.675781"/>
      <use xlink:href="#DejaVuSans-6e" x="320.458984"/>
      <use xlink:href="#DejaVuSans-20" x="383.837891"/>
      <use xlink:href="#DejaVuSans-70" x="415.625"/>
      <use xlink:href="#DejaVuSans-61" x="479.101562"/>
      <use xlink:href="#DejaVuSans-73" x="540.380859"/>
      <use xlink:href="#DejaVuSans-74" x="592.480469"/>
      <use xlink:href="#DejaVuSans-20" x="631.689453"/>
      <use xlink:href="#DejaVuSans-79" x="663.476562"/>
      <use xlink:href="#DejaVuSans-65" x="722.65625"/>
      <use xlink:href="#DejaVuSans-61" x="784.179688"/>
      <use xlink:href="#DejaVuSans-72" x="845.458984"/>
      <use xlink:href="#DejaVuSans-20" x="886.572266"/>
      <use xlink:href="#DejaVuSans-76" x="918.359375"/>
      <use xlink:href="#DejaVuSans-73" x="977.539062"/>
      <use xlink:href="#DejaVuSans-20" x="1029.638672"/>
      <use xlink:href="#DejaVuSans-36" x="1061.425781"/>
      <use xlink:href="#DejaVuSans-20" x="1125.048828"/>
      <use xlink:href="#DejaVuSans-6d" x="1156.835938"/>
      <use xlink:href="#DejaVuSans-6f" x="1254.248047"/>
      <use xlink:href="#DejaVuSans-6e" x="1315.429688"/>
      <use xlink:href="#DejaVuSans-74" x="1378.808594"/>
      <use xlink:href="#DejaVuSans-68" x="1418.017578"/>
      <use xlink:href="#DejaVuSans-73" x="1481.396484"/>
     </g>
    </g>
    <g id="line2d_52">
     <path d="M 40.007002 304.346684 
L 46.947002 304.346684 
L 53.887002 304.346684 
" style="fill: none; stroke: #de8f05; stroke-width: 2; stroke-linecap: square"/>
    </g>
    <g id="text_20">
     <!-- 6 months vs Week -->
     <g transform="translate(59.439002 306.775684)scale(0.0694 -0.0694)">
      <defs>
       <path id="DejaVuSans-57" d="M 213 4666 
L 850 4666 
L 1831 722 
L 2809 4666 
L 3519 4666 
L 4500 722 
L 5478 4666 
L 6119 4666 
L 4947 0 
L 4153 0 
L 3169 4050 
L 2175 0 
L 1381 0 
L 213 4666 
z
" transform="scale(0.015625)"/>
       <path id="DejaVuSans-6b" d="M 581 4863 
L 1159 4863 
L 1159 1991 
L 2875 3500 
L 3609 3500 
L 1753 1863 
L 3688 0 
L 2938 0 
L 1159 1709 
L 1159 0 
L 581 0 
L 581 4863 
z
" transform="scale(0.015625)"/>
      </defs>
      <use xlink:href="#DejaVuSans-36"/>
      <use xlink:href="#DejaVuSans-20" x="63.623047"/>
      <use xlink:href="#DejaVuSans-6d" x="95.410156"/>
      <use xlink:href="#DejaVuSans-6f" x="192.822266"/>
      <use xlink:href="#DejaVuSans-6e" x="254.003906"/>
      <use xlink:href="#DejaVuSans-74" x="317.382812"/>
      <use xlink:href="#DejaVuSans-68" x="356.591797"/>
      <use xlink:href="#DejaVuSans-73" x="419.970703"/>
      <use xlink:href="#DejaVuSans-20" x="472.070312"/>
      <use xlink:href="#DejaVuSans-76" x="503.857422"/>
      <use xlink:href="#DejaVuSans-73" x="563.037109"/>
      <use xlink:href="#DejaVuSans-20" x="615.136719"/>
      <use xlink:href="#DejaVuSans-57" x="646.923828"/>
      <use xlink:href="#DejaVuSans-65" x="739.925781"/>
      <use xlink:href="#DejaVuSans-65" x="801.449219"/>
      <use xlink:href="#DejaVuSans-6b" x="862.972656"/>
     </g>
    </g>
    <g id="line2d_53">
     <path d="M 40.007002 314.533303 
L 46.947002 314.533303 
L 53.887002 314.533303 
" style="fill: none; stroke: #029e73; stroke-width: 2; stroke-linecap: square"/>
    </g>
    <g id="text_21">
     <!-- None in past year vs Month -->
     <g transform="translate(59.439002 316.962303)scale(0.0694 -0.0694)">
      <defs>
       <path id="DejaVuSans-4d" d="M 628 4666 
L 1569 4666 
L 2759 1491 
L 3956 4666 
L 4897 4666 
L 4897 0 
L 4281 0 
L 4281 4097 
L 3078 897 
L 2444 897 
L 1241 4097 
L 1241 0 
L 628 0 
L 628 4666 
z
" transform="scale(0.015625)"/>
      </defs>
      <use xlink:href="#DejaVuSans-4e"/>
      <use xlink:href="#DejaVuSans-6f" x="74.804688"/>
      <use xlink:href="#DejaVuSans-6e" x="135.986328"/>
      <use xlink:href="#DejaVuSans-65" x="199.365234"/>
      <use xlink:href="#DejaVuSans-20" x="260.888672"/>
      <use xlink:href="#DejaVuSans-69" x="292.675781"/>
      <use xlink:href="#DejaVuSans-6e" x="320.458984"/>
      <use xlink:href="#DejaVuSans-20" x="383.837891"/>
      <use xlink:href="#DejaVuSans-70" x="415.625"/>
      <use xlink:href="#DejaVuSans-61" x="479.101562"/>
      <use xlink:href="#DejaVuSans-73" x="540.380859"/>
      <use xlink:href="#DejaVuSans-74" x="592.480469"/>
      <use xlink:href="#DejaVuSans-20" x="631.689453"/>
      <use xlink:href="#DejaVuSans-79" x="663.476562"/>
      <use xlink:href="#DejaVuSans-65" x="722.65625"/>
      <use xlink:href="#DejaVuSans-61" x="784.179688"/>
      <use xlink:href="#DejaVuSans-72" x="845.458984"/>
      <use xlink:href="#DejaVuSans-20" x="886.572266"/>
      <use xlink:href="#DejaVuSans-76" x="918.359375"/>
      <use xlink:href="#DejaVuSans-73" x="977.539062"/>
      <use xlink:href="#DejaVuSans-20" x="1029.638672"/>
      <use xlink:href="#DejaVuSans-4d" x="1061.425781"/>
      <use xlink:href="#DejaVuSans-6f" x="1147.705078"/>
      <use xlink:href="#DejaVuSans-6e" x="1208.886719"/>
      <use xlink:href="#DejaVuSans-74" x="1272.265625"/>
      <use xlink:href="#DejaVuSans-68" x="1311.474609"/>
     </g>
    </g>
    <g id="line2d_54">
     <path d="M 40.007002 324.719922 
L 46.947002 324.719922 
L 53.887002 324.719922 
" style="fill: none; stroke: #d55e00; stroke-width: 2; stroke-linecap: square"/>
    </g>
    <g id="text_22">
     <!-- None in past year vs Year -->
     <g transform="translate(59.439002 327.148922)scale(0.0694 -0.0694)">
      <defs>
       <path id="DejaVuSans-59" d="M -13 4666 
L 666 4666 
L 1959 2747 
L 3244 4666 
L 3922 4666 
L 2272 2222 
L 2272 0 
L 1638 0 
L 1638 2222 
L -13 4666 
z
" transform="scale(0.015625)"/>
      </defs>
      <use xlink:href="#DejaVuSans-4e"/>
      <use xlink:href="#DejaVuSans-6f" x="74.804688"/>
      <use xlink:href="#DejaVuSans-6e" x="135.986328"/>
      <use xlink:href="#DejaVuSans-65" x="199.365234"/>
      <use xlink:href="#DejaVuSans-20" x="260.888672"/>
      <use xlink:href="#DejaVuSans-69" x="292.675781"/>
      <use xlink:href="#DejaVuSans-6e" x="320.458984"/>
      <use xlink:href="#DejaVuSans-20" x="383.837891"/>
      <use xlink:href="#DejaVuSans-70" x="415.625"/>
      <use xlink:href="#DejaVuSans-61" x="479.101562"/>
      <use xlink:href="#DejaVuSans-73" x="540.380859"/>
      <use xlink:href="#DejaVuSans-74" x="592.480469"/>
      <use xlink:href="#DejaVuSans-20" x="631.689453"/>
      <use xlink:href="#DejaVuSans-79" x="663.476562"/>
      <use xlink:href="#DejaVuSans-65" x="722.65625"/>
      <use xlink:href="#DejaVuSans-61" x="784.179688"/>
      <use xlink:href="#DejaVuSans-72" x="845.458984"/>
      <use xlink:href="#DejaVuSans-20" x="886.572266"/>
      <use xlink:href="#DejaVuSans-76" x="918.359375"/>
      <use xlink:href="#DejaVuSans-73" x="977.539062"/>
      <use xlink:href="#DejaVuSans-20" x="1029.638672"/>
      <use xlink:href="#DejaVuSans-59" x="1061.425781"/>
      <use xlink:href="#DejaVuSans-65" x="1109.259766"/>
      <use xlink:href="#DejaVuSans-61" x="1170.783203"/>
      <use xlink:href="#DejaVuSans-72" x="1232.0625"/>
     </g>
    </g>
    <g id="line2d_55">
     <path d="M 179.741733 294.160066 
L 186.681733 294.160066 
L 193.621733 294.160066 
" style="fill: none; stroke: #cc78bc; stroke-width: 2; stroke-linecap: square"/>
    </g>
    <g id="text_23">
     <!-- Week vs Month -->
     <g transform="translate(199.173733 296.589066)scale(0.0694 -0.0694)">
      <use xlink:href="#DejaVuSans-57"/>
      <use xlink:href="#DejaVuSans-65" x="93.001953"/>
      <use xlink:href="#DejaVuSans-65" x="154.525391"/>
      <use xlink:href="#DejaVuSans-6b" x="216.048828"/>
      <use xlink:href="#DejaVuSans-20" x="273.958984"/>
      <use xlink:href="#DejaVuSans-76" x="305.746094"/>
      <use xlink:href="#DejaVuSans-73" x="364.925781"/>
      <use xlink:href="#DejaVuSans-20" x="417.025391"/>
      <use xlink:href="#DejaVuSans-4d" x="448.8125"/>
      <use xlink:href="#DejaVuSans-6f" x="535.091797"/>
      <use xlink:href="#DejaVuSans-6e" x="596.273438"/>
      <use xlink:href="#DejaVuSans-74" x="659.652344"/>
      <use xlink:href="#DejaVuSans-68" x="698.861328"/>
     </g>
    </g>
    <g id="line2d_56">
     <path d="M 179.741733 304.346684 
L 186.681733 304.346684 
L 193.621733 304.346684 
" style="fill: none; stroke: #ca9161; stroke-width: 2; stroke-linecap: square"/>
    </g>
    <g id="text_24">
     <!-- Year vs Week -->
     <g transform="translate(199.173733 306.775684)scale(0.0694 -0.0694)">
      <use xlink:href="#DejaVuSans-59"/>
      <use xlink:href="#DejaVuSans-65" x="47.833984"/>
      <use xlink:href="#DejaVuSans-61" x="109.357422"/>
      <use xlink:href="#DejaVuSans-72" x="170.636719"/>
      <use xlink:href="#DejaVuSans-20" x="211.75"/>
      <use xlink:href="#DejaVuSans-76" x="243.537109"/>
      <use xlink:href="#DejaVuSans-73" x="302.716797"/>
      <use xlink:href="#DejaVuSans-20" x="354.816406"/>
      <use xlink:href="#DejaVuSans-57" x="386.603516"/>
      <use xlink:href="#DejaVuSans-65" x="479.605469"/>
      <use xlink:href="#DejaVuSans-65" x="541.128906"/>
      <use xlink:href="#DejaVuSans-6b" x="602.652344"/>
     </g>
    </g>
    <g id="line2d_57">
     <path d="M 179.741733 314.533303 
L 186.681733 314.533303 
L 193.621733 314.533303 
" style="fill: none; stroke: #fbafe4; stroke-width: 2; stroke-linecap: square"/>
    </g>
    <g id="text_25">
     <!-- None in past year vs Week -->
     <g transform="translate(199.173733 316.962303)scale(0.0694 -0.0694)">
      <use xlink:href="#DejaVuSans-4e"/>
      <use xlink:href="#DejaVuSans-6f" x="74.804688"/>
      <use xlink:href="#DejaVuSans-6e" x="135.986328"/>
      <use xlink:href="#DejaVuSans-65" x="199.365234"/>
      <use xlink:href="#DejaVuSans-20" x="260.888672"/>
      <use xlink:href="#DejaVuSans-69" x="292.675781"/>
      <use xlink:href="#DejaVuSans-6e" x="320.458984"/>
      <use xlink:href="#DejaVuSans-20" x="383.837891"/>
      <use xlink:href="#DejaVuSans-70" x="415.625"/>
      <use xlink:href="#DejaVuSans-61" x="479.101562"/>
      <use xlink:href="#DejaVuSans-73" x="540.380859"/>
      <use xlink:href="#DejaVuSans-74" x="592.480469"/>
      <use xlink:href="#DejaVuSans-20" x="631.689453"/>
      <use xlink:href="#DejaVuSans-79" x="663.476562"/>
      <use xlink:href="#DejaVuSans-65" x="722.65625"/>
      <use xlink:href="#DejaVuSans-61" x="784.179688"/>
      <use xlink:href="#DejaVuSans-72" x="845.458984"/>
      <use xlink:href="#DejaVuSans-20" x="886.572266"/>
      <use xlink:href="#DejaVuSans-76" x="918.359375"/>
      <use xlink:href="#DejaVuSans-73" x="977.539062"/>
      <use xlink:href="#DejaVuSans-20" x="1029.638672"/>
      <use xlink:href="#DejaVuSans-57" x="1061.425781"/>
      <use xlink:href="#DejaVuSans-65" x="1154.427734"/>
      <use xlink:href="#DejaVuSans-65" x="1215.951172"/>
      <use xlink:href="#DejaVuSans-6b" x="1277.474609"/>
     </g>
    </g>
    <g id="line2d_58">
     <path d="M 305.729842 294.160066 
L 312.669842 294.160066 
L 319.609842 294.160066 
" style="fill: none; stroke: #949494; stroke-width: 2; stroke-linecap: square"/>
    </g>
    <g id="text_26">
     <!-- 6 months vs Month -->
     <g transform="translate(325.161842 296.589066)scale(0.0694 -0.0694)">
      <use xlink:href="#DejaVuSans-36"/>
      <use xlink:href="#DejaVuSans-20" x="63.623047"/>
      <use xlink:href="#DejaVuSans-6d" x="95.410156"/>
      <use xlink:href="#DejaVuSans-6f" x="192.822266"/>
      <use xlink:href="#DejaVuSans-6e" x="254.003906"/>
      <use xlink:href="#DejaVuSans-74" x="317.382812"/>
      <use xlink:href="#DejaVuSans-68" x="356.591797"/>
      <use xlink:href="#DejaVuSans-73" x="419.970703"/>
      <use xlink:href="#DejaVuSans-20" x="472.070312"/>
      <use xlink:href="#DejaVuSans-76" x="503.857422"/>
      <use xlink:href="#DejaVuSans-73" x="563.037109"/>
      <use xlink:href="#DejaVuSans-20" x="615.136719"/>
      <use xlink:href="#DejaVuSans-4d" x="646.923828"/>
      <use xlink:href="#DejaVuSans-6f" x="733.203125"/>
      <use xlink:href="#DejaVuSans-6e" x="794.384766"/>
      <use xlink:href="#DejaVuSans-74" x="857.763672"/>
      <use xlink:href="#DejaVuSans-68" x="896.972656"/>
     </g>
    </g>
    <g id="line2d_59">
     <path d="M 305.729842 304.346684 
L 312.669842 304.346684 
L 319.609842 304.346684 
" style="fill: none; stroke: #ece133; stroke-width: 2; stroke-linecap: square"/>
    </g>
    <g id="text_27">
     <!-- Year vs 6 months -->
     <g transform="translate(325.161842 306.775684)scale(0.0694 -0.0694)">
      <use xlink:href="#DejaVuSans-59"/>
      <use xlink:href="#DejaVuSans-65" x="47.833984"/>
      <use xlink:href="#DejaVuSans-61" x="109.357422"/>
      <use xlink:href="#DejaVuSans-72" x="170.636719"/>
      <use xlink:href="#DejaVuSans-20" x="211.75"/>
      <use xlink:href="#DejaVuSans-76" x="243.537109"/>
      <use xlink:href="#DejaVuSans-73" x="302.716797"/>
      <use xlink:href="#DejaVuSans-20" x="354.816406"/>
      <use xlink:href="#DejaVuSans-36" x="386.603516"/>
      <use xlink:href="#DejaVuSans-20" x="450.226562"/>
      <use xlink:href="#DejaVuSans-6d" x="482.013672"/>
      <use xlink:href="#DejaVuSans-6f" x="579.425781"/>
      <use xlink:href="#DejaVuSans-6e" x="640.607422"/>
      <use xlink:href="#DejaVuSans-74" x="703.986328"/>
      <use xlink:href="#DejaVuSans-68" x="743.195312"/>
      <use xlink:href="#DejaVuSans-73" x="806.574219"/>
     </g>
    </g>
    <g id="line2d_60">
     <path d="M 305.729842 314.533303 
L 312.669842 314.533303 
L 319.609842 314.533303 
" style="fill: none; stroke: #56b4e9; stroke-width: 2; stroke-linecap: square"/>
    </g>
    <g id="text_28">
     <!-- Year vs Month -->
     <g transform="translate(325.161842 316.962303)scale(0.0694 -0.0694)">
      <use xlink:href="#DejaVuSans-59"/>
      <use xlink:href="#DejaVuSans-65" x="47.833984"/>
      <use xlink:href="#DejaVuSans-61" x="109.357422"/>
      <use xlink:href="#DejaVuSans-72" x="170.636719"/>
      <use xlink:href="#DejaVuSans-20" x="211.75"/>
      <use xlink:href="#DejaVuSans-76" x="243.537109"/>
      <use xlink:href="#DejaVuSans-73" x="302.716797"/>
      <use xlink:href="#DejaVuSans-20" x="354.816406"/>
      <use xlink:href="#DejaVuSans-4d" x="386.603516"/>
      <use xlink:href="#DejaVuSans-6f" x="472.882812"/>
      <use xlink:href="#DejaVuSans-6e" x="534.064453"/>
      <use xlink:href="#DejaVuSans-74" x="597.443359"/>
      <use xlink:href="#DejaVuSans-68" x="636.652344"/>
     </g>
    </g>
   </g>
  </g>
 </g>
 <defs>
  <clipPath id="pf4c6a12a4a">
   <rect x="48.507266" y="24.14175" width="334.8" height="217.44"/>
  </clipPath>
 </defs>
</svg>
