<?xml version="1.0" encoding="utf-8" standalone="no"?>
<!DOCTYPE svg PUBLIC "-//W3C//DTD SVG 1.1//EN"
  "http://www.w3.org/Graphics/SVG/1.1/DTD/svg11.dtd">
<svg xmlns:xlink="http://www.w3.org/1999/xlink" width="390.507266pt" height="369.128081pt" viewBox="0 0 390.507266 369.128081" xmlns="http://www.w3.org/2000/svg" version="1.1">
 <metadata>
  <rdf:RDF xmlns:dc="http://purl.org/dc/elements/1.1/" xmlns:cc="http://creativecommons.org/ns#" xmlns:rdf="http://www.w3.org/1999/02/22-rdf-syntax-ns#">
   <cc:Work>
    <dc:type rdf:resource="http://purl.org/dc/dcmitype/StillImage"/>
    <dc:date>2022-03-03T17:04:23.351256</dc:date>
    <dc:format>image/svg+xml</dc:format>
    <dc:creator>
     <cc:Agent>
      <dc:title>Matplotlib v3.5.1, https://matplotlib.org/</dc:title>
     </cc:Agent>
    </dc:creator>
   </cc:Work>
  </rdf:RDF>
 </metadata>
 <defs>
  <style type="text/css">*{stroke-linejoin: round; stroke-linecap: butt}</style>
 </defs>
 <g id="figure_1">
  <g id="patch_1">
   <path d="M 0 369.128081 
L 390.507266 369.128081 
L 390.507266 0 
L 0 0 
z
" style="fill: #ffffff"/>
  </g>
  <g id="axes_1">
   <g id="patch_2">
    <path d="M 48.507266 241.58175 
L 383.307266 241.58175 
L 383.307266 24.14175 
L 48.507266 24.14175 
z
" style="fill: #ffffff"/>
   </g>
   <g id="matplotlib.axis_1">
    <g id="xtick_1">
     <g id="line2d_1">
      <path d="M 51.043629 241.58175 
L 51.043629 24.14175 
" clip-path="url(#p48737fade5)" style="fill: none; stroke: #b0b0b0; stroke-width: 0.3; stroke-linecap: square"/>
     </g>
     <g id="line2d_2">
      <defs>
       <path id="mb1e866cd96" d="M 0 0 
L 0 3.5 
" style="stroke: #000000; stroke-width: 0.8"/>
      </defs>
      <g>
       <use xlink:href="#mb1e866cd96" x="51.043629" y="241.58175" style="stroke: #000000; stroke-width: 0.8"/>
      </g>
     </g>
     <g id="text_1">
      <!-- 0 -->
      <g transform="translate(48.393648 254.911248)scale(0.0833 -0.0833)">
       <defs>
        <path id="DejaVuSans-30" d="M 2034 4250 
Q 1547 4250 1301 3770 
Q 1056 3291 1056 2328 
Q 1056 1369 1301 889 
Q 1547 409 2034 409 
Q 2525 409 2770 889 
Q 3016 1369 3016 2328 
Q 3016 3291 2770 3770 
Q 2525 4250 2034 4250 
z
M 2034 4750 
Q 2819 4750 3233 4129 
Q 3647 3509 3647 2328 
Q 3647 1150 3233 529 
Q 2819 -91 2034 -91 
Q 1250 -91 836 529 
Q 422 1150 422 2328 
Q 422 3509 836 4129 
Q 1250 4750 2034 4750 
z
" transform="scale(0.015625)"/>
       </defs>
       <use xlink:href="#DejaVuSans-30"/>
      </g>
     </g>
    </g>
    <g id="xtick_2">
     <g id="line2d_3">
      <path d="M 114.45272 241.58175 
L 114.45272 24.14175 
" clip-path="url(#p48737fade5)" style="fill: none; stroke: #b0b0b0; stroke-width: 0.3; stroke-linecap: square"/>
     </g>
     <g id="line2d_4">
      <g>
       <use xlink:href="#mb1e866cd96" x="114.45272" y="241.58175" style="stroke: #000000; stroke-width: 0.8"/>
      </g>
     </g>
     <g id="text_2">
      <!-- 100 -->
      <g transform="translate(106.502776 254.911248)scale(0.0833 -0.0833)">
       <defs>
        <path id="DejaVuSans-31" d="M 794 531 
L 1825 531 
L 1825 4091 
L 703 3866 
L 703 4441 
L 1819 4666 
L 2450 4666 
L 2450 531 
L 3481 531 
L 3481 0 
L 794 0 
L 794 531 
z
" transform="scale(0.015625)"/>
       </defs>
       <use xlink:href="#DejaVuSans-31"/>
       <use xlink:href="#DejaVuSans-30" x="63.623047"/>
       <use xlink:href="#DejaVuSans-30" x="127.246094"/>
      </g>
     </g>
    </g>
    <g id="xtick_3">
     <g id="line2d_5">
      <path d="M 177.861811 241.58175 
L 177.861811 24.14175 
" clip-path="url(#p48737fade5)" style="fill: none; stroke: #b0b0b0; stroke-width: 0.3; stroke-linecap: square"/>
     </g>
     <g id="line2d_6">
      <g>
       <use xlink:href="#mb1e866cd96" x="177.861811" y="241.58175" style="stroke: #000000; stroke-width: 0.8"/>
      </g>
     </g>
     <g id="text_3">
      <!-- 200 -->
      <g transform="translate(169.911867 254.911248)scale(0.0833 -0.0833)">
       <defs>
        <path id="DejaVuSans-32" d="M 1228 531 
L 3431 531 
L 3431 0 
L 469 0 
L 469 531 
Q 828 903 1448 1529 
Q 2069 2156 2228 2338 
Q 2531 2678 2651 2914 
Q 2772 3150 2772 3378 
Q 2772 3750 2511 3984 
Q 2250 4219 1831 4219 
Q 1534 4219 1204 4116 
Q 875 4013 500 3803 
L 500 4441 
Q 881 4594 1212 4672 
Q 1544 4750 1819 4750 
Q 2544 4750 2975 4387 
Q 3406 4025 3406 3419 
Q 3406 3131 3298 2873 
Q 3191 2616 2906 2266 
Q 2828 2175 2409 1742 
Q 1991 1309 1228 531 
z
" transform="scale(0.015625)"/>
       </defs>
       <use xlink:href="#DejaVuSans-32"/>
       <use xlink:href="#DejaVuSans-30" x="63.623047"/>
       <use xlink:href="#DejaVuSans-30" x="127.246094"/>
      </g>
     </g>
    </g>
    <g id="xtick_4">
     <g id="line2d_7">
      <path d="M 241.270902 241.58175 
L 241.270902 24.14175 
" clip-path="url(#p48737fade5)" style="fill: none; stroke: #b0b0b0; stroke-width: 0.3; stroke-linecap: square"/>
     </g>
     <g id="line2d_8">
      <g>
       <use xlink:href="#mb1e866cd96" x="241.270902" y="241.58175" style="stroke: #000000; stroke-width: 0.8"/>
      </g>
     </g>
     <g id="text_4">
      <!-- 300 -->
      <g transform="translate(233.320958 254.911248)scale(0.0833 -0.0833)">
       <defs>
        <path id="DejaVuSans-33" d="M 2597 2516 
Q 3050 2419 3304 2112 
Q 3559 1806 3559 1356 
Q 3559 666 3084 287 
Q 2609 -91 1734 -91 
Q 1441 -91 1130 -33 
Q 819 25 488 141 
L 488 750 
Q 750 597 1062 519 
Q 1375 441 1716 441 
Q 2309 441 2620 675 
Q 2931 909 2931 1356 
Q 2931 1769 2642 2001 
Q 2353 2234 1838 2234 
L 1294 2234 
L 1294 2753 
L 1863 2753 
Q 2328 2753 2575 2939 
Q 2822 3125 2822 3475 
Q 2822 3834 2567 4026 
Q 2313 4219 1838 4219 
Q 1578 4219 1281 4162 
Q 984 4106 628 3988 
L 628 4550 
Q 988 4650 1302 4700 
Q 1616 4750 1894 4750 
Q 2613 4750 3031 4423 
Q 3450 4097 3450 3541 
Q 3450 3153 3228 2886 
Q 3006 2619 2597 2516 
z
" transform="scale(0.015625)"/>
       </defs>
       <use xlink:href="#DejaVuSans-33"/>
       <use xlink:href="#DejaVuSans-30" x="63.623047"/>
       <use xlink:href="#DejaVuSans-30" x="127.246094"/>
      </g>
     </g>
    </g>
    <g id="xtick_5">
     <g id="line2d_9">
      <path d="M 304.679993 241.58175 
L 304.679993 24.14175 
" clip-path="url(#p48737fade5)" style="fill: none; stroke: #b0b0b0; stroke-width: 0.3; stroke-linecap: square"/>
     </g>
     <g id="line2d_10">
      <g>
       <use xlink:href="#mb1e866cd96" x="304.679993" y="241.58175" style="stroke: #000000; stroke-width: 0.8"/>
      </g>
     </g>
     <g id="text_5">
      <!-- 400 -->
      <g transform="translate(296.730049 254.911248)scale(0.0833 -0.0833)">
       <defs>
        <path id="DejaVuSans-34" d="M 2419 4116 
L 825 1625 
L 2419 1625 
L 2419 4116 
z
M 2253 4666 
L 3047 4666 
L 3047 1625 
L 3713 1625 
L 3713 1100 
L 3047 1100 
L 3047 0 
L 2419 0 
L 2419 1100 
L 313 1100 
L 313 1709 
L 2253 4666 
z
" transform="scale(0.015625)"/>
       </defs>
       <use xlink:href="#DejaVuSans-34"/>
       <use xlink:href="#DejaVuSans-30" x="63.623047"/>
       <use xlink:href="#DejaVuSans-30" x="127.246094"/>
      </g>
     </g>
    </g>
    <g id="xtick_6">
     <g id="line2d_11">
      <path d="M 368.089084 241.58175 
L 368.089084 24.14175 
" clip-path="url(#p48737fade5)" style="fill: none; stroke: #b0b0b0; stroke-width: 0.3; stroke-linecap: square"/>
     </g>
     <g id="line2d_12">
      <g>
       <use xlink:href="#mb1e866cd96" x="368.089084" y="241.58175" style="stroke: #000000; stroke-width: 0.8"/>
      </g>
     </g>
     <g id="text_6">
      <!-- 500 -->
      <g transform="translate(360.13914 254.911248)scale(0.0833 -0.0833)">
       <defs>
        <path id="DejaVuSans-35" d="M 691 4666 
L 3169 4666 
L 3169 4134 
L 1269 4134 
L 1269 2991 
Q 1406 3038 1543 3061 
Q 1681 3084 1819 3084 
Q 2600 3084 3056 2656 
Q 3513 2228 3513 1497 
Q 3513 744 3044 326 
Q 2575 -91 1722 -91 
Q 1428 -91 1123 -41 
Q 819 9 494 109 
L 494 744 
Q 775 591 1075 516 
Q 1375 441 1709 441 
Q 2250 441 2565 725 
Q 2881 1009 2881 1497 
Q 2881 1984 2565 2268 
Q 2250 2553 1709 2553 
Q 1456 2553 1204 2497 
Q 953 2441 691 2322 
L 691 4666 
z
" transform="scale(0.015625)"/>
       </defs>
       <use xlink:href="#DejaVuSans-35"/>
       <use xlink:href="#DejaVuSans-30" x="63.623047"/>
       <use xlink:href="#DejaVuSans-30" x="127.246094"/>
      </g>
     </g>
    </g>
    <g id="text_7">
     <!-- Total Observations -->
     <g transform="translate(160.325703 269.761753)scale(0.12 -0.12)">
      <defs>
       <path id="DejaVuSans-54" d="M -19 4666 
L 3928 4666 
L 3928 4134 
L 2272 4134 
L 2272 0 
L 1638 0 
L 1638 4134 
L -19 4134 
L -19 4666 
z
" transform="scale(0.015625)"/>
       <path id="DejaVuSans-6f" d="M 1959 3097 
Q 1497 3097 1228 2736 
Q 959 2375 959 1747 
Q 959 1119 1226 758 
Q 1494 397 1959 397 
Q 2419 397 2687 759 
Q 2956 1122 2956 1747 
Q 2956 2369 2687 2733 
Q 2419 3097 1959 3097 
z
M 1959 3584 
Q 2709 3584 3137 3096 
Q 3566 2609 3566 1747 
Q 3566 888 3137 398 
Q 2709 -91 1959 -91 
Q 1206 -91 779 398 
Q 353 888 353 1747 
Q 353 2609 779 3096 
Q 1206 3584 1959 3584 
z
" transform="scale(0.015625)"/>
       <path id="DejaVuSans-74" d="M 1172 4494 
L 1172 3500 
L 2356 3500 
L 2356 3053 
L 1172 3053 
L 1172 1153 
Q 1172 725 1289 603 
Q 1406 481 1766 481 
L 2356 481 
L 2356 0 
L 1766 0 
Q 1100 0 847 248 
Q 594 497 594 1153 
L 594 3053 
L 172 3053 
L 172 3500 
L 594 3500 
L 594 4494 
L 1172 4494 
z
" transform="scale(0.015625)"/>
       <path id="DejaVuSans-61" d="M 2194 1759 
Q 1497 1759 1228 1600 
Q 959 1441 959 1056 
Q 959 750 1161 570 
Q 1363 391 1709 391 
Q 2188 391 2477 730 
Q 2766 1069 2766 1631 
L 2766 1759 
L 2194 1759 
z
M 3341 1997 
L 3341 0 
L 2766 0 
L 2766 531 
Q 2569 213 2275 61 
Q 1981 -91 1556 -91 
Q 1019 -91 701 211 
Q 384 513 384 1019 
Q 384 1609 779 1909 
Q 1175 2209 1959 2209 
L 2766 2209 
L 2766 2266 
Q 2766 2663 2505 2880 
Q 2244 3097 1772 3097 
Q 1472 3097 1187 3025 
Q 903 2953 641 2809 
L 641 3341 
Q 956 3463 1253 3523 
Q 1550 3584 1831 3584 
Q 2591 3584 2966 3190 
Q 3341 2797 3341 1997 
z
" transform="scale(0.015625)"/>
       <path id="DejaVuSans-6c" d="M 603 4863 
L 1178 4863 
L 1178 0 
L 603 0 
L 603 4863 
z
" transform="scale(0.015625)"/>
       <path id="DejaVuSans-20" transform="scale(0.015625)"/>
       <path id="DejaVuSans-4f" d="M 2522 4238 
Q 1834 4238 1429 3725 
Q 1025 3213 1025 2328 
Q 1025 1447 1429 934 
Q 1834 422 2522 422 
Q 3209 422 3611 934 
Q 4013 1447 4013 2328 
Q 4013 3213 3611 3725 
Q 3209 4238 2522 4238 
z
M 2522 4750 
Q 3503 4750 4090 4092 
Q 4678 3434 4678 2328 
Q 4678 1225 4090 567 
Q 3503 -91 2522 -91 
Q 1538 -91 948 565 
Q 359 1222 359 2328 
Q 359 3434 948 4092 
Q 1538 4750 2522 4750 
z
" transform="scale(0.015625)"/>
       <path id="DejaVuSans-62" d="M 3116 1747 
Q 3116 2381 2855 2742 
Q 2594 3103 2138 3103 
Q 1681 3103 1420 2742 
Q 1159 2381 1159 1747 
Q 1159 1113 1420 752 
Q 1681 391 2138 391 
Q 2594 391 2855 752 
Q 3116 1113 3116 1747 
z
M 1159 2969 
Q 1341 3281 1617 3432 
Q 1894 3584 2278 3584 
Q 2916 3584 3314 3078 
Q 3713 2572 3713 1747 
Q 3713 922 3314 415 
Q 2916 -91 2278 -91 
Q 1894 -91 1617 61 
Q 1341 213 1159 525 
L 1159 0 
L 581 0 
L 581 4863 
L 1159 4863 
L 1159 2969 
z
" transform="scale(0.015625)"/>
       <path id="DejaVuSans-73" d="M 2834 3397 
L 2834 2853 
Q 2591 2978 2328 3040 
Q 2066 3103 1784 3103 
Q 1356 3103 1142 2972 
Q 928 2841 928 2578 
Q 928 2378 1081 2264 
Q 1234 2150 1697 2047 
L 1894 2003 
Q 2506 1872 2764 1633 
Q 3022 1394 3022 966 
Q 3022 478 2636 193 
Q 2250 -91 1575 -91 
Q 1294 -91 989 -36 
Q 684 19 347 128 
L 347 722 
Q 666 556 975 473 
Q 1284 391 1588 391 
Q 1994 391 2212 530 
Q 2431 669 2431 922 
Q 2431 1156 2273 1281 
Q 2116 1406 1581 1522 
L 1381 1569 
Q 847 1681 609 1914 
Q 372 2147 372 2553 
Q 372 3047 722 3315 
Q 1072 3584 1716 3584 
Q 2034 3584 2315 3537 
Q 2597 3491 2834 3397 
z
" transform="scale(0.015625)"/>
       <path id="DejaVuSans-65" d="M 3597 1894 
L 3597 1613 
L 953 1613 
Q 991 1019 1311 708 
Q 1631 397 2203 397 
Q 2534 397 2845 478 
Q 3156 559 3463 722 
L 3463 178 
Q 3153 47 2828 -22 
Q 2503 -91 2169 -91 
Q 1331 -91 842 396 
Q 353 884 353 1716 
Q 353 2575 817 3079 
Q 1281 3584 2069 3584 
Q 2775 3584 3186 3129 
Q 3597 2675 3597 1894 
z
M 3022 2063 
Q 3016 2534 2758 2815 
Q 2500 3097 2075 3097 
Q 1594 3097 1305 2825 
Q 1016 2553 972 2059 
L 3022 2063 
z
" transform="scale(0.015625)"/>
       <path id="DejaVuSans-72" d="M 2631 2963 
Q 2534 3019 2420 3045 
Q 2306 3072 2169 3072 
Q 1681 3072 1420 2755 
Q 1159 2438 1159 1844 
L 1159 0 
L 581 0 
L 581 3500 
L 1159 3500 
L 1159 2956 
Q 1341 3275 1631 3429 
Q 1922 3584 2338 3584 
Q 2397 3584 2469 3576 
Q 2541 3569 2628 3553 
L 2631 2963 
z
" transform="scale(0.015625)"/>
       <path id="DejaVuSans-76" d="M 191 3500 
L 800 3500 
L 1894 563 
L 2988 3500 
L 3597 3500 
L 2284 0 
L 1503 0 
L 191 3500 
z
" transform="scale(0.015625)"/>
       <path id="DejaVuSans-69" d="M 603 3500 
L 1178 3500 
L 1178 0 
L 603 0 
L 603 3500 
z
M 603 4863 
L 1178 4863 
L 1178 4134 
L 603 4134 
L 603 4863 
z
" transform="scale(0.015625)"/>
       <path id="DejaVuSans-6e" d="M 3513 2113 
L 3513 0 
L 2938 0 
L 2938 2094 
Q 2938 2591 2744 2837 
Q 2550 3084 2163 3084 
Q 1697 3084 1428 2787 
Q 1159 2491 1159 1978 
L 1159 0 
L 581 0 
L 581 3500 
L 1159 3500 
L 1159 2956 
Q 1366 3272 1645 3428 
Q 1925 3584 2291 3584 
Q 2894 3584 3203 3211 
Q 3513 2838 3513 2113 
z
" transform="scale(0.015625)"/>
      </defs>
      <use xlink:href="#DejaVuSans-54"/>
      <use xlink:href="#DejaVuSans-6f" x="44.083984"/>
      <use xlink:href="#DejaVuSans-74" x="105.265625"/>
      <use xlink:href="#DejaVuSans-61" x="144.474609"/>
      <use xlink:href="#DejaVuSans-6c" x="205.753906"/>
      <use xlink:href="#DejaVuSans-20" x="233.537109"/>
      <use xlink:href="#DejaVuSans-4f" x="265.324219"/>
      <use xlink:href="#DejaVuSans-62" x="344.035156"/>
      <use xlink:href="#DejaVuSans-73" x="407.511719"/>
      <use xlink:href="#DejaVuSans-65" x="459.611328"/>
      <use xlink:href="#DejaVuSans-72" x="521.134766"/>
      <use xlink:href="#DejaVuSans-76" x="562.248047"/>
      <use xlink:href="#DejaVuSans-61" x="621.427734"/>
      <use xlink:href="#DejaVuSans-74" x="682.707031"/>
      <use xlink:href="#DejaVuSans-69" x="721.916016"/>
      <use xlink:href="#DejaVuSans-6f" x="749.699219"/>
      <use xlink:href="#DejaVuSans-6e" x="810.880859"/>
      <use xlink:href="#DejaVuSans-73" x="874.259766"/>
     </g>
    </g>
   </g>
   <g id="matplotlib.axis_2">
    <g id="ytick_1">
     <g id="line2d_13">
      <path d="M 48.507266 200.486717 
L 383.307266 200.486717 
" clip-path="url(#p48737fade5)" style="fill: none; stroke: #b0b0b0; stroke-width: 0.3; stroke-linecap: square"/>
     </g>
     <g id="line2d_14">
      <defs>
       <path id="maf04faa29c" d="M 0 0 
L -3.5 0 
" style="stroke: #000000; stroke-width: 0.8"/>
      </defs>
      <g>
       <use xlink:href="#maf04faa29c" x="48.507266" y="200.486717" style="stroke: #000000; stroke-width: 0.8"/>
      </g>
     </g>
     <g id="text_8">
      <!-- 0.20 -->
      <g transform="translate(22.96 203.651466)scale(0.0833 -0.0833)">
       <defs>
        <path id="DejaVuSans-2e" d="M 684 794 
L 1344 794 
L 1344 0 
L 684 0 
L 684 794 
z
" transform="scale(0.015625)"/>
       </defs>
       <use xlink:href="#DejaVuSans-30"/>
       <use xlink:href="#DejaVuSans-2e" x="63.623047"/>
       <use xlink:href="#DejaVuSans-32" x="95.410156"/>
       <use xlink:href="#DejaVuSans-30" x="159.033203"/>
      </g>
     </g>
    </g>
    <g id="ytick_2">
     <g id="line2d_15">
      <path d="M 48.507266 158.871384 
L 383.307266 158.871384 
" clip-path="url(#p48737fade5)" style="fill: none; stroke: #b0b0b0; stroke-width: 0.3; stroke-linecap: square"/>
     </g>
     <g id="line2d_16">
      <g>
       <use xlink:href="#maf04faa29c" x="48.507266" y="158.871384" style="stroke: #000000; stroke-width: 0.8"/>
      </g>
     </g>
     <g id="text_9">
      <!-- 0.40 -->
      <g transform="translate(22.96 162.036133)scale(0.0833 -0.0833)">
       <use xlink:href="#DejaVuSans-30"/>
       <use xlink:href="#DejaVuSans-2e" x="63.623047"/>
       <use xlink:href="#DejaVuSans-34" x="95.410156"/>
       <use xlink:href="#DejaVuSans-30" x="159.033203"/>
      </g>
     </g>
    </g>
    <g id="ytick_3">
     <g id="line2d_17">
      <path d="M 48.507266 117.256052 
L 383.307266 117.256052 
" clip-path="url(#p48737fade5)" style="fill: none; stroke: #b0b0b0; stroke-width: 0.3; stroke-linecap: square"/>
     </g>
     <g id="line2d_18">
      <g>
       <use xlink:href="#maf04faa29c" x="48.507266" y="117.256052" style="stroke: #000000; stroke-width: 0.8"/>
      </g>
     </g>
     <g id="text_10">
      <!-- 0.60 -->
      <g transform="translate(22.96 120.420801)scale(0.0833 -0.0833)">
       <defs>
        <path id="DejaVuSans-36" d="M 2113 2584 
Q 1688 2584 1439 2293 
Q 1191 2003 1191 1497 
Q 1191 994 1439 701 
Q 1688 409 2113 409 
Q 2538 409 2786 701 
Q 3034 994 3034 1497 
Q 3034 2003 2786 2293 
Q 2538 2584 2113 2584 
z
M 3366 4563 
L 3366 3988 
Q 3128 4100 2886 4159 
Q 2644 4219 2406 4219 
Q 1781 4219 1451 3797 
Q 1122 3375 1075 2522 
Q 1259 2794 1537 2939 
Q 1816 3084 2150 3084 
Q 2853 3084 3261 2657 
Q 3669 2231 3669 1497 
Q 3669 778 3244 343 
Q 2819 -91 2113 -91 
Q 1303 -91 875 529 
Q 447 1150 447 2328 
Q 447 3434 972 4092 
Q 1497 4750 2381 4750 
Q 2619 4750 2861 4703 
Q 3103 4656 3366 4563 
z
" transform="scale(0.015625)"/>
       </defs>
       <use xlink:href="#DejaVuSans-30"/>
       <use xlink:href="#DejaVuSans-2e" x="63.623047"/>
       <use xlink:href="#DejaVuSans-36" x="95.410156"/>
       <use xlink:href="#DejaVuSans-30" x="159.033203"/>
      </g>
     </g>
    </g>
    <g id="ytick_4">
     <g id="line2d_19">
      <path d="M 48.507266 75.640719 
L 383.307266 75.640719 
" clip-path="url(#p48737fade5)" style="fill: none; stroke: #b0b0b0; stroke-width: 0.3; stroke-linecap: square"/>
     </g>
     <g id="line2d_20">
      <g>
       <use xlink:href="#maf04faa29c" x="48.507266" y="75.640719" style="stroke: #000000; stroke-width: 0.8"/>
      </g>
     </g>
     <g id="text_11">
      <!-- 0.80 -->
      <g transform="translate(22.96 78.805468)scale(0.0833 -0.0833)">
       <defs>
        <path id="DejaVuSans-38" d="M 2034 2216 
Q 1584 2216 1326 1975 
Q 1069 1734 1069 1313 
Q 1069 891 1326 650 
Q 1584 409 2034 409 
Q 2484 409 2743 651 
Q 3003 894 3003 1313 
Q 3003 1734 2745 1975 
Q 2488 2216 2034 2216 
z
M 1403 2484 
Q 997 2584 770 2862 
Q 544 3141 544 3541 
Q 544 4100 942 4425 
Q 1341 4750 2034 4750 
Q 2731 4750 3128 4425 
Q 3525 4100 3525 3541 
Q 3525 3141 3298 2862 
Q 3072 2584 2669 2484 
Q 3125 2378 3379 2068 
Q 3634 1759 3634 1313 
Q 3634 634 3220 271 
Q 2806 -91 2034 -91 
Q 1263 -91 848 271 
Q 434 634 434 1313 
Q 434 1759 690 2068 
Q 947 2378 1403 2484 
z
M 1172 3481 
Q 1172 3119 1398 2916 
Q 1625 2713 2034 2713 
Q 2441 2713 2670 2916 
Q 2900 3119 2900 3481 
Q 2900 3844 2670 4047 
Q 2441 4250 2034 4250 
Q 1625 4250 1398 4047 
Q 1172 3844 1172 3481 
z
" transform="scale(0.015625)"/>
       </defs>
       <use xlink:href="#DejaVuSans-30"/>
       <use xlink:href="#DejaVuSans-2e" x="63.623047"/>
       <use xlink:href="#DejaVuSans-38" x="95.410156"/>
       <use xlink:href="#DejaVuSans-30" x="159.033203"/>
      </g>
     </g>
    </g>
    <g id="ytick_5">
     <g id="line2d_21">
      <path d="M 48.507266 34.025386 
L 383.307266 34.025386 
" clip-path="url(#p48737fade5)" style="fill: none; stroke: #b0b0b0; stroke-width: 0.3; stroke-linecap: square"/>
     </g>
     <g id="line2d_22">
      <g>
       <use xlink:href="#maf04faa29c" x="48.507266" y="34.025386" style="stroke: #000000; stroke-width: 0.8"/>
      </g>
     </g>
     <g id="text_12">
      <!-- 1.00 -->
      <g transform="translate(22.96 37.190136)scale(0.0833 -0.0833)">
       <use xlink:href="#DejaVuSans-31"/>
       <use xlink:href="#DejaVuSans-2e" x="63.623047"/>
       <use xlink:href="#DejaVuSans-30" x="95.410156"/>
       <use xlink:href="#DejaVuSans-30" x="159.033203"/>
      </g>
     </g>
    </g>
    <g id="text_13">
     <!-- Power $(1 - \beta)$ -->
     <g transform="translate(16.44 172.82175)rotate(-90)scale(0.12 -0.12)">
      <defs>
       <path id="DejaVuSans-50" d="M 1259 4147 
L 1259 2394 
L 2053 2394 
Q 2494 2394 2734 2622 
Q 2975 2850 2975 3272 
Q 2975 3691 2734 3919 
Q 2494 4147 2053 4147 
L 1259 4147 
z
M 628 4666 
L 2053 4666 
Q 2838 4666 3239 4311 
Q 3641 3956 3641 3272 
Q 3641 2581 3239 2228 
Q 2838 1875 2053 1875 
L 1259 1875 
L 1259 0 
L 628 0 
L 628 4666 
z
" transform="scale(0.015625)"/>
       <path id="DejaVuSans-77" d="M 269 3500 
L 844 3500 
L 1563 769 
L 2278 3500 
L 2956 3500 
L 3675 769 
L 4391 3500 
L 4966 3500 
L 4050 0 
L 3372 0 
L 2619 2869 
L 1863 0 
L 1184 0 
L 269 3500 
z
" transform="scale(0.015625)"/>
       <path id="DejaVuSans-28" d="M 1984 4856 
Q 1566 4138 1362 3434 
Q 1159 2731 1159 2009 
Q 1159 1288 1364 580 
Q 1569 -128 1984 -844 
L 1484 -844 
Q 1016 -109 783 600 
Q 550 1309 550 2009 
Q 550 2706 781 3412 
Q 1013 4119 1484 4856 
L 1984 4856 
z
" transform="scale(0.015625)"/>
       <path id="DejaVuSans-2212" d="M 678 2272 
L 4684 2272 
L 4684 1741 
L 678 1741 
L 678 2272 
z
" transform="scale(0.015625)"/>
       <path id="DejaVuSans-Oblique-3b2" d="M 872 216 
L 572 -1331 
L -6 -1331 
L 928 3478 
Q 1206 4903 2538 4903 
Q 3888 4903 3659 3700 
Q 3503 2844 2894 2531 
Q 3713 2250 3553 1416 
Q 3272 -69 1759 -66 
Q 1097 -63 872 216 
z
M 1019 966 
Q 1259 422 1875 425 
Q 2775 425 2966 1406 
Q 3138 2288 1675 2219 
L 1778 2750 
Q 2909 2731 3106 3750 
Q 3241 4438 2509 4434 
Q 1691 4434 1503 3459 
L 1019 966 
z
" transform="scale(0.015625)"/>
       <path id="DejaVuSans-29" d="M 513 4856 
L 1013 4856 
Q 1481 4119 1714 3412 
Q 1947 2706 1947 2009 
Q 1947 1309 1714 600 
Q 1481 -109 1013 -844 
L 513 -844 
Q 928 -128 1133 580 
Q 1338 1288 1338 2009 
Q 1338 2731 1133 3434 
Q 928 4138 513 4856 
z
" transform="scale(0.015625)"/>
      </defs>
      <use xlink:href="#DejaVuSans-50" transform="translate(0 0.390625)"/>
      <use xlink:href="#DejaVuSans-6f" transform="translate(60.302734 0.390625)"/>
      <use xlink:href="#DejaVuSans-77" transform="translate(121.484375 0.390625)"/>
      <use xlink:href="#DejaVuSans-65" transform="translate(203.271484 0.390625)"/>
      <use xlink:href="#DejaVuSans-72" transform="translate(264.794922 0.390625)"/>
      <use xlink:href="#DejaVuSans-20" transform="translate(305.908203 0.390625)"/>
      <use xlink:href="#DejaVuSans-28" transform="translate(337.695312 0.390625)"/>
      <use xlink:href="#DejaVuSans-31" transform="translate(376.708984 0.390625)"/>
      <use xlink:href="#DejaVuSans-2212" transform="translate(459.814453 0.390625)"/>
      <use xlink:href="#DejaVuSans-Oblique-3b2" transform="translate(563.085938 0.390625)"/>
      <use xlink:href="#DejaVuSans-29" transform="translate(626.904297 0.390625)"/>
     </g>
    </g>
   </g>
   <g id="line2d_23">
    <path d="M 63.725447 180.32855 
L 76.407266 128.530666 
L 89.089084 90.807287 
L 101.770902 66.358894 
L 114.45272 51.684386 
L 127.134538 43.350732 
L 139.816357 38.81455 
L 152.498175 36.42762 
L 165.179993 35.20615 
L 177.861811 34.595588 
L 190.543629 34.296478 
L 203.225447 34.152493 
L 215.907266 34.084248 
L 228.589084 34.052339 
L 241.270902 34.037603 
L 253.95272 34.025386 
L 266.634538 34.025386 
L 279.316357 34.025386 
L 291.998175 34.025386 
L 304.679993 34.025386 
L 317.361811 34.025386 
L 330.043629 34.025386 
L 342.725447 34.025386 
L 355.407266 34.025386 
L 368.089084 34.025386 
" clip-path="url(#p48737fade5)" style="fill: none; stroke: #eca57a; stroke-width: 2; stroke-linecap: square"/>
   </g>
   <g id="line2d_24">
    <path d="M 63.725447 185.915526 
L 76.407266 138.1489 
L 89.089084 101.144036 
L 101.770902 75.3244 
L 114.45272 58.522659 
L 127.134538 48.129276 
L 139.816357 41.945825 
L 152.498175 38.38012 
L 165.179993 36.376233 
L 177.861811 35.274282 
L 190.543629 34.679523 
L 203.225447 34.36369 
L 215.907266 34.198363 
L 228.589084 34.11292 
L 241.270902 34.06927 
L 253.95272 34.047196 
L 266.634538 34.025386 
L 279.316357 34.025386 
L 291.998175 34.025386 
L 304.679993 34.025386 
L 317.361811 34.025386 
L 330.043629 34.025386 
L 342.725447 34.025386 
L 355.407266 34.025386 
L 368.089084 34.025386 
" clip-path="url(#p48737fade5)" style="fill: none; stroke: #eb9973; stroke-width: 2; stroke-linecap: square"/>
   </g>
   <g id="line2d_25">
    <path d="M 63.725447 190.525131 
L 76.407266 146.466582 
L 89.089084 110.655352 
L 101.770902 84.170684 
L 114.45272 65.793222 
L 127.134538 53.622189 
L 139.816357 45.846821 
L 152.498175 41.021321 
L 165.179993 38.09738 
L 177.861811 36.361146 
L 190.543629 35.347962 
L 203.225447 34.765621 
L 215.907266 34.435374 
L 228.589084 34.25031 
L 241.270902 34.147713 
L 253.95272 34.091388 
L 266.634538 34.060735 
L 279.316357 34.044192 
L 291.998175 34.025386 
L 304.679993 34.025386 
L 317.361811 34.025386 
L 330.043629 34.025386 
L 342.725447 34.025386 
L 355.407266 34.025386 
L 368.089084 34.025386 
" clip-path="url(#p48737fade5)" style="fill: none; stroke: #ea8f6c; stroke-width: 2; stroke-linecap: square"/>
   </g>
   <g id="line2d_26">
    <path d="M 63.725447 200.670516 
L 76.407266 165.921173 
L 89.089084 134.861189 
L 101.770902 108.997116 
L 114.45272 88.502366 
L 127.134538 72.852947 
L 139.816357 61.245042 
L 152.498175 52.835119 
L 165.179993 46.860302 
L 177.861811 42.685572 
L 190.543629 39.810232 
L 203.225447 37.854622 
L 215.907266 36.539287 
L 228.589084 35.663363 
L 241.270902 35.085271 
L 253.95272 34.706835 
L 266.634538 34.460934 
L 279.316357 34.302234 
L 291.998175 34.200459 
L 304.679993 34.135567 
L 317.361811 34.094417 
L 330.043629 34.068453 
L 342.725447 34.052148 
L 355.407266 34.041955 
L 368.089084 34.025386 
" clip-path="url(#p48737fade5)" style="fill: none; stroke: #e88366; stroke-width: 2; stroke-linecap: square"/>
   </g>
   <g id="line2d_27">
    <path d="M 63.725447 201.400035 
L 76.407266 167.376886 
L 89.089084 136.777163 
L 101.770902 111.092737 
L 114.45272 90.555604 
L 127.134538 74.719842 
L 139.816357 62.85197 
L 152.498175 54.160943 
L 165.179993 47.917711 
L 177.861811 43.505667 
L 190.543629 40.431496 
L 203.225447 38.315877 
L 215.907266 36.875813 
L 228.589084 35.90515 
L 241.270902 35.256639 
L 253.95272 34.826817 
L 266.634538 34.544022 
L 279.316357 34.359205 
L 291.998175 34.239167 
L 304.679993 34.161649 
L 317.361811 34.111852 
L 330.043629 34.080027 
L 342.725447 34.05978 
L 355.407266 34.046956 
L 368.089084 34.038866 
" clip-path="url(#p48737fade5)" style="fill: none; stroke: #e67760; stroke-width: 2; stroke-linecap: square"/>
   </g>
   <g id="line2d_28">
    <path d="M 63.725447 219.753237 
L 76.407266 205.910423 
L 89.089084 191.958012 
L 101.770902 178.194897 
L 114.45272 164.85774 
L 127.134538 152.120464 
L 139.816357 140.103393 
L 152.498175 128.882656 
L 165.179993 118.498775 
L 177.861811 108.964203 
L 190.543629 100.269807 
L 203.225447 92.390325 
L 215.907266 85.288907 
L 228.589084 78.920832 
L 241.270902 73.236493 
L 253.95272 68.183753 
L 266.634538 63.709791 
L 279.316357 59.762462 
L 291.998175 56.291345 
L 304.679993 53.248437 
L 317.361811 50.588629 
L 330.043629 48.270007 
L 342.725447 46.253959 
L 355.407266 44.505225 
L 368.089084 42.991811 
" clip-path="url(#p48737fade5)" style="fill: none; stroke: #e46c5d; stroke-width: 2; stroke-linecap: square"/>
   </g>
   <g id="line2d_29">
    <path d="M 63.725447 221.293364 
L 76.407266 209.252463 
L 89.089084 197.063937 
L 101.770902 184.940203 
L 114.45272 173.059115 
L 127.134538 161.559406 
L 139.816357 150.544953 
L 152.498175 140.089773 
L 165.179993 130.242809 
L 177.861811 121.032271 
L 190.543629 112.46953 
L 203.225447 104.552506 
L 215.907266 97.268601 
L 228.589084 90.597228 
L 241.270902 84.511907 
L 253.95272 78.982056 
L 266.634538 73.974434 
L 279.316357 69.454323 
L 291.998175 65.386492 
L 304.679993 61.735921 
L 317.361811 58.468393 
L 330.043629 55.550905 
L 342.725447 52.951995 
L 355.407266 50.641927 
L 368.089084 48.59285 
" clip-path="url(#p48737fade5)" style="fill: none; stroke: #e0605c; stroke-width: 2; stroke-linecap: square"/>
   </g>
   <g id="line2d_30">
    <path d="M 63.725447 223.60598 
L 76.407266 214.276361 
L 89.089084 204.793884 
L 101.770902 195.26795 
L 114.45272 185.798822 
L 127.134538 176.471117 
L 139.816357 167.354399 
L 152.498175 158.504585 
L 165.179993 149.965465 
L 177.861811 141.770183 
L 190.543629 133.94262 
L 203.225447 126.498678 
L 215.907266 119.447456 
L 228.589084 112.7923 
L 241.270902 106.531765 
L 253.95272 100.660451 
L 266.634538 95.169763 
L 279.316357 90.048556 
L 291.998175 85.283719 
L 304.679993 80.860666 
L 317.361811 76.763755 
L 330.043629 72.976668 
L 342.725447 69.482694 
L 355.407266 66.265007 
L 368.089084 63.30686 
" clip-path="url(#p48737fade5)" style="fill: none; stroke: #db565d; stroke-width: 2; stroke-linecap: square"/>
   </g>
   <g id="line2d_31">
    <path d="M 63.725447 225.424699 
L 76.407266 218.224058 
L 89.089084 210.899205 
L 101.770902 203.503018 
L 114.45272 196.088692 
L 127.134538 188.703786 
L 139.816357 181.389822 
L 152.498175 174.182561 
L 165.179993 167.112428 
L 177.861811 160.204957 
L 190.543629 153.481235 
L 203.225447 146.958338 
L 215.907266 140.649728 
L 228.589084 134.565647 
L 241.270902 128.71347 
L 253.95272 123.098043 
L 266.634538 117.721991 
L 279.316357 112.585999 
L 291.998175 107.68908 
L 304.679993 103.028806 
L 317.361811 98.601526 
L 330.043629 94.402566 
L 342.725447 90.426397 
L 355.407266 86.666794 
L 368.089084 83.116987 
" clip-path="url(#p48737fade5)" style="fill: none; stroke: #d44d60; stroke-width: 2; stroke-linecap: square"/>
   </g>
   <g id="line2d_32">
    <path d="M 63.725447 226.071726 
L 76.407266 219.626217 
L 89.089084 213.07127 
L 101.770902 206.444886 
L 114.45272 199.787094 
L 127.134538 193.134442 
L 139.816357 186.519466 
L 152.498175 179.970792 
L 165.179993 173.513362 
L 177.861811 167.16869 
L 190.543629 160.955134 
L 203.225447 154.888154 
L 215.907266 148.980566 
L 228.589084 143.24278 
L 241.270902 137.683032 
L 253.95272 132.307601 
L 266.634538 127.121003 
L 279.316357 122.126193 
L 291.998175 117.324729 
L 304.679993 112.716939 
L 317.361811 108.302078 
L 330.043629 104.078458 
L 342.725447 100.043575 
L 355.407266 96.194237 
L 368.089084 92.526656 
" clip-path="url(#p48737fade5)" style="fill: none; stroke: #cc4664; stroke-width: 2; stroke-linecap: square"/>
   </g>
   <g id="line2d_33">
    <path d="M 63.725447 228.036885 
L 76.407266 223.87229 
L 89.089084 219.649265 
L 101.770902 215.376383 
L 114.45272 211.065815 
L 127.134538 206.729568 
L 139.816357 202.378973 
L 152.498175 198.024593 
L 165.179993 193.676213 
L 177.861811 189.342858 
L 190.543629 185.032821 
L 203.225447 180.753694 
L 215.907266 176.5124 
L 228.589084 172.31523 
L 241.270902 168.167871 
L 253.95272 164.075441 
L 266.634538 160.042522 
L 279.316357 156.073184 
L 291.998175 152.171027 
L 304.679993 148.339198 
L 317.361811 144.580426 
L 330.043629 140.897045 
L 342.725447 137.291025 
L 355.407266 133.763991 
L 368.089084 130.317252 
" clip-path="url(#p48737fade5)" style="fill: none; stroke: #c14168; stroke-width: 2; stroke-linecap: square"/>
   </g>
   <g id="line2d_34">
    <path d="M 63.725447 228.87657 
L 76.407266 225.67874 
L 89.089084 222.443539 
L 101.770902 219.173391 
L 114.45272 215.873892 
L 127.134538 212.550879 
L 139.816357 209.210027 
L 152.498175 205.856753 
L 165.179993 202.496191 
L 177.861811 199.133189 
L 190.543629 195.772314 
L 203.225447 192.417856 
L 215.907266 189.073837 
L 228.589084 185.744022 
L 241.270902 182.431927 
L 253.95272 179.140826 
L 266.634538 175.873763 
L 279.316357 172.633561 
L 291.998175 169.42283 
L 304.679993 166.243976 
L 317.361811 163.099212 
L 330.043629 159.990562 
L 342.725447 156.919873 
L 355.407266 153.888824 
L 368.089084 150.898932 
" clip-path="url(#p48737fade5)" style="fill: none; stroke: #b73d6b; stroke-width: 2; stroke-linecap: square"/>
   </g>
   <g id="line2d_35">
    <path d="M 63.725447 229.855481 
L 76.407266 227.776943 
L 89.089084 225.681707 
L 101.770902 223.568895 
L 114.45272 221.439866 
L 127.134538 219.296295 
L 139.816357 217.139904 
L 152.498175 214.972393 
L 165.179993 212.795417 
L 177.861811 210.610582 
L 190.543629 208.419438 
L 203.225447 206.223481 
L 215.907266 204.024154 
L 228.589084 201.822842 
L 241.270902 199.62088 
L 253.95272 197.419549 
L 266.634538 195.220079 
L 279.316357 193.023651 
L 291.998175 190.831394 
L 304.679993 188.644392 
L 317.361811 186.463679 
L 330.043629 184.290247 
L 342.725447 182.125041 
L 355.407266 179.968962 
L 368.089084 177.822871 
" clip-path="url(#p48737fade5)" style="fill: none; stroke: #ac3a6d; stroke-width: 2; stroke-linecap: square"/>
   </g>
   <g id="line2d_36">
    <path d="M 63.725447 230.035028 
L 76.407266 228.160755 
L 89.089084 226.272896 
L 101.770902 224.370336 
L 114.45272 222.453996 
L 127.134538 220.525099 
L 139.816357 218.584923 
L 152.498175 216.634742 
L 165.179993 214.675804 
L 177.861811 212.709323 
L 190.543629 210.73648 
L 203.225447 208.758418 
L 215.907266 206.776244 
L 228.589084 204.791029 
L 241.270902 202.803805 
L 253.95272 200.815571 
L 266.634538 198.82729 
L 279.316357 196.839889 
L 291.998175 194.854263 
L 304.679993 192.871273 
L 317.361811 190.891747 
L 330.043629 188.916481 
L 342.725447 186.946242 
L 355.407266 184.981763 
L 368.089084 183.023751 
" clip-path="url(#p48737fade5)" style="fill: none; stroke: #a1386f; stroke-width: 2; stroke-linecap: square"/>
   </g>
   <g id="line2d_37">
    <path d="M 63.725447 230.698654 
L 76.407266 229.576285 
L 89.089084 228.449402 
L 101.770902 227.316773 
L 114.45272 226.178415 
L 127.134538 225.034547 
L 139.816357 223.885438 
L 152.498175 222.731377 
L 165.179993 221.572656 
L 177.861811 220.409564 
L 190.543629 219.242391 
L 203.225447 218.071419 
L 215.907266 216.896928 
L 228.589084 215.719194 
L 241.270902 214.538485 
L 253.95272 213.355066 
L 266.634538 212.169198 
L 279.316357 210.981135 
L 291.998175 209.791126 
L 304.679993 208.599416 
L 317.361811 207.406245 
L 330.043629 206.211848 
L 342.725447 205.016455 
L 355.407266 203.820291 
L 368.089084 202.623576 
" clip-path="url(#p48737fade5)" style="fill: none; stroke: #963570; stroke-width: 2; stroke-linecap: square"/>
   </g>
   <g id="line2d_38">
    <path d="M 63.725447 230.994366 
L 76.407266 230.205379 
L 89.089084 229.414488 
L 101.770902 228.620709 
L 114.45272 227.823941 
L 127.134538 227.024225 
L 139.816357 226.221644 
L 152.498175 225.416296 
L 165.179993 224.608281 
L 177.861811 223.797704 
L 190.543629 222.98467 
L 203.225447 222.169283 
L 215.907266 221.351646 
L 228.589084 220.531863 
L 241.270902 219.710033 
L 253.95272 218.886259 
L 266.634538 218.060639 
L 279.316357 217.233271 
L 291.998175 216.404251 
L 304.679993 215.573676 
L 317.361811 214.741638 
L 330.043629 213.908232 
L 342.725447 213.073548 
L 355.407266 212.237678 
L 368.089084 211.400709 
" clip-path="url(#p48737fade5)" style="fill: none; stroke: #8b3271; stroke-width: 2; stroke-linecap: square"/>
   </g>
   <g id="line2d_39">
    <path d="M 63.725447 231.448849 
L 76.407266 231.170076 
L 89.089084 230.89138 
L 101.770902 230.612376 
L 114.45272 230.332991 
L 127.134538 230.053206 
L 139.816357 229.773014 
L 152.498175 229.492415 
L 165.179993 229.211412 
L 177.861811 228.930008 
L 190.543629 228.648207 
L 203.225447 228.366013 
L 215.907266 228.083431 
L 228.589084 227.800466 
L 241.270902 227.517123 
L 253.95272 227.233405 
L 266.634538 226.94932 
L 279.316357 226.66487 
L 291.998175 226.380062 
L 304.679993 226.0949 
L 317.361811 225.809388 
L 330.043629 225.523533 
L 342.725447 225.237338 
L 355.407266 224.950809 
L 368.089084 224.663951 
" clip-path="url(#p48737fade5)" style="fill: none; stroke: #812f70; stroke-width: 2; stroke-linecap: square"/>
   </g>
   <g id="line2d_40">
    <path d="M 63.725447 231.459114 
L 76.407266 231.191834 
L 89.089084 230.924644 
L 101.770902 230.657176 
L 114.45272 230.38936 
L 127.134538 230.121174 
L 139.816357 229.852615 
L 152.498175 229.58368 
L 165.179993 229.314373 
L 177.861811 229.044695 
L 190.543629 228.77465 
L 203.225447 228.504242 
L 215.907266 228.233475 
L 228.589084 227.962353 
L 241.270902 227.690881 
L 253.95272 227.419062 
L 266.634538 227.146901 
L 279.316357 226.874403 
L 291.998175 226.601572 
L 304.679993 226.328411 
L 317.361811 226.054926 
L 330.043629 225.781121 
L 342.725447 225.506999 
L 355.407266 225.232566 
L 368.089084 224.957826 
" clip-path="url(#p48737fade5)" style="fill: none; stroke: #752d6f; stroke-width: 2; stroke-linecap: square"/>
   </g>
   <g id="line2d_41">
    <path d="M 63.725447 231.56785 
L 76.407266 231.422218 
L 89.089084 231.276736 
L 101.770902 231.131199 
L 114.45272 230.985568 
L 127.134538 230.839831 
L 139.816357 230.693982 
L 152.498175 230.548019 
L 165.179993 230.401941 
L 177.861811 230.255749 
L 190.543629 230.109443 
L 203.225447 229.963022 
L 215.907266 229.816487 
L 228.589084 229.669839 
L 241.270902 229.523078 
L 253.95272 229.376206 
L 266.634538 229.229222 
L 279.316357 229.082128 
L 291.998175 228.934923 
L 304.679993 228.78761 
L 317.361811 228.640188 
L 330.043629 228.492658 
L 342.725447 228.345021 
L 355.407266 228.197277 
L 368.089084 228.049428 
" clip-path="url(#p48737fade5)" style="fill: none; stroke: #6a2b6c; stroke-width: 2; stroke-linecap: square"/>
   </g>
   <g id="line2d_42">
    <path d="M 63.725447 231.577174 
L 76.407266 231.441966 
L 89.089084 231.306904 
L 101.770902 231.1718 
L 114.45272 231.036617 
L 127.134538 230.901342 
L 139.816357 230.765971 
L 152.498175 230.630502 
L 165.179993 230.494934 
L 177.861811 230.359267 
L 190.543629 230.223501 
L 203.225447 230.087636 
L 215.907266 229.951673 
L 228.589084 229.815611 
L 241.270902 229.679452 
L 253.95272 229.543195 
L 266.634538 229.406842 
L 279.316357 229.270392 
L 291.998175 229.133847 
L 304.679993 228.997207 
L 317.361811 228.860473 
L 330.043629 228.723644 
L 342.725447 228.586723 
L 355.407266 228.449708 
L 368.089084 228.312602 
" clip-path="url(#p48737fade5)" style="fill: none; stroke: #602969; stroke-width: 2; stroke-linecap: square"/>
   </g>
   <g id="line2d_43">
    <path d="M 63.725447 231.698114 
L 76.407266 231.697999 
L 89.089084 231.697885 
L 101.770902 231.697771 
L 114.45272 231.697657 
L 127.134538 231.697543 
L 139.816357 231.697428 
L 152.498175 231.697314 
L 165.179993 231.6972 
L 177.861811 231.697086 
L 190.543629 231.696972 
L 203.225447 231.696858 
L 215.907266 231.696744 
L 228.589084 231.69663 
L 241.270902 231.696515 
L 253.95272 231.696401 
L 266.634538 231.696287 
L 279.316357 231.696173 
L 291.998175 231.696059 
L 304.679993 231.695945 
L 317.361811 231.695831 
L 330.043629 231.695717 
L 342.725447 231.695603 
L 355.407266 231.695488 
L 368.089084 231.695374 
" clip-path="url(#p48737fade5)" style="fill: none; stroke: #552665; stroke-width: 2; stroke-linecap: square"/>
   </g>
   <g id="line2d_44"/>
   <g id="line2d_45"/>
   <g id="line2d_46"/>
   <g id="line2d_47"/>
   <g id="line2d_48"/>
   <g id="line2d_49"/>
   <g id="line2d_50"/>
   <g id="line2d_51"/>
   <g id="line2d_52"/>
   <g id="line2d_53"/>
   <g id="line2d_54"/>
   <g id="line2d_55"/>
   <g id="line2d_56"/>
   <g id="line2d_57"/>
   <g id="line2d_58"/>
   <g id="line2d_59"/>
   <g id="line2d_60"/>
   <g id="line2d_61"/>
   <g id="line2d_62"/>
   <g id="line2d_63"/>
   <g id="line2d_64"/>
   <g id="patch_3">
    <path d="M 48.507266 241.58175 
L 48.507266 24.14175 
" style="fill: none; stroke: #000000; stroke-width: 0.8; stroke-linejoin: miter; stroke-linecap: square"/>
   </g>
   <g id="patch_4">
    <path d="M 48.507266 241.58175 
L 383.307266 241.58175 
" style="fill: none; stroke: #000000; stroke-width: 0.8; stroke-linejoin: miter; stroke-linecap: square"/>
   </g>
   <g id="text_14">
    <!-- Age Category - Pairwise -->
    <g transform="translate(130.168766 18.14175)scale(0.144 -0.144)">
     <defs>
      <path id="DejaVuSans-41" d="M 2188 4044 
L 1331 1722 
L 3047 1722 
L 2188 4044 
z
M 1831 4666 
L 2547 4666 
L 4325 0 
L 3669 0 
L 3244 1197 
L 1141 1197 
L 716 0 
L 50 0 
L 1831 4666 
z
" transform="scale(0.015625)"/>
      <path id="DejaVuSans-67" d="M 2906 1791 
Q 2906 2416 2648 2759 
Q 2391 3103 1925 3103 
Q 1463 3103 1205 2759 
Q 947 2416 947 1791 
Q 947 1169 1205 825 
Q 1463 481 1925 481 
Q 2391 481 2648 825 
Q 2906 1169 2906 1791 
z
M 3481 434 
Q 3481 -459 3084 -895 
Q 2688 -1331 1869 -1331 
Q 1566 -1331 1297 -1286 
Q 1028 -1241 775 -1147 
L 775 -588 
Q 1028 -725 1275 -790 
Q 1522 -856 1778 -856 
Q 2344 -856 2625 -561 
Q 2906 -266 2906 331 
L 2906 616 
Q 2728 306 2450 153 
Q 2172 0 1784 0 
Q 1141 0 747 490 
Q 353 981 353 1791 
Q 353 2603 747 3093 
Q 1141 3584 1784 3584 
Q 2172 3584 2450 3431 
Q 2728 3278 2906 2969 
L 2906 3500 
L 3481 3500 
L 3481 434 
z
" transform="scale(0.015625)"/>
      <path id="DejaVuSans-43" d="M 4122 4306 
L 4122 3641 
Q 3803 3938 3442 4084 
Q 3081 4231 2675 4231 
Q 1875 4231 1450 3742 
Q 1025 3253 1025 2328 
Q 1025 1406 1450 917 
Q 1875 428 2675 428 
Q 3081 428 3442 575 
Q 3803 722 4122 1019 
L 4122 359 
Q 3791 134 3420 21 
Q 3050 -91 2638 -91 
Q 1578 -91 968 557 
Q 359 1206 359 2328 
Q 359 3453 968 4101 
Q 1578 4750 2638 4750 
Q 3056 4750 3426 4639 
Q 3797 4528 4122 4306 
z
" transform="scale(0.015625)"/>
      <path id="DejaVuSans-79" d="M 2059 -325 
Q 1816 -950 1584 -1140 
Q 1353 -1331 966 -1331 
L 506 -1331 
L 506 -850 
L 844 -850 
Q 1081 -850 1212 -737 
Q 1344 -625 1503 -206 
L 1606 56 
L 191 3500 
L 800 3500 
L 1894 763 
L 2988 3500 
L 3597 3500 
L 2059 -325 
z
" transform="scale(0.015625)"/>
      <path id="DejaVuSans-2d" d="M 313 2009 
L 1997 2009 
L 1997 1497 
L 313 1497 
L 313 2009 
z
" transform="scale(0.015625)"/>
     </defs>
     <use xlink:href="#DejaVuSans-41"/>
     <use xlink:href="#DejaVuSans-67" x="68.408203"/>
     <use xlink:href="#DejaVuSans-65" x="131.884766"/>
     <use xlink:href="#DejaVuSans-20" x="193.408203"/>
     <use xlink:href="#DejaVuSans-43" x="225.195312"/>
     <use xlink:href="#DejaVuSans-61" x="295.019531"/>
     <use xlink:href="#DejaVuSans-74" x="356.298828"/>
     <use xlink:href="#DejaVuSans-65" x="395.507812"/>
     <use xlink:href="#DejaVuSans-67" x="457.03125"/>
     <use xlink:href="#DejaVuSans-6f" x="520.507812"/>
     <use xlink:href="#DejaVuSans-72" x="581.689453"/>
     <use xlink:href="#DejaVuSans-79" x="622.802734"/>
     <use xlink:href="#DejaVuSans-20" x="681.982422"/>
     <use xlink:href="#DejaVuSans-2d" x="713.769531"/>
     <use xlink:href="#DejaVuSans-20" x="749.853516"/>
     <use xlink:href="#DejaVuSans-50" x="781.640625"/>
     <use xlink:href="#DejaVuSans-61" x="837.443359"/>
     <use xlink:href="#DejaVuSans-69" x="898.722656"/>
     <use xlink:href="#DejaVuSans-72" x="926.505859"/>
     <use xlink:href="#DejaVuSans-77" x="967.619141"/>
     <use xlink:href="#DejaVuSans-69" x="1049.40625"/>
     <use xlink:href="#DejaVuSans-73" x="1077.189453"/>
     <use xlink:href="#DejaVuSans-65" x="1129.289062"/>
    </g>
   </g>
   <g id="legend_1">
    <g id="line2d_65">
     <path d="M 111.419059 294.160066 
L 118.359059 294.160066 
L 125.299059 294.160066 
" style="fill: none; stroke: #eca57a; stroke-width: 2; stroke-linecap: square"/>
    </g>
    <g id="text_15">
     <!-- 40s vs 70+ -->
     <g transform="translate(130.851059 296.589066)scale(0.0694 -0.0694)">
      <defs>
       <path id="DejaVuSans-37" d="M 525 4666 
L 3525 4666 
L 3525 4397 
L 1831 0 
L 1172 0 
L 2766 4134 
L 525 4134 
L 525 4666 
z
" transform="scale(0.015625)"/>
       <path id="DejaVuSans-2b" d="M 2944 4013 
L 2944 2272 
L 4684 2272 
L 4684 1741 
L 2944 1741 
L 2944 0 
L 2419 0 
L 2419 1741 
L 678 1741 
L 678 2272 
L 2419 2272 
L 2419 4013 
L 2944 4013 
z
" transform="scale(0.015625)"/>
      </defs>
      <use xlink:href="#DejaVuSans-34"/>
      <use xlink:href="#DejaVuSans-30" x="63.623047"/>
      <use xlink:href="#DejaVuSans-73" x="127.246094"/>
      <use xlink:href="#DejaVuSans-20" x="179.345703"/>
      <use xlink:href="#DejaVuSans-76" x="211.132812"/>
      <use xlink:href="#DejaVuSans-73" x="270.3125"/>
      <use xlink:href="#DejaVuSans-20" x="322.412109"/>
      <use xlink:href="#DejaVuSans-37" x="354.199219"/>
      <use xlink:href="#DejaVuSans-30" x="417.822266"/>
      <use xlink:href="#DejaVuSans-2b" x="481.445312"/>
     </g>
    </g>
    <g id="line2d_66">
     <path d="M 111.419059 304.346684 
L 118.359059 304.346684 
L 125.299059 304.346684 
" style="fill: none; stroke: #eb9973; stroke-width: 2; stroke-linecap: square"/>
    </g>
    <g id="text_16">
     <!-- 30s vs 70+ -->
     <g transform="translate(130.851059 306.775684)scale(0.0694 -0.0694)">
      <use xlink:href="#DejaVuSans-33"/>
      <use xlink:href="#DejaVuSans-30" x="63.623047"/>
      <use xlink:href="#DejaVuSans-73" x="127.246094"/>
      <use xlink:href="#DejaVuSans-20" x="179.345703"/>
      <use xlink:href="#DejaVuSans-76" x="211.132812"/>
      <use xlink:href="#DejaVuSans-73" x="270.3125"/>
      <use xlink:href="#DejaVuSans-20" x="322.412109"/>
      <use xlink:href="#DejaVuSans-37" x="354.199219"/>
      <use xlink:href="#DejaVuSans-30" x="417.822266"/>
      <use xlink:href="#DejaVuSans-2b" x="481.445312"/>
     </g>
    </g>
    <g id="line2d_67">
     <path d="M 111.419059 314.533303 
L 118.359059 314.533303 
L 125.299059 314.533303 
" style="fill: none; stroke: #ea8f6c; stroke-width: 2; stroke-linecap: square"/>
    </g>
    <g id="text_17">
     <!-- 20s vs 70+ -->
     <g transform="translate(130.851059 316.962303)scale(0.0694 -0.0694)">
      <use xlink:href="#DejaVuSans-32"/>
      <use xlink:href="#DejaVuSans-30" x="63.623047"/>
      <use xlink:href="#DejaVuSans-73" x="127.246094"/>
      <use xlink:href="#DejaVuSans-20" x="179.345703"/>
      <use xlink:href="#DejaVuSans-76" x="211.132812"/>
      <use xlink:href="#DejaVuSans-73" x="270.3125"/>
      <use xlink:href="#DejaVuSans-20" x="322.412109"/>
      <use xlink:href="#DejaVuSans-37" x="354.199219"/>
      <use xlink:href="#DejaVuSans-30" x="417.822266"/>
      <use xlink:href="#DejaVuSans-2b" x="481.445312"/>
     </g>
    </g>
    <g id="line2d_68">
     <path d="M 111.419059 324.719922 
L 118.359059 324.719922 
L 125.299059 324.719922 
" style="fill: none; stroke: #e88366; stroke-width: 2; stroke-linecap: square"/>
    </g>
    <g id="text_18">
     <!-- 70+ vs teen -->
     <g transform="translate(130.851059 327.148922)scale(0.0694 -0.0694)">
      <use xlink:href="#DejaVuSans-37"/>
      <use xlink:href="#DejaVuSans-30" x="63.623047"/>
      <use xlink:href="#DejaVuSans-2b" x="127.246094"/>
      <use xlink:href="#DejaVuSans-20" x="211.035156"/>
      <use xlink:href="#DejaVuSans-76" x="242.822266"/>
      <use xlink:href="#DejaVuSans-73" x="302.001953"/>
      <use xlink:href="#DejaVuSans-20" x="354.101562"/>
      <use xlink:href="#DejaVuSans-74" x="385.888672"/>
      <use xlink:href="#DejaVuSans-65" x="425.097656"/>
      <use xlink:href="#DejaVuSans-65" x="486.621094"/>
      <use xlink:href="#DejaVuSans-6e" x="548.144531"/>
     </g>
    </g>
    <g id="line2d_69">
     <path d="M 111.419059 334.906541 
L 118.359059 334.906541 
L 125.299059 334.906541 
" style="fill: none; stroke: #e67760; stroke-width: 2; stroke-linecap: square"/>
    </g>
    <g id="text_19">
     <!-- 50s vs 70+ -->
     <g transform="translate(130.851059 337.335541)scale(0.0694 -0.0694)">
      <use xlink:href="#DejaVuSans-35"/>
      <use xlink:href="#DejaVuSans-30" x="63.623047"/>
      <use xlink:href="#DejaVuSans-73" x="127.246094"/>
      <use xlink:href="#DejaVuSans-20" x="179.345703"/>
      <use xlink:href="#DejaVuSans-76" x="211.132812"/>
      <use xlink:href="#DejaVuSans-73" x="270.3125"/>
      <use xlink:href="#DejaVuSans-20" x="322.412109"/>
      <use xlink:href="#DejaVuSans-37" x="354.199219"/>
      <use xlink:href="#DejaVuSans-30" x="417.822266"/>
      <use xlink:href="#DejaVuSans-2b" x="481.445312"/>
     </g>
    </g>
    <g id="line2d_70">
     <path d="M 111.419059 345.093159 
L 118.359059 345.093159 
L 125.299059 345.093159 
" style="fill: none; stroke: #e46c5d; stroke-width: 2; stroke-linecap: square"/>
    </g>
    <g id="text_20">
     <!-- 60s vs teen -->
     <g transform="translate(130.851059 347.522159)scale(0.0694 -0.0694)">
      <use xlink:href="#DejaVuSans-36"/>
      <use xlink:href="#DejaVuSans-30" x="63.623047"/>
      <use xlink:href="#DejaVuSans-73" x="127.246094"/>
      <use xlink:href="#DejaVuSans-20" x="179.345703"/>
      <use xlink:href="#DejaVuSans-76" x="211.132812"/>
      <use xlink:href="#DejaVuSans-73" x="270.3125"/>
      <use xlink:href="#DejaVuSans-20" x="322.412109"/>
      <use xlink:href="#DejaVuSans-74" x="354.199219"/>
      <use xlink:href="#DejaVuSans-65" x="393.408203"/>
      <use xlink:href="#DejaVuSans-65" x="454.931641"/>
      <use xlink:href="#DejaVuSans-6e" x="516.455078"/>
     </g>
    </g>
    <g id="line2d_71">
     <path d="M 111.419059 355.279778 
L 118.359059 355.279778 
L 125.299059 355.279778 
" style="fill: none; stroke: #e0605c; stroke-width: 2; stroke-linecap: square"/>
    </g>
    <g id="text_21">
     <!-- 60s vs 70+ -->
     <g transform="translate(130.851059 357.708778)scale(0.0694 -0.0694)">
      <use xlink:href="#DejaVuSans-36"/>
      <use xlink:href="#DejaVuSans-30" x="63.623047"/>
      <use xlink:href="#DejaVuSans-73" x="127.246094"/>
      <use xlink:href="#DejaVuSans-20" x="179.345703"/>
      <use xlink:href="#DejaVuSans-76" x="211.132812"/>
      <use xlink:href="#DejaVuSans-73" x="270.3125"/>
      <use xlink:href="#DejaVuSans-20" x="322.412109"/>
      <use xlink:href="#DejaVuSans-37" x="354.199219"/>
      <use xlink:href="#DejaVuSans-30" x="417.822266"/>
      <use xlink:href="#DejaVuSans-2b" x="481.445312"/>
     </g>
    </g>
    <g id="line2d_72">
     <path d="M 187.171328 294.160066 
L 194.111328 294.160066 
L 201.051328 294.160066 
" style="fill: none; stroke: #db565d; stroke-width: 2; stroke-linecap: square"/>
    </g>
    <g id="text_22">
     <!-- 60s vs 40s -->
     <g transform="translate(206.603328 296.589066)scale(0.0694 -0.0694)">
      <use xlink:href="#DejaVuSans-36"/>
      <use xlink:href="#DejaVuSans-30" x="63.623047"/>
      <use xlink:href="#DejaVuSans-73" x="127.246094"/>
      <use xlink:href="#DejaVuSans-20" x="179.345703"/>
      <use xlink:href="#DejaVuSans-76" x="211.132812"/>
      <use xlink:href="#DejaVuSans-73" x="270.3125"/>
      <use xlink:href="#DejaVuSans-20" x="322.412109"/>
      <use xlink:href="#DejaVuSans-34" x="354.199219"/>
      <use xlink:href="#DejaVuSans-30" x="417.822266"/>
      <use xlink:href="#DejaVuSans-73" x="481.445312"/>
     </g>
    </g>
    <g id="line2d_73">
     <path d="M 187.171328 304.346684 
L 194.111328 304.346684 
L 201.051328 304.346684 
" style="fill: none; stroke: #d44d60; stroke-width: 2; stroke-linecap: square"/>
    </g>
    <g id="text_23">
     <!-- 60s vs 30s -->
     <g transform="translate(206.603328 306.775684)scale(0.0694 -0.0694)">
      <use xlink:href="#DejaVuSans-36"/>
      <use xlink:href="#DejaVuSans-30" x="63.623047"/>
      <use xlink:href="#DejaVuSans-73" x="127.246094"/>
      <use xlink:href="#DejaVuSans-20" x="179.345703"/>
      <use xlink:href="#DejaVuSans-76" x="211.132812"/>
      <use xlink:href="#DejaVuSans-73" x="270.3125"/>
      <use xlink:href="#DejaVuSans-20" x="322.412109"/>
      <use xlink:href="#DejaVuSans-33" x="354.199219"/>
      <use xlink:href="#DejaVuSans-30" x="417.822266"/>
      <use xlink:href="#DejaVuSans-73" x="481.445312"/>
     </g>
    </g>
    <g id="line2d_74">
     <path d="M 187.171328 314.533303 
L 194.111328 314.533303 
L 201.051328 314.533303 
" style="fill: none; stroke: #cc4664; stroke-width: 2; stroke-linecap: square"/>
    </g>
    <g id="text_24">
     <!-- 60s vs 20s -->
     <g transform="translate(206.603328 316.962303)scale(0.0694 -0.0694)">
      <use xlink:href="#DejaVuSans-36"/>
      <use xlink:href="#DejaVuSans-30" x="63.623047"/>
      <use xlink:href="#DejaVuSans-73" x="127.246094"/>
      <use xlink:href="#DejaVuSans-20" x="179.345703"/>
      <use xlink:href="#DejaVuSans-76" x="211.132812"/>
      <use xlink:href="#DejaVuSans-73" x="270.3125"/>
      <use xlink:href="#DejaVuSans-20" x="322.412109"/>
      <use xlink:href="#DejaVuSans-32" x="354.199219"/>
      <use xlink:href="#DejaVuSans-30" x="417.822266"/>
      <use xlink:href="#DejaVuSans-73" x="481.445312"/>
     </g>
    </g>
    <g id="line2d_75">
     <path d="M 187.171328 324.719922 
L 194.111328 324.719922 
L 201.051328 324.719922 
" style="fill: none; stroke: #c14168; stroke-width: 2; stroke-linecap: square"/>
    </g>
    <g id="text_25">
     <!-- 60s vs 50s -->
     <g transform="translate(206.603328 327.148922)scale(0.0694 -0.0694)">
      <use xlink:href="#DejaVuSans-36"/>
      <use xlink:href="#DejaVuSans-30" x="63.623047"/>
      <use xlink:href="#DejaVuSans-73" x="127.246094"/>
      <use xlink:href="#DejaVuSans-20" x="179.345703"/>
      <use xlink:href="#DejaVuSans-76" x="211.132812"/>
      <use xlink:href="#DejaVuSans-73" x="270.3125"/>
      <use xlink:href="#DejaVuSans-20" x="322.412109"/>
      <use xlink:href="#DejaVuSans-35" x="354.199219"/>
      <use xlink:href="#DejaVuSans-30" x="417.822266"/>
      <use xlink:href="#DejaVuSans-73" x="481.445312"/>
     </g>
    </g>
    <g id="line2d_76">
     <path d="M 187.171328 334.906541 
L 194.111328 334.906541 
L 201.051328 334.906541 
" style="fill: none; stroke: #b73d6b; stroke-width: 2; stroke-linecap: square"/>
    </g>
    <g id="text_26">
     <!-- 50s vs teen -->
     <g transform="translate(206.603328 337.335541)scale(0.0694 -0.0694)">
      <use xlink:href="#DejaVuSans-35"/>
      <use xlink:href="#DejaVuSans-30" x="63.623047"/>
      <use xlink:href="#DejaVuSans-73" x="127.246094"/>
      <use xlink:href="#DejaVuSans-20" x="179.345703"/>
      <use xlink:href="#DejaVuSans-76" x="211.132812"/>
      <use xlink:href="#DejaVuSans-73" x="270.3125"/>
      <use xlink:href="#DejaVuSans-20" x="322.412109"/>
      <use xlink:href="#DejaVuSans-74" x="354.199219"/>
      <use xlink:href="#DejaVuSans-65" x="393.408203"/>
      <use xlink:href="#DejaVuSans-65" x="454.931641"/>
      <use xlink:href="#DejaVuSans-6e" x="516.455078"/>
     </g>
    </g>
    <g id="line2d_77">
     <path d="M 187.171328 345.093159 
L 194.111328 345.093159 
L 201.051328 345.093159 
" style="fill: none; stroke: #ac3a6d; stroke-width: 2; stroke-linecap: square"/>
    </g>
    <g id="text_27">
     <!-- 30s vs teen -->
     <g transform="translate(206.603328 347.522159)scale(0.0694 -0.0694)">
      <use xlink:href="#DejaVuSans-33"/>
      <use xlink:href="#DejaVuSans-30" x="63.623047"/>
      <use xlink:href="#DejaVuSans-73" x="127.246094"/>
      <use xlink:href="#DejaVuSans-20" x="179.345703"/>
      <use xlink:href="#DejaVuSans-76" x="211.132812"/>
      <use xlink:href="#DejaVuSans-73" x="270.3125"/>
      <use xlink:href="#DejaVuSans-20" x="322.412109"/>
      <use xlink:href="#DejaVuSans-74" x="354.199219"/>
      <use xlink:href="#DejaVuSans-65" x="393.408203"/>
      <use xlink:href="#DejaVuSans-65" x="454.931641"/>
      <use xlink:href="#DejaVuSans-6e" x="516.455078"/>
     </g>
    </g>
    <g id="line2d_78">
     <path d="M 187.171328 355.279778 
L 194.111328 355.279778 
L 201.051328 355.279778 
" style="fill: none; stroke: #a1386f; stroke-width: 2; stroke-linecap: square"/>
    </g>
    <g id="text_28">
     <!-- 20s vs teen -->
     <g transform="translate(206.603328 357.708778)scale(0.0694 -0.0694)">
      <use xlink:href="#DejaVuSans-32"/>
      <use xlink:href="#DejaVuSans-30" x="63.623047"/>
      <use xlink:href="#DejaVuSans-73" x="127.246094"/>
      <use xlink:href="#DejaVuSans-20" x="179.345703"/>
      <use xlink:href="#DejaVuSans-76" x="211.132812"/>
      <use xlink:href="#DejaVuSans-73" x="270.3125"/>
      <use xlink:href="#DejaVuSans-20" x="322.412109"/>
      <use xlink:href="#DejaVuSans-74" x="354.199219"/>
      <use xlink:href="#DejaVuSans-65" x="393.408203"/>
      <use xlink:href="#DejaVuSans-65" x="454.931641"/>
      <use xlink:href="#DejaVuSans-6e" x="516.455078"/>
     </g>
    </g>
    <g id="line2d_79">
     <path d="M 260.7234 294.160066 
L 267.6634 294.160066 
L 274.6034 294.160066 
" style="fill: none; stroke: #963570; stroke-width: 2; stroke-linecap: square"/>
    </g>
    <g id="text_29">
     <!-- 40s vs teen -->
     <g transform="translate(280.1554 296.589066)scale(0.0694 -0.0694)">
      <use xlink:href="#DejaVuSans-34"/>
      <use xlink:href="#DejaVuSans-30" x="63.623047"/>
      <use xlink:href="#DejaVuSans-73" x="127.246094"/>
      <use xlink:href="#DejaVuSans-20" x="179.345703"/>
      <use xlink:href="#DejaVuSans-76" x="211.132812"/>
      <use xlink:href="#DejaVuSans-73" x="270.3125"/>
      <use xlink:href="#DejaVuSans-20" x="322.412109"/>
      <use xlink:href="#DejaVuSans-74" x="354.199219"/>
      <use xlink:href="#DejaVuSans-65" x="393.408203"/>
      <use xlink:href="#DejaVuSans-65" x="454.931641"/>
      <use xlink:href="#DejaVuSans-6e" x="516.455078"/>
     </g>
    </g>
    <g id="line2d_80">
     <path d="M 260.7234 304.346684 
L 267.6634 304.346684 
L 274.6034 304.346684 
" style="fill: none; stroke: #8b3271; stroke-width: 2; stroke-linecap: square"/>
    </g>
    <g id="text_30">
     <!-- 40s vs 50s -->
     <g transform="translate(280.1554 306.775684)scale(0.0694 -0.0694)">
      <use xlink:href="#DejaVuSans-34"/>
      <use xlink:href="#DejaVuSans-30" x="63.623047"/>
      <use xlink:href="#DejaVuSans-73" x="127.246094"/>
      <use xlink:href="#DejaVuSans-20" x="179.345703"/>
      <use xlink:href="#DejaVuSans-76" x="211.132812"/>
      <use xlink:href="#DejaVuSans-73" x="270.3125"/>
      <use xlink:href="#DejaVuSans-20" x="322.412109"/>
      <use xlink:href="#DejaVuSans-35" x="354.199219"/>
      <use xlink:href="#DejaVuSans-30" x="417.822266"/>
      <use xlink:href="#DejaVuSans-73" x="481.445312"/>
     </g>
    </g>
    <g id="line2d_81">
     <path d="M 260.7234 314.533303 
L 267.6634 314.533303 
L 274.6034 314.533303 
" style="fill: none; stroke: #812f70; stroke-width: 2; stroke-linecap: square"/>
    </g>
    <g id="text_31">
     <!-- 30s vs 50s -->
     <g transform="translate(280.1554 316.962303)scale(0.0694 -0.0694)">
      <use xlink:href="#DejaVuSans-33"/>
      <use xlink:href="#DejaVuSans-30" x="63.623047"/>
      <use xlink:href="#DejaVuSans-73" x="127.246094"/>
      <use xlink:href="#DejaVuSans-20" x="179.345703"/>
      <use xlink:href="#DejaVuSans-76" x="211.132812"/>
      <use xlink:href="#DejaVuSans-73" x="270.3125"/>
      <use xlink:href="#DejaVuSans-20" x="322.412109"/>
      <use xlink:href="#DejaVuSans-35" x="354.199219"/>
      <use xlink:href="#DejaVuSans-30" x="417.822266"/>
      <use xlink:href="#DejaVuSans-73" x="481.445312"/>
     </g>
    </g>
    <g id="line2d_82">
     <path d="M 260.7234 324.719922 
L 267.6634 324.719922 
L 274.6034 324.719922 
" style="fill: none; stroke: #752d6f; stroke-width: 2; stroke-linecap: square"/>
    </g>
    <g id="text_32">
     <!-- 20s vs 50s -->
     <g transform="translate(280.1554 327.148922)scale(0.0694 -0.0694)">
      <use xlink:href="#DejaVuSans-32"/>
      <use xlink:href="#DejaVuSans-30" x="63.623047"/>
      <use xlink:href="#DejaVuSans-73" x="127.246094"/>
      <use xlink:href="#DejaVuSans-20" x="179.345703"/>
      <use xlink:href="#DejaVuSans-76" x="211.132812"/>
      <use xlink:href="#DejaVuSans-73" x="270.3125"/>
      <use xlink:href="#DejaVuSans-20" x="322.412109"/>
      <use xlink:href="#DejaVuSans-35" x="354.199219"/>
      <use xlink:href="#DejaVuSans-30" x="417.822266"/>
      <use xlink:href="#DejaVuSans-73" x="481.445312"/>
     </g>
    </g>
    <g id="line2d_83">
     <path d="M 260.7234 334.906541 
L 267.6634 334.906541 
L 274.6034 334.906541 
" style="fill: none; stroke: #6a2b6c; stroke-width: 2; stroke-linecap: square"/>
    </g>
    <g id="text_33">
     <!-- 40s vs 30s -->
     <g transform="translate(280.1554 337.335541)scale(0.0694 -0.0694)">
      <use xlink:href="#DejaVuSans-34"/>
      <use xlink:href="#DejaVuSans-30" x="63.623047"/>
      <use xlink:href="#DejaVuSans-73" x="127.246094"/>
      <use xlink:href="#DejaVuSans-20" x="179.345703"/>
      <use xlink:href="#DejaVuSans-76" x="211.132812"/>
      <use xlink:href="#DejaVuSans-73" x="270.3125"/>
      <use xlink:href="#DejaVuSans-20" x="322.412109"/>
      <use xlink:href="#DejaVuSans-33" x="354.199219"/>
      <use xlink:href="#DejaVuSans-30" x="417.822266"/>
      <use xlink:href="#DejaVuSans-73" x="481.445312"/>
     </g>
    </g>
    <g id="line2d_84">
     <path d="M 260.7234 345.093159 
L 267.6634 345.093159 
L 274.6034 345.093159 
" style="fill: none; stroke: #602969; stroke-width: 2; stroke-linecap: square"/>
    </g>
    <g id="text_34">
     <!-- 40s vs 20s -->
     <g transform="translate(280.1554 347.522159)scale(0.0694 -0.0694)">
      <use xlink:href="#DejaVuSans-34"/>
      <use xlink:href="#DejaVuSans-30" x="63.623047"/>
      <use xlink:href="#DejaVuSans-73" x="127.246094"/>
      <use xlink:href="#DejaVuSans-20" x="179.345703"/>
      <use xlink:href="#DejaVuSans-76" x="211.132812"/>
      <use xlink:href="#DejaVuSans-73" x="270.3125"/>
      <use xlink:href="#DejaVuSans-20" x="322.412109"/>
      <use xlink:href="#DejaVuSans-32" x="354.199219"/>
      <use xlink:href="#DejaVuSans-30" x="417.822266"/>
      <use xlink:href="#DejaVuSans-73" x="481.445312"/>
     </g>
    </g>
    <g id="line2d_85">
     <path d="M 260.7234 355.279778 
L 267.6634 355.279778 
L 274.6034 355.279778 
" style="fill: none; stroke: #552665; stroke-width: 2; stroke-linecap: square"/>
    </g>
    <g id="text_35">
     <!-- 20s vs 30s -->
     <g transform="translate(280.1554 357.708778)scale(0.0694 -0.0694)">
      <use xlink:href="#DejaVuSans-32"/>
      <use xlink:href="#DejaVuSans-30" x="63.623047"/>
      <use xlink:href="#DejaVuSans-73" x="127.246094"/>
      <use xlink:href="#DejaVuSans-20" x="179.345703"/>
      <use xlink:href="#DejaVuSans-76" x="211.132812"/>
      <use xlink:href="#DejaVuSans-73" x="270.3125"/>
      <use xlink:href="#DejaVuSans-20" x="322.412109"/>
      <use xlink:href="#DejaVuSans-33" x="354.199219"/>
      <use xlink:href="#DejaVuSans-30" x="417.822266"/>
      <use xlink:href="#DejaVuSans-73" x="481.445312"/>
     </g>
    </g>
   </g>
  </g>
 </g>
 <defs>
  <clipPath id="p48737fade5">
   <rect x="48.507266" y="24.14175" width="334.8" height="217.44"/>
  </clipPath>
 </defs>
</svg>
